<?xml version="1.0" encoding="utf-8"?>
<!-- Generator: Adobe Illustrator 26.0.1, SVG Export Plug-In . SVG Version: 6.00 Build 0)  -->
<svg version="1.1" id="Ebene_1" xmlns="http://www.w3.org/2000/svg" xmlns:xlink="http://www.w3.org/1999/xlink" x="0px" y="0px"
	 viewBox="0 0 14 7.4" style="enable-background:new 0 0 14 7.4;" xml:space="preserve">
<style type="text/css">
	.st0{fill:#FFFFFF;}
</style>
<path class="st0" d="M13.9,3.9c0-0.1,0-0.2,0-0.3c0,0,0,0,0-0.1c0-0.1-0.1-0.2-0.1-0.2l-3.2-3.2C10.4,0,10.1,0,9.9,0.1c0,0,0,0,0,0
	c-0.2,0.2-0.2,0.5,0,0.7l2.3,2.3H0.5C0.2,3.2,0,3.4,0,3.7s0.2,0.5,0.5,0.5h11.8L9.9,6.5C9.7,6.7,9.7,7,9.9,7.2
	c0.1,0.1,0.2,0.1,0.4,0.2c0.1,0,0.3-0.1,0.3-0.2L13.8,4C13.8,4,13.9,3.9,13.9,3.9L13.9,3.9z"/>
</svg>
