<?xml version="1.0" encoding="utf-8"?>
<!-- Generator: Adobe Illustrator 26.0.1, SVG Export Plug-In . SVG Version: 6.00 Build 0)  -->
<svg version="1.1" id="Ebene_1" xmlns="http://www.w3.org/2000/svg" xmlns:xlink="http://www.w3.org/1999/xlink" x="0px" y="0px"
	 viewBox="0 0 62.52 38.63" style="enable-background:new 0 0 62.52 38.63;" xml:space="preserve">
<style type="text/css">
	.st0{fill:#FFFFFF;}
</style>
<g>
	<g>
		<g>
			<path class="st0" d="M6.48,23.55c-0.07,0-0.07,0,0,0.04c0.04,0.03,0.04,0.04,0.01,0.06c-0.03,0-0.07,0.02-0.1,0.03
				c-0.03,0,0,0.01,0.06,0.01c0.14,0,0.09,0.06-0.06,0.06c-0.16,0-0.33,0.04-0.33,0.07c0,0.01,0.07,0.03,0.14,0.03
				c0.09,0-0.29,0.02-0.82,0.03c-1.1,0.03-0.94,0.07-1.95,0.13c-0.39,0.03-0.95,0.06-1.24,0.06c-0.66,0.01-0.56,0,0.8-0.07
				c1.43-0.09,1.56-0.1,1.78-0.12c0.22-0.03-0.51-0.01-1.22,0.03c-0.27,0.02-0.8,0.04-1.16,0.06c-0.77,0.04-1.29,0.09-1.39,0.12
				c-0.04,0.03,0.06,0.03,0.29,0.03c0.33-0.01,0.33-0.01,0.09,0.02c-0.14,0-0.36,0.03-0.48,0.04c-0.14,0.01-0.19,0-0.17-0.02
				c0.03-0.01,0.01-0.03-0.06-0.07c-0.12-0.04-0.12-0.1-0.01-0.14c0.06-0.03,0.06-0.03-0.01-0.03c-0.04,0-0.09-0.01-0.09-0.03
				s-0.01-0.03-0.04-0.03c-0.09,0-0.09-0.14-0.01-0.17c0.03-0.01,0.06-0.03,0.04-0.04c0-0.01,0-0.03,0.03-0.04
				c0.01-0.01,0-0.01-0.03-0.01c-0.04,0-0.09-0.03-0.1-0.04c0-0.03-0.03-0.04-0.06-0.04c-0.01,0-0.03-0.03-0.01-0.07
				c0-0.04-0.01-0.06-0.09-0.06s-0.09,0-0.06-0.07c0.01-0.03,0.06-0.07,0.12-0.09c0.07-0.02,0.09-0.03,0.07-0.07
				c-0.01-0.03,0.01-0.04,0.07-0.04s0.1-0.01,0.12-0.03c0.03-0.01,0.07-0.03,0.12-0.03c0.03-0.01-0.09-0.01-0.28-0.01
				C0.21,23.03,0.1,23.03,0.1,23c0-0.02,0.01-0.03,0.03-0.03c0.07,0,0.06-0.09-0.01-0.1c-0.06,0-0.06,0-0.01-0.01
				c0.07-0.01,0.04-0.07-0.04-0.07c-0.07,0-0.07-0.03,0.01-0.09c0.06-0.04,0.06-0.04,0.01-0.06c-0.06-0.03-0.06-0.03,0.01-0.06
				c0.06-0.03,0.07-0.06,0.07-0.07c-0.01-0.01,0-0.03,0.03-0.03c0.04,0,0.04-0.02-0.01-0.03c-0.07-0.01-0.07-0.01,0.03-0.06
				l0.1-0.04L0.24,22.3l-0.07-0.03l0.07-0.02c0.03-0.01,0.07-0.04,0.07-0.06c0-0.01,0.09-0.03,0.2-0.03c0.26,0,0.25,0.01,0.3-0.36
				c0.06-0.42,0.67-1.82,0.77-1.82c0.03,0,0.03-0.01,0.01-0.03c-0.03-0.02,0.01-0.12,0.1-0.3c0.09-0.16,0.16-0.28,0.17-0.26
				c0.01,0.01,0.01,0.01,0-0.02c-0.03-0.06,0.07-0.23,0.1-0.2c0.03,0.02,0.04,0.02,0.03-0.01c-0.03-0.04,0.06-0.22,0.1-0.2
				c0.01,0.02,0.01,0,0-0.03c-0.01-0.03,0-0.04,0.01-0.03c0.03,0.01,0.04,0,0.01-0.03c-0.01-0.04,0-0.04,0.03-0.04
				c0.01,0.01,0.03,0.01,0.01-0.02c0-0.06,0.12-0.26,0.16-0.26c0.03,0,0.04-0.01,0.01-0.03c-0.03-0.01,0.06-0.19,0.8-1.39
				c1.06-1.75,1.98-3.1,2.29-3.37c0.09-0.09,0.17-0.16,0.19-0.16c0.03,0,0,0.16-0.04,0.22c-0.01,0.02,0,0.02,0.04-0.01
				c0.07-0.09,0.16-0.01,0.14,0.12c0,0.07,0,0.09,0.06,0.09c0.06-0.01,0.06,0,0.06,0.06c-0.03,0.06-0.03,0.06,0.06,0.02
				c0.04-0.04,0.07-0.06,0.07-0.04c0,0.01,0.04,0,0.07-0.02C6.14,14,6.14,14,6.07,14.1c-0.04,0.06-0.1,0.16-0.13,0.22
				c-0.03,0.07-0.09,0.16-0.12,0.2c-0.03,0.06-0.04,0.09-0.03,0.1c0.01,0.01,0.12-0.1,0.23-0.22c0.12-0.14,0.22-0.25,0.23-0.25
				c0.01,0,0.03,0.01,0.01,0.03c0,0.02,0.01,0.03,0.03,0.04c0.04,0.02,0.04,0.04,0.03,0.09c-0.01,0.03-0.01,0.06,0.01,0.04
				c0-0.01,0.04-0.01,0.07,0c0.07,0.06,0.06,0.06-0.35,0.62c-0.32,0.46-0.62,0.96-0.62,1c0,0.02,0.07-0.09,0.16-0.23
				c0.09-0.16,0.19-0.3,0.22-0.33c0.03-0.03,0.12-0.14,0.16-0.23c0.16-0.25,0.51-0.58,0.59-0.58c0.06,0,0.06,0.01,0.06,0.1v0.09
				l0.09-0.07l0.1-0.07l-0.06,0.09c-0.06,0.1-0.06,0.14,0,0.09c0.09-0.07,0.06-0.01-0.1,0.23c-0.09,0.14-0.14,0.26-0.13,0.26
				c0.01,0,0.06-0.06,0.09-0.1c0.04-0.04,0.07-0.09,0.09-0.09c0.01,0.03-0.07,0.13-0.16,0.26c-0.2,0.27-1.1,1.56-1.35,1.95
				c-0.09,0.14-0.28,0.42-0.41,0.64c-0.82,1.27-0.94,1.48-0.91,1.52c0,0.01,0,0.03-0.01,0.03c-0.03,0-0.06,0.04-0.07,0.1
				c-0.01,0.07-0.04,0.12-0.06,0.12c-0.01,0-0.03,0.03-0.06,0.07c0,0.04-0.03,0.07-0.04,0.07c-0.01,0-0.01,0.02-0.01,0.03
				c0.01,0.01,0,0.03-0.03,0.06c-0.01,0-0.03,0.01-0.03,0.03c0.01,0.01-0.01,0.07-0.06,0.14c-0.04,0.06-0.07,0.1-0.07,0.12
				c0,0.01-0.32,0.59-0.4,0.72c-0.2,0.33-0.61,1.1-0.58,1.1c0.03,0,0.07-0.06,0.1-0.13c0.04-0.07,0.19-0.33,0.35-0.59
				c0.14-0.26,0.55-1.01,0.61-1.08c0.06-0.09,0.12-0.19,0.12-0.22c0.01-0.03,0.12-0.19,0.22-0.36c0.1-0.17,0.26-0.43,0.36-0.58
				c0.09-0.14,0.19-0.32,0.23-0.38c0.04-0.07,0.16-0.26,0.26-0.42c0.1-0.16,0.19-0.3,0.2-0.32c0.01-0.02,0.03-0.03,0.03-0.04
				c-0.01,0,0.03-0.06,0.06-0.12c0.04-0.04,0.07-0.1,0.07-0.12c0-0.03,1.11-1.66,1.36-1.98c0.1-0.16,0.26-0.35,0.33-0.42l0.14-0.16
				l-0.14,0.22c-0.07,0.12-0.39,0.58-0.69,1.01c-0.56,0.83-1.45,2.18-1.36,2.1c0.01-0.03,0.19-0.27,0.36-0.53
				c0.17-0.26,0.38-0.54,0.42-0.59c0.04-0.06,0.07-0.12,0.09-0.13c0.01-0.03,0.64-0.97,0.94-1.4c0.13-0.22,0.51-0.61,0.54-0.58
				c0.01,0.02-0.12,0.19-0.28,0.41c-0.67,0.91-2.29,3.33-3.04,4.56c-0.2,0.32-0.67,1.11-0.72,1.21c-0.06,0.1-0.17,0.28-0.25,0.41
				l-0.12,0.22h0.14c0.07,0,0.56-0.03,1.1-0.04c1.3-0.06,1.62-0.09,1.85-0.06c0.17,0.02,0.19,0.02,0.16,0.06
				c-0.03,0.01-0.12,0.04-0.2,0.06c-0.42,0.04-0.46,0.07-0.14,0.09c0.26,0.03,0.3,0.03,0.39,0.07c0.1,0.04,0.09,0.1,0,0.1
				c-0.03,0,0,0.01,0.07,0.03l0.13,0.04l-0.12,0.03c-0.12,0.03-0.1,0.03,0.04,0.06c0.06,0.01,0.09,0.03,0.07,0.07
				c-0.01,0.03,0.03,0.04,0.13,0.06l0.13,0.02l-0.13,0.04c-0.07,0.03-0.19,0.06-0.23,0.07l-0.09,0.03h0.12
				c0.07,0,0.12,0.01,0.13,0.04c0,0.03,0.04,0.06,0.07,0.06c0.09,0,0.19,0.04,0.16,0.09c0,0.03-0.04,0.07-0.09,0.09
				c-0.07,0.03-0.07,0.13,0,0.13c0.03,0,0.04,0,0.04,0.02c-0.14,0-0.29,0.01-0.43,0.01c-0.26,0.01-0.52,0.04-0.78,0.06
				c-0.49,0.03,0.03,0.07-0.46,0.14c-0.03,0-0.06,0-0.09,0.01c0.01,0,0.03,0,0.03,0c0.48,0-0.06,0,0.42-0.04
				c0.43-0.03,0.88-0.07,1.32-0.12c0.03,0.04,0.09,0.09,0.13,0.09c0.09,0,0.14,0.03,0.14,0.07C6.66,23.49,6.56,23.55,6.48,23.55z
				 M0.85,22.3c0-0.01-0.03-0.03-0.07-0.03c-0.04,0-0.07,0.01-0.06,0.03c0,0.02,0.04,0.03,0.07,0.03
				C0.82,22.33,0.85,22.32,0.85,22.3z M4.29,23.46c-0.45,0.01-0.88,0.01-1.32,0.06c-0.42,0.04-0.93,0.1-1.3,0.16
				C2.55,23.69,3.42,23.6,4.29,23.46z M1.77,19.6c0,0.01,0.01,0.01,0.03-0.02c0.01-0.01,0.03-0.06,0.03-0.07s-0.01,0-0.03,0.01
				C1.79,19.55,1.77,19.58,1.77,19.6z M1.8,22.39c-0.01,0.03-0.01,0.06-0.03,0.09c0.01-0.04,0.03-0.07,0.04-0.1
				c0.19-0.39,0.36-0.77,0.56-1.14c0.09-0.16,0.16-0.32,0.26-0.45c-0.09,0.1-0.16,0.2-0.23,0.32c-0.12,0.16-0.22,0.35-0.3,0.52
				C1.98,21.87,1.88,22.13,1.8,22.39z M5.42,16.82c-0.09,0.07-0.14,0.14-0.2,0.22c-0.12,0.14-0.23,0.29-0.33,0.43
				c-0.25,0.32-0.48,0.65-0.69,0.98C3.65,19.32,3.18,20.2,2.7,21.1c-0.06,0.13-0.13,0.26-0.2,0.39c0.1-0.14,0.19-0.29,0.28-0.45
				c0.4-0.64,0.78-1.3,1.16-1.97C3.97,19,4.17,18.66,4.26,18.5c0.12-0.17,0.23-0.36,0.36-0.55c0.14-0.22,0.29-0.45,0.43-0.67
				C5.17,17.12,5.27,16.96,5.42,16.82z M2.58,20.74c0.07-0.1,0.13-0.2,0.2-0.3c0.28-0.43,0.54-0.88,0.78-1.33
				c0.03-0.06,0.17-0.27,0.23-0.39c0.09-0.13,0.16-0.25,0.25-0.38c0.1-0.14,0.91-1.27,1.03-1.42c0.07-0.1,0.14-0.22,0.23-0.3
				c-0.04,0.03-0.09,0.09-0.13,0.13c-0.09,0.1-0.16,0.2-0.23,0.29c-0.16,0.22-1.04,1.42-1.19,1.65c-0.38,0.58-0.69,1.19-1.03,1.78
				C2.69,20.57,2.64,20.65,2.58,20.74z M2.67,22.23c0.07,0,0.12-0.01,0.07-0.01c-0.04-0.02-0.1-0.02-0.14,0
				C2.57,22.22,2.6,22.23,2.67,22.23z M3.06,19.45c0.01-0.01,0.01-0.04,0.03-0.06c0.29-0.48,0.59-0.94,0.87-1.42
				c0.12-0.22,0.23-0.42,0.33-0.64c-0.16,0.29-0.36,0.56-0.54,0.85c-0.23,0.39-0.46,0.8-0.68,1.22C3.08,19.42,3.06,19.44,3.06,19.45
				z M4.07,22.17c0.04,0,0.06,0,0.04-0.02c-0.01-0.01-0.03-0.01-0.06,0C4.04,22.16,4.04,22.17,4.07,22.17z M4.49,18.79l0.06-0.06
				c0.01-0.04,0.06-0.1,0.07-0.13l0.03-0.06L4.61,18.6c-0.03,0.03-0.07,0.09-0.09,0.13L4.49,18.79z M4.8,22.14
				c0,0.01,0,0.03,0.01,0.03c0,0,0.01-0.02,0.03-0.03s0-0.03-0.01-0.03C4.81,22.11,4.8,22.13,4.8,22.14z M5.22,23.87
				c-0.03-0.03-0.25-0.04-0.25-0.02c-0.03,0.02,0.04,0.02,0.12,0.02C5.16,23.87,5.22,23.87,5.22,23.87z M5.06,16.59
				c0.01,0,0.03-0.03,0.06-0.07c0.01-0.03,0.01-0.06,0.01-0.06c-0.01,0-0.03,0.03-0.06,0.06C5.06,16.56,5.04,16.59,5.06,16.59z
				 M5.14,16.43c0.01,0,0.03-0.03,0.06-0.06c0.01-0.03,0.01-0.06,0.01-0.06c-0.01,0-0.03,0.03-0.04,0.06
				C5.14,16.4,5.14,16.43,5.14,16.43z M5.17,15.52c0.01,0,0.03-0.01,0.06-0.04c0.04-0.06,0.04-0.06-0.01-0.03
				C5.17,15.5,5.16,15.52,5.17,15.52z M5.35,16.11c0,0.01,0.01,0.01,0.03-0.01c0.01-0.03,0.04-0.06,0.04-0.07s-0.03-0.01-0.04,0.01
				C5.36,16.05,5.35,16.1,5.35,16.11z M5.46,23.85c0-0.01-0.01-0.03-0.03-0.03c-0.03,0-0.03,0.01-0.01,0.03
				c0.01,0.02,0.03,0.03,0.03,0.03C5.46,23.88,5.46,23.87,5.46,23.85z M5.61,14.91c0,0,0.03-0.02,0.04-0.04
				c0.04-0.06,0.04-0.06,0-0.02C5.59,14.9,5.58,14.91,5.61,14.91z"/>
			<path class="st0" d="M17.08,17.1c0,0.52-0.03,0.71-0.26,1.36c-0.25,0.77-0.46,1.2-0.88,1.87c-1.14,1.72-2.59,3.01-4.11,3.65
				c-0.17,0.07-0.35,0.13-0.36,0.13c-0.04-0.01-0.04,0-0.03,0.01c0.01,0.03,0.01,0.03-0.03,0.02c-0.03-0.02-0.2,0.01-0.39,0.06
				c-0.46,0.1-0.72,0.12-0.95,0.06c-0.1-0.03-0.23-0.07-0.29-0.12C9.6,24.01,9.6,23.99,9.79,24.1c0.1,0.04,0.25,0.07,0.33,0.09
				l0.16,0.01l-0.12-0.04c-0.07-0.01-0.28-0.09-0.48-0.16c-0.35-0.12-0.35-0.12-0.59-0.36c-0.13-0.14-0.33-0.38-0.43-0.53
				c-0.12-0.16-0.25-0.35-0.32-0.42C8.17,22.49,8.07,22.32,7.92,22c-0.16-0.39-0.19-0.52-0.19-1.04c0-0.68,0.12-1.24,0.39-1.94
				c0.23-0.56,0.33-0.77,0.72-1.33c0.43-0.64,0.61-0.85,1.04-1.33c0.75-0.87,1.53-1.52,2.3-1.94c0.23-0.13,0.51-0.3,0.53-0.36
				c0.03-0.04,0.32-0.14,0.67-0.25c0.48-0.12,0.58-0.12,0.74-0.07c0.1,0.03,0.12,0.04,0.06,0.04c-0.13,0.01,0.14,0.12,0.38,0.16
				c0.12,0.01,0.25,0.03,0.29,0.04c0.06,0,0.04,0-0.03-0.03c-0.06-0.03-0.17-0.07-0.26-0.07c-0.14-0.03-0.14-0.03,0.04-0.03
				c0.19,0.01,0.33,0.06,0.55,0.19c0.04,0.01,0.12,0.06,0.17,0.07c0.1,0.06,0.68,0.61,0.67,0.64c-0.02,0.03,0.17,0.23,0.27,0.28
				c0.2,0.1,0.61,0.85,0.74,1.35C17.07,16.59,17.08,16.69,17.08,17.1z M8.21,18.96c0-0.01-0.01-0.01-0.04,0.02
				C8.16,19,8.14,19.03,8.14,19.05s0.01,0.01,0.03-0.01C8.2,19.02,8.21,18.98,8.21,18.96z M8.27,18.77
				c-0.03,0.01-0.03,0.04-0.03,0.06c0,0.04,0.01,0.03,0.03-0.02C8.29,18.77,8.29,18.77,8.27,18.77z M9.55,18.61
				c0.09-0.12,0.16-0.23,0.25-0.35c0.13-0.19,0.28-0.36,0.43-0.54c-0.19,0.19-0.36,0.38-0.52,0.58c-0.13,0.17-0.26,0.35-0.38,0.53
				c-0.14,0.25-0.3,0.49-0.42,0.75c-0.03,0.07-0.06,0.13-0.09,0.19c0,0,0.01,0,0.01-0.01C8.88,19.68,8.94,19.6,9,19.5
				C9.15,19.22,9.37,18.9,9.55,18.61z M9.85,22.16c0.75-0.07,1.22-0.27,2.16-0.93c0.61-0.43,0.67-0.48,1.1-0.91
				c0.52-0.54,0.91-1.01,1.27-1.56c0.17-0.26,0.75-1.4,0.75-1.47c0-0.02,0.01-0.03,0.03-0.02c0.03,0.02,0.03,0,0.02-0.01
				c-0.03-0.04,0.01-0.13,0.06-0.1c0.01,0,0.01-0.01,0.01-0.04c-0.01-0.04-0.01-0.07,0-0.07c0.01,0,0.01-0.03,0.01-0.06
				c-0.01-0.03-0.01-0.03,0.02-0.03c0.01,0.01,0.03,0,0.03-0.04c0-0.04,0.03-0.2,0.06-0.36c0.09-0.39,0.13-0.84,0.06-0.9
				c-0.07-0.07-0.59,0.03-0.93,0.17c-0.28,0.12-0.39,0.14-0.35,0.09c0-0.01-0.04-0.01-0.13-0.01c-0.14,0.01-0.14,0.01-0.07-0.04
				c0.04-0.03,0.12-0.09,0.17-0.13l0.09-0.09l-0.16,0.04c-0.12,0.04-0.14,0.04-0.12,0c0.01-0.04,0-0.04-0.17,0
				c-0.19,0.06-0.29,0.12-0.72,0.41c-0.22,0.13-0.43,0.28-0.52,0.32c-0.2,0.13-0.75,0.61-1.2,1.07c-0.43,0.45-0.93,1.07-0.9,1.13
				c0,0.03-0.04,0.13-0.13,0.25c-0.22,0.33-0.48,0.8-0.49,0.91c0,0.09,0.01,0.07,0.2-0.22c0.1-0.16,0.23-0.35,0.26-0.39
				c0.04-0.06,0.07-0.12,0.06-0.12c0-0.02,0-0.02,0.03-0.02c0.03,0-0.03,0.12-0.13,0.29c-0.1,0.16-0.17,0.29-0.16,0.3
				c0,0,0.03-0.01,0.04-0.04c0.01-0.03,0.16-0.22,0.32-0.41c0.58-0.8,1.26-1.58,1.71-1.98c0.49-0.45,1.4-1.13,1.32-1
				c-0.01,0.02-0.38,0.3-0.77,0.59c-0.25,0.17-0.98,0.9-1.37,1.35c-0.33,0.38-0.85,1.04-1.01,1.32c-0.45,0.71-0.72,1.24-0.88,1.73
				c-0.17,0.51-0.25,0.87-0.19,0.94C9.3,22.2,9.4,22.2,9.85,22.16z M9.76,19.89c-0.04,0-0.51,1.04-0.49,1.13
				c0.01,0.01,0.2-0.41,0.36-0.78C9.7,20.03,9.78,19.89,9.76,19.89z M9.46,18.25c0.01,0,0.03-0.03,0.06-0.06
				c0.03-0.04,0.03-0.06-0.01-0.01C9.46,18.22,9.44,18.25,9.46,18.25z M9.7,17.95c0.58-0.8,1.63-1.91,2.18-2.34
				c0.3-0.25,0.61-0.43,0.67-0.42c0.03,0,0.14-0.04,0.26-0.12c0.22-0.12,0.27-0.17,0.09-0.09c-0.04,0.03-0.16,0.06-0.25,0.09
				c-0.17,0.07-0.72,0.42-1.1,0.69c-0.32,0.23-1.07,0.94-1.04,0.97c0.01,0.01,0.13-0.09,0.29-0.22c0.25-0.23,0.23-0.22-0.12,0.14
				c-0.45,0.46-0.55,0.58-0.88,1.08C9.53,18.14,9.47,18.25,9.7,17.95z M13.25,15.24c-0.13,0-1.46,0.94-1.87,1.3
				c-0.1,0.12-0.04,0.07,0.12-0.06c0.04-0.04-0.12,0.13-0.36,0.39c-0.65,0.67-0.87,0.94-1.35,1.74c-0.09,0.13,0.01,0.01,0.23-0.29
				c0.64-0.87,1.1-1.37,1.79-2c0.49-0.42,0.8-0.65,1.23-0.87c0.16-0.09,0.29-0.17,0.29-0.19C13.33,15.26,13.31,15.24,13.25,15.24z
				 M9.82,23.26c0.09,0.01,0.17,0.03,0.26,0.03c0.17,0.02,0.35-0.01,0.51-0.03c0.16-0.03,0.32-0.09,0.48-0.13
				c0.3-0.13,0.59-0.3,0.87-0.49c-0.1,0.06-0.19,0.1-0.29,0.16c-0.1,0.04-0.17,0.09-0.26,0.12c0.16-0.07,0.32-0.16,0.46-0.25
				c0.17-0.1,0.33-0.2,0.49-0.32c0.12-0.09,0.23-0.16,0.33-0.23c0.22-0.17,0.43-0.36,0.65-0.55c0.16-0.16,0.33-0.3,0.49-0.46
				c0.14-0.17,0.3-0.33,0.45-0.49c0.12-0.14,0.23-0.29,0.36-0.43c0.12-0.16,0.23-0.32,0.36-0.48c0.13-0.17,0.25-0.36,0.38-0.54
				c0.1-0.14,0.2-0.3,0.29-0.45c0.07-0.13,0.16-0.26,0.22-0.39c0.06-0.1,0.1-0.2,0.12-0.3c-0.03,0.12-0.09,0.22-0.16,0.32
				c-0.07,0.14-0.16,0.28-0.24,0.42c-0.12,0.16-0.23,0.32-0.33,0.49c-0.12,0.16-0.25,0.33-0.36,0.49c-0.06,0.09-0.26,0.35-0.36,0.49
				c-0.13,0.14-0.25,0.29-0.36,0.43c-0.13,0.13-0.26,0.28-0.39,0.42c-0.09,0.07-0.16,0.14-0.23,0.22c-0.16,0.16-0.35,0.3-0.52,0.46
				c-0.07,0.06-0.09,0.07-0.19,0.16c-0.1,0.07-0.17,0.13-0.22,0.16c-0.23,0.17-0.46,0.33-0.71,0.48c-0.23,0.14-0.45,0.28-0.69,0.42
				c-0.02,0-0.03,0.02-0.04,0.02c-0.1,0.03-0.32,0.09-0.45,0.13c-0.19,0.03-0.38,0.07-0.55,0.1C10.05,23.24,9.94,23.26,9.82,23.26
				C9.82,23.26,9.81,23.26,9.82,23.26z M10.64,23.56c0.15-0.03,0.29-0.06,0.41-0.13c-0.13,0.06-0.28,0.04-0.42,0.07
				c-0.16,0.01-0.33,0.04-0.49,0.04c-0.01,0-0.04,0-0.07,0c0.03,0,0.04,0.02,0.06,0.02C10.3,23.6,10.48,23.59,10.64,23.56z
				 M11.06,21.94c0-0.01-0.09,0.01-0.17,0.06c-0.1,0.04-0.3,0.13-0.45,0.17c-0.16,0.07-0.26,0.12-0.23,0.12
				c0.03,0,0.16-0.04,0.27-0.09C10.72,22.13,11.06,21.95,11.06,21.94z M11.47,17.66l0.42-0.43l-0.41,0.45
				c-0.64,0.68-1.07,1.19-1.06,1.24c0,0.02-0.01,0.03-0.04,0.04c-0.04,0.02-0.04-0.03,0.04-0.13
				C10.64,18.54,11.06,18.06,11.47,17.66z M10.43,15.95c-0.01,0.04,0.43-0.33,0.48-0.39c0.03-0.03,0.06-0.04,0.07-0.04
				s-0.01,0.06-0.07,0.12c-0.07,0.07-0.03,0.04,0.12-0.07c0.25-0.2,0.36-0.32,0.14-0.14c-0.07,0.06-0.14,0.1-0.16,0.09
				c0,0,0.07-0.07,0.17-0.16c0.1-0.07,0.19-0.14,0.19-0.16C11.37,15.14,10.48,15.87,10.43,15.95z M10.43,18.6
				c0-0.01,0.07-0.12,0.16-0.22l0.17-0.17l-0.14,0.17C10.44,18.61,10.43,18.63,10.43,18.6z M15.79,19.96
				c-0.58,0.88-1.13,1.53-1.9,2.24c-0.52,0.48-0.88,0.77-1.26,0.98c-0.33,0.2-0.85,0.45-0.87,0.42c-0.02-0.02-0.07,0.01-0.12,0.03
				c-0.04,0.03-0.23,0.1-0.4,0.16c-0.17,0.06-0.26,0.1-0.22,0.1c0.1,0,0.62-0.16,0.77-0.23c0.04-0.03,0.09-0.04,0.09-0.03
				c0.07,0.04-1.06,0.41-1.3,0.41c-0.04,0-0.12,0.01-0.13,0.04c-0.07,0.04,0.25,0.03,0.52-0.03c0.58-0.1,1.71-0.71,2.53-1.36
				c0.74-0.59,2.13-2.2,2.37-2.73C16.04,19.63,16.01,19.63,15.79,19.96z M10.92,22.79c0.13-0.06,0.23-0.1,0.22-0.1
				c0-0.01-0.56,0.2-0.59,0.22C10.51,22.94,10.67,22.9,10.92,22.79z M10.83,16.17c-0.1,0.09-0.12,0.1-0.1,0.1
				c0.02,0,0.04-0.04,0.1-0.09l0.09-0.1L10.83,16.17z M11.19,15.21c0.22-0.16,0.58-0.39,0.8-0.51c0.23-0.13,0.42-0.22,0.43-0.22
				c0,0-0.13,0.09-0.32,0.2c-0.19,0.13-0.35,0.25-0.36,0.26c-0.03,0.02,0,0.02,0.04-0.01c0.04-0.03,0.22-0.13,0.38-0.23
				c0.17-0.09,0.36-0.22,0.42-0.29c0.06-0.06,0.13-0.12,0.14-0.12c0.02,0,0.03-0.02,0.03-0.03c0-0.17-1.27,0.61-1.81,1.1
				C10.86,15.47,10.93,15.42,11.19,15.21z M11.09,15.92c-0.09,0.09-0.1,0.12-0.09,0.12c0.01,0,0.04-0.06,0.1-0.1l0.09-0.1
				L11.09,15.92z M11.29,15.66c-0.06,0.04-0.07,0.07-0.04,0.07c0,0,0.03-0.03,0.06-0.06C11.34,15.63,11.34,15.62,11.29,15.66z
				 M11.29,15.75c-0.06,0.04-0.07,0.07-0.04,0.07c0,0,0.03-0.03,0.06-0.06C11.34,15.72,11.34,15.72,11.29,15.75z M11.31,16.46
				c0,0,0.04-0.04,0.09-0.07c0.03-0.04,0.06-0.09,0.06-0.09c-0.01,0-0.06,0.04-0.09,0.09C11.32,16.42,11.29,16.46,11.31,16.46z
				 M12.09,22.11c-0.14,0.07-0.68,0.42-0.62,0.39c0.03,0,0.16-0.07,0.29-0.14C11.96,22.24,12.22,22.06,12.09,22.11z M11.5,16.3
				c0,0,0.04-0.04,0.1-0.09l0.09-0.1l-0.1,0.09C11.5,16.28,11.47,16.3,11.5,16.3z M12.6,16.16c-0.28,0.19-0.77,0.59-0.91,0.75
				l-0.16,0.17l0.19-0.17c0.1-0.09,0.36-0.3,0.58-0.48C12.73,16.08,12.81,16,12.6,16.16z M15.84,20.22c-0.55,0.84-1.32,1.71-2,2.27
				c-0.88,0.74-1.26,0.98-2.17,1.39c-0.14,0.07-0.04,0.04,0.2-0.04c0.14-0.06,0.36-0.16,0.49-0.22c0.23-0.13,0.9-0.59,1.19-0.81
				c0.87-0.69,1.9-1.87,2.34-2.63C16.01,19.99,15.98,20,15.84,20.22z M11.7,16.13c0.02,0,0.04-0.03,0.07-0.06
				C11.8,16.04,11.82,16,11.82,16c-0.02,0-0.04,0.04-0.07,0.07C11.72,16.1,11.69,16.13,11.7,16.13z M13.86,21.74
				c0.14-0.13,0.26-0.26,0.36-0.42c-0.1,0.13-0.22,0.26-0.33,0.36c-0.14,0.13-0.29,0.26-0.43,0.39c-0.39,0.32-0.75,0.62-1.14,0.87
				c-0.06,0.03-0.16,0.09-0.25,0.1c0,0.01-0.04,0.01-0.01,0.01c0.06-0.01,0.12-0.03,0.17-0.06c0.14-0.06,0.29-0.16,0.43-0.25
				c0.26-0.17,0.49-0.39,0.74-0.59C13.55,22.03,13.71,21.87,13.86,21.74z M12.05,22.82c0.03,0,0.14-0.07,0.3-0.16
				c0.46-0.29,0.95-0.68,1.39-1.11l0.43-0.43l-0.35,0.33c-0.68,0.61-1.1,0.94-1.55,1.21C12.13,22.75,12.03,22.82,12.05,22.82z
				 M12.09,14.93c0,0.01,0.06-0.01,0.33-0.16c0.1-0.06,0.17-0.12,0.17-0.12C12.58,14.64,12.09,14.9,12.09,14.93z M12.25,23.13
				c-0.04,0.03-0.07,0.04-0.07,0.06c0,0,0.03,0,0.07-0.01c0.03-0.01,0.06-0.04,0.06-0.06C12.31,23.11,12.28,23.11,12.25,23.13z
				 M12.77,23c-0.04,0.03-0.13,0.09-0.19,0.12c-0.04,0.03-0.1,0.07-0.1,0.07c0,0.02,0.22-0.1,0.3-0.17l0.09-0.07L12.77,23z
				 M12.76,21.77c-0.06,0.04-0.07,0.06-0.04,0.06c0,0,0.03-0.01,0.04-0.04C12.8,21.72,12.8,21.72,12.76,21.77z M13.78,22.23
				c-0.02,0-0.14,0.1-0.3,0.23c-0.16,0.13-0.35,0.28-0.42,0.33c-0.09,0.06-0.14,0.12-0.14,0.12c0,0.03,0.16-0.09,0.41-0.29
				C13.62,22.39,13.81,22.23,13.78,22.23z M12.97,15.91c0,0,0.1-0.04,0.25-0.12c0.13-0.07,0.25-0.13,0.26-0.13s-0.04,0.06-0.13,0.1
				c-0.19,0.13-0.24,0.17-0.07,0.07c0.07-0.03,0.19-0.09,0.25-0.1c0.14-0.06,0.19-0.12,0.07-0.09l-0.09,0.01l0.07-0.06
				c0.06-0.04,0.07-0.06,0.01-0.06c-0.03,0-0.1,0.03-0.17,0.06C13.28,15.68,12.97,15.88,12.97,15.91z M13.31,15.36
				c-0.1,0.06-0.12,0.07-0.07,0.07c0.01,0,0.06-0.03,0.09-0.06C13.38,15.33,13.38,15.33,13.31,15.36z M13.39,21.25
				c-0.01,0-0.04,0.04-0.09,0.09c-0.04,0.03-0.07,0.07-0.06,0.07c0,0,0.06-0.04,0.09-0.07C13.38,21.29,13.39,21.25,13.39,21.25z
				 M14.49,20.8c0.03-0.04,0.03-0.04-0.02-0.01c-0.04,0.06-0.06,0.07-0.04,0.07C14.45,20.86,14.46,20.84,14.49,20.8z M14.45,21.29
				c0.01-0.02,0.04-0.04,0.06-0.07c0.07-0.09,0.16-0.17,0.26-0.26c0.1-0.1,0.2-0.2,0.29-0.32c0.14-0.17,0.28-0.35,0.41-0.54
				c0.09-0.13,0.2-0.26,0.28-0.42c-0.09,0.14-0.2,0.28-0.3,0.41c-0.16,0.2-0.32,0.42-0.48,0.62c-0.06,0.07-0.16,0.17-0.22,0.23
				c-0.09,0.09-0.17,0.19-0.24,0.29C14.48,21.25,14.46,21.28,14.45,21.29z M14.61,20.64c0.01,0,0.04-0.03,0.07-0.06
				c0.04-0.03,0.06-0.06,0.04-0.06c0,0-0.04,0.03-0.07,0.06C14.62,20.61,14.61,20.64,14.61,20.64z M14.71,15.52
				c0.04,0,0.06-0.01,0.04-0.01c-0.02-0.01-0.03-0.01-0.06-0.01C14.67,15.5,14.68,15.5,14.71,15.52z M15.94,18.95
				c-0.19,0.32-0.46,0.74-0.68,1.1c-0.07,0.13-0.16,0.25-0.22,0.38c0.07-0.12,0.14-0.25,0.23-0.36c0.16-0.25,0.33-0.48,0.49-0.74
				c0.17-0.27,0.36-0.58,0.51-0.88c0.1-0.2,0.19-0.42,0.26-0.65c0.06-0.17,0.1-0.36,0.14-0.55c-0.07,0.23-0.16,0.42-0.23,0.65
				C16.3,18.25,16.13,18.6,15.94,18.95z M16.71,18.22c-0.19,0.53-0.33,0.87-0.38,0.87c-0.01,0-0.01,0.03,0,0.04
				c0,0.01,0,0.03-0.01,0.03c-0.03,0-0.03,0.01-0.01,0.03c0,0.01,0,0.03-0.02,0.03c-0.03,0-0.03,0.02-0.01,0.03
				c0,0.01,0,0.03-0.01,0.03c-0.03,0-0.04,0.02-0.03,0.03c0.02,0.01,0,0.03-0.01,0.03s-0.01,0.01-0.01,0.04
				c0.03,0.04,0.09-0.03,0.27-0.42c0.17-0.36,0.33-0.8,0.36-1.01C16.85,17.85,16.81,17.95,16.71,18.22z"/>
			<path class="st0" d="M26.6,15.71c-0.19,0.48-0.69,1.68-1.13,2.68c-0.23,0.51-0.48,1.07-0.55,1.24c-0.07,0.17-0.14,0.33-0.16,0.35
				c-0.01,0.03-0.04,0.1-0.06,0.17c-0.03,0.07-0.12,0.28-0.19,0.45c-0.43,1.06-0.98,2.65-1.11,3.24c-0.06,0.29-0.12,0.41-0.2,0.41
				c-0.02,0-0.03-0.03-0.03-0.07c0-0.06-0.04-0.12-0.1-0.16c-0.06-0.04-0.09-0.12-0.09-0.16c0-0.06-0.01-0.07-0.07-0.06
				c-0.1,0.03-0.2-0.06-0.26-0.22c-0.09-0.25-0.1-0.27-0.17-0.26c-0.06,0.01-0.09-0.01-0.12-0.09c-0.01-0.06-0.03-0.14-0.01-0.19
				c0.01-0.07,0-0.09-0.06-0.06C22.25,23,22.24,23,22.24,22.95c0-0.03-0.03-0.04-0.04-0.04c-0.04,0-0.06-0.01-0.06-0.04
				c0-0.01-0.03-0.06-0.06-0.07c-0.09-0.06-0.09-0.46,0.01-0.78c0.04-0.14,0.07-0.26,0.07-0.3c0-0.04-0.1-0.09-0.13-0.04
				c-0.01,0.01-0.03,0.01-0.04,0.01c-0.01-0.01-0.32-0.03-0.68-0.03c-0.72-0.03-1.36,0.01-1.48,0.09c-0.07,0.06-0.14,0.06-0.1,0.02
				c0-0.02,0-0.03-0.01-0.03c-0.03,0-0.03-0.03-0.03-0.06c0.04-0.1,0.42-0.13,1.53-0.13c0.65,0,1.01,0,1.01-0.03
				c0-0.01-0.04-0.03-0.1-0.03s-0.45,0-0.87-0.01c-0.43-0.01-0.94-0.01-1.13,0l-0.35,0.03l-0.39,0.42
				c-0.74,0.82-1.11,1.29-1.39,1.71c-0.23,0.33-0.29,0.42-0.38,0.61c-0.01,0.06-0.04,0.12-0.07,0.13c-0.07,0.1-0.2,0.35-0.17,0.38
				c0.01,0.02-0.02,0.04-0.06,0.07c-0.07,0.04-0.19,0.06-0.16,0.01c0.03-0.04-0.01-0.22-0.06-0.22c-0.03,0-0.04-0.03-0.04-0.07
				c0-0.07-0.07-0.17-0.13-0.17c-0.01,0-0.04-0.01-0.06-0.04c0.14-0.2,0.26-0.36,0.43-0.58c0.38-0.51,0.74-1.03,1.1-1.55
				c-0.36,0.43-0.69,0.88-0.98,1.29c-0.16,0.23-0.33,0.46-0.49,0.69c-0.03,0.03-0.06,0.07-0.07,0.1c-0.04-0.07-0.07-0.16-0.06-0.19
				c0.02-0.01,0-0.03-0.01-0.03s-0.03,0-0.03-0.01c0.03-0.06,0.07-0.1,0.1-0.14c0.14-0.23,0.28-0.42,0.43-0.62
				c-0.17,0.2-0.35,0.41-0.49,0.62c-0.01,0.03-0.03,0.04-0.04,0.06c-0.01-0.03-0.03-0.06-0.06-0.1c-0.03-0.03-0.07-0.09-0.09-0.14
				c0-0.04-0.04-0.13-0.07-0.19c-0.01-0.06-0.04-0.12-0.03-0.13c0-0.01-0.02-0.03-0.04-0.06c-0.01-0.01-0.03-0.06-0.03-0.07
				c0.02-0.03,0-0.04-0.01-0.06c-0.09-0.06,0.01-0.51,0.22-0.9c0.17-0.35,0.58-0.94,0.62-0.94c0.02,0,0.03-0.01,0.03-0.04
				c-0.03-0.06,0.19-0.33,0.23-0.3c0.02,0,0.02,0,0.02-0.03c-0.03-0.06,0.52-0.77,1.04-1.36c0.09-0.1,0.26-0.3,0.38-0.43
				c0.12-0.14,0.22-0.26,0.23-0.26c0-0.02,0.12-0.13,0.25-0.28c0.12-0.14,0.23-0.26,0.23-0.27c0.01,0,0.13-0.13,0.26-0.27
				c0.13-0.14,0.49-0.51,0.8-0.82c0.3-0.32,0.61-0.64,0.66-0.72c0.58-0.68,2.84-2.62,3.14-2.71c0.06-0.03,0.06-0.01-0.04,0.07
				c-0.1,0.1-0.12,0.12-0.06,0.12c0.03,0.01,0.06,0.01,0.09,0c0,0,0,0.03,0,0.04c-0.03,0.04-0.01,0.04,0.04,0.01
				c0.09-0.04,0.14,0,0.06,0.09c-0.06,0.06-0.06,0.06,0,0.07c0.03,0.01,0.09,0,0.12-0.01c0.04-0.02,0.03,0-0.01,0.06l-0.09,0.09
				l0.1-0.06l0.09-0.06l-0.06,0.07l-0.06,0.07l0.06-0.03c0.09-0.06,0.12-0.1,0.17-0.29c0.1-0.29,0.14-0.38,0.2-0.39
				c0.03-0.01,0.07-0.06,0.09-0.09c0.01-0.04,0.03-0.06,0.04-0.04c0.01,0.03,0.04,0.03,0.06,0.03c0.04-0.03,0.09,0.04,0.1,0.14
				c0.01,0.13,0.09,0.22,0.17,0.22c0.03,0,0.07-0.01,0.09-0.03c0-0.02,0.04,0,0.07,0.03c0.04,0.04,0.04,0.09,0.03,0.2
				c-0.01,0.1-0.01,0.13,0.03,0.09c0.04-0.07,0.16-0.13,0.17-0.1c0.01,0.01,0.03,0.06,0.03,0.1c0,0.1,0.04,0.12,0.07,0.04
				c0.03-0.09,0.07,0.01,0.07,0.16c0,0.14,0.02,0.16,0.09,0.07c0.03-0.03,0.06-0.03,0.06-0.01c0.01,0.03,0.03,0.04,0.06,0.04
				c0.03,0,0.04,0.03,0.04,0.07c0,0.06,0.01,0.07,0.06,0.07c0.06-0.02,0.06,0.01,0.07,0.3c0.01,0.16-0.09,0.51-0.1,0.39
				c-0.02-0.07-0.28,0.54-0.29,0.64c0,0.03,0,0.06-0.01,0.06c-0.02-0.02-0.1,0.19-0.2,0.45c-0.12,0.26-0.26,0.61-0.33,0.78
				c-0.16,0.39-0.29,0.74-0.26,0.75c0,0-0.01,0.04-0.03,0.07c-0.02,0.04-0.03,0.09-0.04,0.1c0,0.02-0.09,0.25-0.2,0.51
				c-0.29,0.67-0.45,1.07-0.62,1.53c-0.09,0.23-0.22,0.55-0.29,0.72c-0.06,0.16-0.1,0.3-0.1,0.3c0.02,0.01,0.03-0.01,0.04-0.06
				c0.09-0.22,0.91-2.21,0.96-2.31c0.03-0.07,0.1-0.25,0.16-0.39c0.06-0.16,0.14-0.36,0.19-0.48c0.06-0.12,0.1-0.23,0.1-0.25
				c0-0.01,0.03-0.09,0.07-0.19c0.04-0.09,0.13-0.29,0.19-0.45c0.06-0.16,0.14-0.35,0.19-0.43c0.03-0.09,0.07-0.19,0.07-0.23
				c0.02-0.04,0.06-0.13,0.09-0.19c0.03-0.07,0.06-0.13,0.04-0.13c0-0.01,0.03-0.07,0.07-0.13c0.03-0.06,0.07-0.13,0.07-0.14
				c0-0.07,0.01-0.09,0.09-0.23c0.03-0.07,0.06-0.16,0.04-0.19c-0.01-0.01-0.01-0.01,0-0.01c0.03,0.01,0.06-0.03,0.09-0.09
				c0.03-0.07,0.07-0.17,0.1-0.24c0.03-0.07,0.06-0.13,0.07-0.14c0.02,0,0.02,0.09,0.02,0.19C26.72,15.37,26.69,15.47,26.6,15.71z
				 M18.65,21.22c0.23-0.29,0.45-0.59,0.69-0.87c-0.29,0.32-0.56,0.65-0.84,1c-0.36,0.45-0.71,0.91-1,1.4
				c-0.03,0.03-0.04,0.06-0.06,0.1c0.01-0.04,0.04-0.09,0.07-0.13C17.9,22.19,18.23,21.75,18.65,21.22z M19.52,21.42
				c-0.06,0-0.1,0.04-0.19,0.17c-0.06,0.07-0.13,0.16-0.14,0.17c-0.03,0.01-0.07,0.07-0.12,0.14c-0.03,0.06-0.07,0.12-0.09,0.12
				c-0.02,0-0.03,0.01-0.03,0.04c0,0.01-0.09,0.14-0.2,0.27c-0.12,0.13-0.26,0.32-0.33,0.41c-0.06,0.1-0.23,0.3-0.35,0.48
				c-0.13,0.17-0.25,0.32-0.25,0.33c0,0.01,0.03,0,0.04-0.02c0.01-0.03,0.29-0.36,0.58-0.74c0.3-0.36,0.61-0.74,0.68-0.84
				c0.07-0.1,0.22-0.26,0.3-0.36C19.59,21.43,19.59,21.42,19.52,21.42z M20.28,20.02c0.27-0.32,0.53-0.64,0.82-0.94
				c0.06-0.06,0.13-0.12,0.2-0.2c0,0,0.01-0.02,0.03-0.03c-0.24,0.22-0.48,0.46-0.71,0.71c-0.26,0.26-0.49,0.55-0.74,0.82
				c-0.17,0.2-0.35,0.39-0.52,0.58c-0.06,0.06-0.12,0.12-0.16,0.17c0.06-0.06,0.12-0.12,0.17-0.17
				C19.69,20.65,19.99,20.35,20.28,20.02z M19.91,21.39c0-0.02-0.03,0-0.04,0.01c-0.04,0.04-0.04,0.04,0.01,0.03
				C19.91,21.42,19.92,21.41,19.91,21.39z M21.51,20.44c-0.41-0.07-0.84-0.07-1.24-0.03c-0.02,0-0.03,0-0.04,0c0.01,0,0.03,0,0.04,0
				c0.19,0,0.38,0.03,0.58,0.03C21.06,20.44,21.28,20.44,21.51,20.44z M20.62,18.8c0.02,0,0.03-0.01,0.04-0.03
				c0.09-0.07,0.17-0.16,0.28-0.25c0.43-0.45,0.93-0.87,1.47-1.36c0.43-0.39,0.87-0.8,1.29-1.19c0.2-0.2,0.42-0.39,0.61-0.59
				c-0.1,0.1-0.22,0.2-0.33,0.3c-0.13,0.12-0.26,0.23-0.39,0.35c-0.38,0.33-0.74,0.67-1.1,1c-0.33,0.3-0.67,0.59-1,0.91
				c-0.23,0.22-0.45,0.45-0.68,0.68C20.75,18.69,20.69,18.74,20.62,18.8z M20.96,18.95c-0.06,0.04-0.1,0.09-0.1,0.1
				s0.03,0,0.12-0.09l0.09-0.1L20.96,18.95z M21.01,19.8c-0.01-0.02-0.03-0.02-0.06-0.02c-0.03,0.02-0.01,0.02,0.01,0.03
				C21.01,19.81,21.02,19.8,21.01,19.8z M23.03,20.16c-0.2-0.06-0.42-0.07-0.62-0.09c-0.45-0.04-0.9-0.01-1.35,0.01
				c-0.03,0-0.07,0.01-0.1,0.01c0.03,0,0.06,0,0.09,0c0.42,0.02,0.84,0.03,1.26,0.03C22.55,20.15,22.79,20.13,23.03,20.16z
				 M21.18,19.54c0.02,0.01,0.03,0.03,0.04,0.03s0.35-0.3,0.74-0.69c0.39-0.38,0.93-0.9,1.2-1.16c0.46-0.43,0.62-0.61,0.58-0.67
				c-0.01-0.01-0.12,0.07-0.22,0.16c-0.1,0.12-0.29,0.28-0.39,0.39C22.69,18.01,21.17,19.53,21.18,19.54z M21.44,19.57
				c0.02,0,0.22-0.2,0.45-0.43c0.23-0.23,0.71-0.72,1.08-1.07c0.36-0.36,0.65-0.65,0.65-0.67c-0.01-0.01-0.14,0.09-0.29,0.23
				C22.42,18.5,21.37,19.57,21.44,19.57z M24.28,15.72c-0.03-0.03-1.19,1.01-1.92,1.74c-0.41,0.41-0.98,1.01-0.84,0.91
				c0.06-0.04,0.13-0.13,0.19-0.19c0.16-0.19,1.45-1.42,2.07-1.97C24.06,15.95,24.29,15.74,24.28,15.72z M23.28,18.38
				c0.01,0,0.03-0.04,0.03-0.09c0-0.04,0.04-0.19,0.1-0.33c0.09-0.23,0.09-0.25,0.03-0.2c-0.04,0.03-0.46,0.45-0.94,0.93l-0.88,0.88
				h1.21l0.16-0.46C23.25,18.38,23.25,18.37,23.28,18.38z M22.06,19.8c0.38,0,0.55,0,0.36-0.02c-0.19,0-0.51,0-0.69,0
				C21.53,19.8,21.67,19.8,22.06,19.8z M21.93,20.31c-0.01,0-0.09,0.07-0.06,0.07c0.01-0.01,0.04-0.03,0.06-0.04
				C21.93,20.32,21.95,20.29,21.93,20.31z M22.16,18.41c-0.01,0-0.04,0.03-0.07,0.06c-0.03,0.04-0.04,0.07-0.04,0.07
				c0.01,0,0.04-0.03,0.07-0.07C22.15,18.44,22.16,18.41,22.16,18.41z M22.32,16.88c0.07-0.06,0.29-0.28,0.49-0.46
				c0.2-0.19,0.36-0.35,0.35-0.35c0-0.01-0.23,0.2-0.49,0.46C22.4,16.79,22.25,16.95,22.32,16.88z M23.12,17.49
				c-0.59,0.56-0.87,0.85-0.75,0.74c0.07-0.04,0.43-0.39,0.8-0.74c0.38-0.33,0.68-0.64,0.68-0.65
				C23.84,16.81,23.74,16.89,23.12,17.49z M22.61,16.44l0.22-0.17c0.1-0.1,0.38-0.33,0.61-0.52c0.38-0.35,0.64-0.55,1.08-0.9
				c0.12-0.1,0.23-0.19,0.23-0.2c0-0.01-0.03-0.01-0.06,0c-0.14,0.07-1.4,1.14-1.88,1.61L22.61,16.44z M23.49,21.29
				c0-0.02,0-0.03,0-0.04c0,0.01,0,0.01-0.01,0.03c-0.06,0.19-0.13,0.36-0.19,0.55c-0.07,0.22-0.14,0.42-0.22,0.64
				C23.28,22.1,23.41,21.69,23.49,21.29z M23.89,20.99c0.13-0.29,0.25-0.59,0.38-0.9c0.23-0.53,0.48-1.07,0.68-1.61
				c-0.26,0.52-0.55,1.03-0.78,1.56c-0.17,0.39-0.33,0.78-0.48,1.19c-0.1,0.26-0.17,0.54-0.26,0.8c-0.01,0.03-0.03,0.07-0.04,0.1
				c0.01-0.03,0.03-0.07,0.06-0.12C23.6,21.68,23.73,21.33,23.89,20.99z M24.74,17.98c-0.23,0.54-0.45,1.08-0.65,1.63
				c-0.16,0.38-0.32,0.77-0.48,1.14c-0.06,0.12-0.1,0.22-0.14,0.33c0.06-0.12,0.1-0.22,0.16-0.33c0.32-0.62,0.59-1.26,0.84-1.91
				c0.25-0.61,0.48-1.22,0.75-1.82c0.06-0.13,0.12-0.25,0.19-0.41c0-0.02,0.02-0.04,0.03-0.06C25.16,17.01,24.96,17.5,24.74,17.98z
				 M23.8,22.01c0-0.02,0-0.02-0.01,0.01c-0.01,0.03-0.03,0.07-0.03,0.09C23.75,22.16,23.8,22.07,23.8,22.01z M25.48,16.95
				c-0.12,0.3-0.22,0.62-0.3,0.93c-0.01,0.03-0.01,0.04-0.01,0.06c0.01-0.04,0.03-0.09,0.04-0.12c0.3-0.81,0.61-1.62,0.93-2.43
				C25.88,15.9,25.66,16.42,25.48,16.95z M25.61,14.09c0.02-0.03,0.03-0.04,0.02-0.06c0,0-0.03,0.02-0.04,0.04
				C25.56,14.1,25.56,14.12,25.61,14.09z"/>
			<path class="st0" d="M37.12,17.08c0.01,0.88-0.13,1.32-0.62,2.02c-0.13,0.19-0.25,0.35-0.26,0.36c-0.01,0-0.04,0.04-0.07,0.09
				c-0.09,0.14-0.61,0.67-0.93,0.94c-0.84,0.72-1.82,1.35-3.21,2.01c-1.4,0.69-3.36,1.48-4.38,1.75c-0.22,0.06-0.28,0.09-0.29,0.14
				c-0.01,0.07-0.09,0.16-0.14,0.16c-0.01,0-0.03-0.03-0.03-0.06v-0.09c0-0.03-0.02-0.03-0.04-0.03c-0.23,0.07-1.01,0.19-0.88,0.12
				c0.01,0,0.19-0.04,0.36-0.09c0.42-0.1,0.49-0.17,0.09-0.09c-0.16,0.03-0.3,0.04-0.33,0.04c-0.01-0.01,0.07-0.04,0.22-0.07
				c0.22-0.04,0.28-0.07,0.28-0.12c0-0.06-0.02-0.06-0.26-0.01c-0.25,0.03-0.26,0.01-0.02-0.03c0.28-0.07,0.16-0.1-0.13-0.06
				c-0.16,0.04-0.32,0.04-0.43,0.04l-0.19-0.03l0.35-0.07c0.39-0.07,0.38-0.09-0.07-0.03c-0.17,0.03-0.33,0.04-0.35,0.03
				c0,0,0.01-0.02,0.04-0.02c0.03,0,0.06-0.01,0.06-0.03s-0.04-0.03-0.09-0.03c-0.07,0-0.07,0-0.04-0.03c0.04-0.03,0.04-0.04,0-0.06
				c-0.04-0.03-0.02-0.04,0.12-0.07c0.07-0.03,0.09-0.04,0.06-0.06c-0.01-0.01-0.03-0.03-0.01-0.03c0.03,0,0.38-0.06,0.43-0.09
				c0.09-0.01,0.04-0.06-0.09-0.04c-0.12,0.01-0.12,0-0.04-0.01c0.07-0.03,0-0.03-0.36,0.01c-0.09,0-0.1,0-0.06-0.01
				c0.06-0.03,0.04-0.03-0.03-0.03c-0.12,0-0.09-0.03,0.07-0.07c0.12-0.02,0.12-0.02-0.07-0.02c-0.14,0.02-0.23,0.02-0.25-0.01
				c-0.01-0.01,0-0.03,0.01-0.03c0.02,0,0.04-0.02,0.04-0.04c0-0.01,0.09-0.06,0.26-0.1c0.23-0.06,0.28-0.07,0.28-0.13
				c-0.02-0.07-0.04-0.09-0.29-0.04c-0.17,0.02-0.2,0.02-0.25-0.01c-0.04-0.04-0.04-0.06,0.03-0.07c0.06-0.03,0.06-0.03-0.01-0.04
				c-0.1-0.03-0.1-0.03,0.04-0.06l0.13-0.03h-0.13c-0.19,0-0.26-0.06-0.12-0.09c0.12-0.02,0.14-0.07,0.06-0.07
				c-0.12,0-0.1-0.06,0.02-0.07c0.06-0.02,0.19-0.04,0.29-0.06l0.16-0.04h-0.16c-0.16,0.03-0.16,0.01,0.06-0.03
				c0.3-0.06,0.29-0.09-0.03-0.04c-0.14,0.03-0.26,0.03-0.28,0.03c0-0.01,0.04-0.03,0.13-0.04c0.17-0.03,0.17-0.06,0-0.04
				c-0.13,0-0.14,0-0.06-0.03c0.04-0.02,0.19-0.04,0.29-0.07l0.22-0.03l0.1-0.29c0.1-0.26,0.12-0.33,0.13-0.46
				c0-0.01,0.01-0.03,0.03-0.01c0.01,0.01,0.04-0.01,0.06-0.06c0.06-0.1,0.04-0.13,0-0.04c-0.03,0.03-0.06,0.06-0.06,0.04
				c0-0.04,0.09-0.19,0.1-0.16c0,0.04,0.06-0.04,0.06-0.09c0-0.01-0.01,0-0.03,0.01c-0.06,0.1-0.03,0,0.06-0.19
				c0.06-0.12,0.12-0.2,0.12-0.19c0.03,0.01,0.03-0.01,0.01-0.03c-0.01-0.04-0.01-0.04,0.03-0.03c0.02,0.01,0.03,0.01,0.02-0.02
				c-0.02-0.01,0-0.07,0.03-0.14c0.1-0.23,0.91-1.68,1.51-2.66c0.33-0.55,0.61-1.01,0.61-1.01s-0.07,0.03-0.16,0.07
				c-0.09,0.03-0.17,0.07-0.19,0.07c-0.04,0-0.03-0.09,0.01-0.12c0.06-0.03,0.07-0.07,0-0.07c-0.07,0-0.07-0.06,0.01-0.1
				c0.06-0.04,0.07-0.04,0.01-0.03c-0.04,0-0.09,0-0.12-0.01c-0.04-0.02-0.04-0.03,0-0.07c0.06-0.07,0.06-0.07-0.03-0.06
				c-0.06,0-0.09,0-0.07-0.01c0.02-0.03,0.02-0.04,0-0.04c-0.01,0-0.06-0.04-0.1-0.09l-0.06-0.1l0.06-0.09l0.06-0.07l-0.07-0.03
				c-0.06-0.02-0.07-0.03-0.06-0.06c0.01-0.03,0-0.04-0.03-0.04c-0.03,0-0.04-0.03-0.04-0.06c0-0.04-0.03-0.07-0.06-0.07
				c-0.1,0-0.07-0.07,0.07-0.16c0.1-0.07,0.12-0.07,0.04-0.07c-0.1,0-0.17-0.06-0.12-0.07c0.09-0.03,0.07-0.09-0.03-0.07
				c-0.04,0-0.07,0-0.12-0.07c-0.04-0.06-0.04-0.07,0-0.13c0.06-0.04,0.04-0.04-0.03-0.03c-0.07,0.02-0.12-0.04-0.03-0.07
				c0.03-0.01,0.04-0.03,0.03-0.04c0-0.01,0.01-0.06,0.04-0.1c0.07-0.09,0.12-0.2,0.07-0.2c-0.1,0,0.03-0.07,0.49-0.29
				c0.84-0.42,1.74-0.66,3.3-0.9c0.87-0.12,1.22-0.14,1.97-0.14c0.88,0,1.24,0.07,1.69,0.33c0.23,0.13,0.77,0.67,0.9,0.9
				c0.06,0.12,0.12,0.2,0.12,0.22c0,0,0.04,0.12,0.1,0.25c0.06,0.13,0.12,0.27,0.12,0.3c0.01,0.04,0.06,0.14,0.12,0.23
				c0.04,0.09,0.12,0.29,0.17,0.48C37.11,16.6,37.12,16.72,37.12,17.08z M25.84,22.92c-0.03,0-0.06,0-0.07,0
				c-0.03,0.02-0.01,0.02,0.03,0.02C25.84,22.94,25.86,22.94,25.84,22.92z M25.91,22.84c-0.01-0.02-0.03-0.02-0.06,0
				c-0.03,0-0.01,0.01,0.01,0.03C25.91,22.87,25.93,22.85,25.91,22.84z M26.03,22.9c-0.03,0-0.07,0-0.09,0
				c-0.02,0.01,0,0.01,0.04,0.01C26.03,22.91,26.05,22.91,26.03,22.9z M26.12,23.42c-0.03-0.01-0.06-0.01-0.09,0
				c-0.04,0-0.03,0.01,0.03,0.01C26.1,23.43,26.13,23.42,26.12,23.42z M26.25,23.39c-0.01-0.01-0.03-0.01-0.06,0
				c-0.01,0-0.01,0.02,0.02,0.02C26.25,23.4,26.26,23.4,26.25,23.39z M26.61,23.94c-0.02-0.01-0.03-0.01-0.06-0.01
				c-0.01,0.01-0.01,0.03,0.02,0.03C26.61,23.95,26.62,23.95,26.61,23.94z M27.54,23c0.62-0.16,1.23-0.38,1.82-0.61
				c0.42-0.14,0.81-0.32,1.2-0.51c0.17-0.07,0.33-0.14,0.48-0.25c-0.14,0.07-0.29,0.13-0.43,0.19c-0.17,0.07-0.36,0.16-0.53,0.23
				c-0.81,0.32-1.58,0.58-2.39,0.87c-0.12,0.04-0.23,0.09-0.35,0.12c-0.02,0-0.03,0.01-0.03,0.01l0.01-0.01
				C27.39,23.03,27.46,23.01,27.54,23z M35.06,20.48c-0.85,0.68-1.9,1.32-3.11,1.9c-1.32,0.62-2.86,1.26-4.12,1.65
				c-0.19,0.06-0.35,0.13-0.35,0.14c0,0.03-0.03,0.04,0.59-0.16c1.17-0.39,2.6-0.95,3.82-1.55c1.35-0.64,2.62-1.45,3.31-2.07
				C35.26,20.32,35.2,20.36,35.06,20.48z M36.53,18.77c0,0-0.1,0.12-0.2,0.26c-0.27,0.35-0.56,0.68-0.59,0.67
				c-0.01,0-0.03-0.03-0.01-0.04c0-0.01-0.06,0.04-0.16,0.13c-0.48,0.46-0.75,0.68-1.35,1.08c-0.27,0.19-0.59,0.39-0.69,0.46
				c-0.12,0.06-0.19,0.12-0.17,0.14c0.01,0.02,0,0.02-0.02,0c-0.01,0-0.19,0.07-0.38,0.17c-0.35,0.2-1.29,0.68-1.62,0.82
				c-1.24,0.56-2.73,1.14-3.62,1.42c-0.14,0.06-0.22,0.09-0.23,0.13c-0.02,0.03-0.02,0.04,0,0.04c0.01,0,0.16-0.04,0.32-0.09
				c1.17-0.36,3.04-1.11,4.25-1.74c1.24-0.62,1.97-1.07,2.86-1.81c0.16-0.13,0.33-0.27,0.38-0.32c0.06-0.03,0.14-0.12,0.22-0.19
				c0.06-0.07,0.13-0.12,0.14-0.12C35.74,19.84,36.59,18.83,36.53,18.77z M27.54,23.88c-0.02,0.01,0,0.01,0.03,0
				c0.03,0,0.14-0.04,0.26-0.07c1.22-0.38,3.6-1.37,4.85-2.05c0.46-0.25,0.28-0.17-0.32,0.13c-1.24,0.64-2.86,1.33-4.22,1.78
				C27.81,23.76,27.55,23.87,27.54,23.88z M27.62,23.32c0.01,0,0.03-0.01,0.04-0.03c0.01-0.01,0-0.03-0.01-0.03
				c-0.02,0-0.03,0.01-0.04,0.03C27.59,23.3,27.61,23.32,27.62,23.32z M27.61,22.35c0.04-0.1,0.09-0.2,0.13-0.3
				c0.16-0.35,0.32-0.69,0.49-1.04c0.12-0.23,0.23-0.45,0.35-0.68c0.12-0.22,0.29-0.51,0.39-0.68c0.17-0.29,0.35-0.58,0.51-0.87
				c-0.2,0.33-0.43,0.67-0.62,1c-0.26,0.42-0.49,0.85-0.71,1.29c-0.16,0.33-0.29,0.67-0.43,1.01
				C27.68,22.16,27.64,22.26,27.61,22.35z M27.66,21.19c0.06-0.13,0.13-0.25,0.19-0.36c0.16-0.29,0.33-0.56,0.49-0.85
				c0.26-0.49,0.54-0.98,0.81-1.48c0.33-0.56,0.72-1.17,1.08-1.76c-0.19,0.27-0.39,0.56-0.58,0.84c-0.36,0.58-0.69,1.17-1.03,1.78
				c-0.27,0.51-0.56,1-0.82,1.5C27.77,20.96,27.71,21.07,27.66,21.19z M33.94,20.35c0,0-0.16,0.09-0.33,0.2
				c-1.39,0.85-3.02,1.63-4.95,2.36c-0.2,0.06-0.45,0.16-0.56,0.19c-0.2,0.07-0.32,0.13-0.24,0.13c0.03,0,0.22-0.06,0.43-0.14
				c1.52-0.52,3.33-1.33,4.51-2.01C33.26,20.81,33.94,20.39,33.94,20.35z M28.42,21.56c0,0.01,0.01,0.01,0.04,0.01
				c0.04-0.01,0.12-0.13,0.2-0.26c0.14-0.26,0.23-0.41,0.43-0.8c0.13-0.23,0.52-0.87,1.04-1.66c0.2-0.32,0.43-0.68,0.51-0.8
				c0.38-0.58,0.9-1.37,1.1-1.66c0.17-0.26,0.22-0.32,0.17-0.33c-0.03,0-0.09,0.01-0.12,0.04c-0.04,0.06-0.81,1.21-1.11,1.69
				c-0.09,0.12-0.3,0.46-0.49,0.77C29.41,19.79,28.42,21.48,28.42,21.56z M28.79,23.08c0.43-0.12,0.85-0.26,1.26-0.42
				c0.59-0.23,1.16-0.49,1.71-0.78c-0.97,0.42-1.95,0.82-2.95,1.19c-0.07,0.03-0.14,0.06-0.23,0.09
				C28.65,23.13,28.72,23.11,28.79,23.08z M28.68,18.69c0.01-0.03,0.03-0.04,0.04-0.07c0.14-0.22,0.27-0.43,0.4-0.67
				c0.12-0.17,0.23-0.36,0.35-0.54c-0.3,0.38-0.56,0.78-0.77,1.22C28.71,18.64,28.69,18.67,28.68,18.69z M35.69,15.9
				c-0.13-0.03-0.26-0.06-0.29-0.07c-0.06-0.01-0.06-0.01-0.01,0.04s0.04,0.06,0,0.03c-0.03-0.03-0.19-0.06-0.38-0.07
				c-0.41-0.04-1.49-0.03-1.55,0.03c-0.03,0.01-0.1,0.03-0.19,0.01c-0.07,0-0.13,0-0.13,0.03c0,0.01-0.03,0.01-0.07,0.01
				c-0.03,0-0.22,0.01-0.41,0.03c-0.3,0.04-0.33,0.04-0.42,0.14c-0.23,0.23-3.41,5.21-3.41,5.34c0,0.01,0.03,0.01,0.16-0.04
				c0.06-0.03,0.14-0.07,0.17-0.07c0.02-0.01,0.13-0.06,0.25-0.1c0.36-0.17,0.77-0.35,0.82-0.36c0.03-0.01,0.07-0.03,0.09-0.04
				c0.03-0.01,0.27-0.14,0.58-0.27c0.96-0.45,1.87-0.96,2.55-1.42c0.64-0.45,1.42-1.14,1.75-1.58c0.07-0.09,0.13-0.16,0.13-0.14
				c0,0.06,0.33-0.48,0.46-0.72c0.23-0.48,0.22-0.55-0.09-0.67c-0.12-0.04-0.19-0.07-0.17-0.07c0.01-0.01,0.1,0.02,0.19,0.04
				c0.14,0.06,0.19,0.06,0.19,0C35.91,15.95,35.81,15.92,35.69,15.9z M30.72,18.09c-0.03,0.04-0.26,0.42-0.52,0.82
				c-0.45,0.71-1.07,1.72-1.26,2.04c-0.06,0.13-0.07,0.14-0.02,0.09c0.04-0.03,0.07-0.07,0.07-0.09c0-0.01,0.33-0.58,0.59-0.97
				c0.12-0.2,0.52-0.84,0.59-0.95c0.46-0.78,1.55-2.45,1.79-2.78c0.12-0.14,0.16-0.22,0.13-0.22
				C32.05,16.04,31.04,17.54,30.72,18.09z M29.47,15.74c0.29-0.12,0.46-0.19,0.39-0.19c-0.03,0-0.54,0.19-0.67,0.23
				C28.98,15.88,29.1,15.85,29.47,15.74z M29.21,16.53c0-0.01-0.03,0-0.04,0.01c-0.03,0.03-0.03,0.03,0.02,0.02
				C29.21,16.55,29.23,16.53,29.21,16.53z M29.6,15.17c0.2-0.06,0.35-0.13,0.35-0.13c-0.01-0.01-0.64,0.19-0.74,0.25
				S29.13,15.35,29.6,15.17z M29.56,15.07c0.04-0.02,0.23-0.06,0.41-0.1c0.19-0.04,0.35-0.1,0.36-0.12
				c0.04-0.04-0.61,0.13-0.74,0.19C29.52,15.07,29.5,15.08,29.56,15.07z M29.94,15.32c-0.13,0.04-0.26,0.09-0.39,0.13
				c0.12-0.03,0.23-0.06,0.36-0.09c0.36-0.09,0.71-0.19,1.07-0.27c0.36-0.09,0.71-0.16,1.07-0.2c0.12,0,0.23-0.01,0.35-0.03
				c0.01,0,0.01,0,0.01,0c0.02,0,0.03-0.01,0.04-0.03s0.01-0.01,0.03-0.03c0,0,0-0.01-0.02-0.01c-0.12-0.01-0.23,0-0.35,0.01
				c-0.04,0-0.1,0.02-0.14,0.02h-0.01c-0.03,0-0.06,0.01-0.1,0.01C31.21,14.91,30.56,15.1,29.94,15.32z M30.63,16.73
				c-0.65,1.03-1.04,1.66-1.03,1.75c0,0.01,0.04-0.07,0.1-0.19c0.07-0.12,0.19-0.32,0.27-0.45c0.45-0.72,0.68-1.07,0.84-1.3
				c0.1-0.16,0.17-0.29,0.16-0.29C30.95,16.23,30.99,16.2,30.63,16.73z M30.02,15.03c0.04,0,0.06,0,0.06-0.01
				c-0.01-0.02-0.04-0.02-0.07,0C29.99,15.01,29.99,15.03,30.02,15.03z M30.57,14.35c0.01-0.02,0.04-0.02,0.07-0.03
				c0.19-0.04,0.39-0.09,0.59-0.1c0.36-0.04,0.71-0.07,1.06-0.16c-0.3,0.03-0.61,0.01-0.91,0.06c-0.26,0.03-0.52,0.12-0.78,0.22
				C30.59,14.33,30.59,14.33,30.57,14.35z M31.08,16.07c-0.01,0-0.03,0.01-0.03,0.03c0,0.01,0.01,0.03,0.03,0.03
				c0.02,0,0.03-0.01,0.03-0.03C31.11,16.08,31.09,16.07,31.08,16.07z M31.25,15.84c-0.03,0.01-0.07,0.06-0.09,0.09
				c-0.04,0.06-0.04,0.07-0.01,0.06c0.03-0.01,0.07-0.04,0.09-0.09C31.3,15.84,31.3,15.82,31.25,15.84z M31.19,14.69
				c0.01,0,0.04-0.01,0.06-0.03c0-0.02,0-0.03-0.01-0.03c-0.02,0-0.04,0.01-0.04,0.03C31.18,14.68,31.18,14.69,31.19,14.69z
				 M31.72,16.1c-0.02,0-0.03,0.01-0.03,0.03c-0.01,0.03-0.1,0.16-0.2,0.3c-0.1,0.16-0.19,0.27-0.19,0.29
				c0,0.03,0.03-0.02,0.24-0.33C31.66,16.23,31.73,16.1,31.72,16.1z M32.19,14.52c-0.55,0.06-0.78,0.09-0.78,0.13
				c0,0.02,0.04,0.02,0.07,0.02c0.04-0.02,0.25-0.06,0.48-0.07C32.39,14.53,32.58,14.48,32.19,14.52z M31.58,21.23
				c0.06-0.01,0.13-0.04,0.19-0.06c0.43-0.14,0.84-0.36,1.23-0.59c0.19-0.12,0.38-0.23,0.55-0.36c0.1-0.09,0.22-0.17,0.3-0.28
				c-0.09,0.1-0.19,0.16-0.29,0.23c-0.17,0.12-0.33,0.2-0.54,0.3c-0.41,0.23-0.8,0.46-1.21,0.65c-0.09,0.03-0.16,0.07-0.25,0.09
				c0,0.01,0,0.01-0.01,0.01C31.57,21.23,31.57,21.23,31.58,21.23z M31.66,13.9c0.04,0,0.06,0,0.04-0.01c-0.03,0-0.06,0-0.07,0
				C31.6,13.9,31.61,13.9,31.66,13.9z M31.86,15.11c-0.02-0.03-0.03-0.03-0.06-0.01c-0.01,0.01-0.01,0.01,0.02,0.03
				C31.86,15.13,31.87,15.11,31.86,15.11z M31.9,13.87c0.04,0,0.06,0,0.04-0.01c-0.03-0.01-0.07-0.01-0.09,0
				C31.84,13.87,31.86,13.87,31.9,13.87z M31.98,15.79c0.04-0.04,0.07-0.09,0.06-0.09c-0.01-0.03-0.07,0.03-0.1,0.09
				C31.89,15.87,31.89,15.87,31.98,15.79z M32.09,15.91c0-0.04-0.13-0.01-0.14,0.01c-0.01,0.03,0.02,0.03,0.06,0.03
				C32.05,15.94,32.09,15.92,32.09,15.91z M32.05,15.07c0,0-0.01-0.02-0.03-0.03c-0.02,0-0.03,0-0.03,0.01
				c0,0.02,0.01,0.03,0.03,0.03C32.03,15.08,32.05,15.08,32.05,15.07z M33.12,15.53c-0.27,0.03-0.51,0.06-0.52,0.06
				c-0.01,0.01-0.12,0.03-0.23,0.04c-0.19,0.03-0.32,0.1-0.32,0.16s0.12,0.01,0.19-0.04c0.07-0.1,0.13-0.09,0.06,0
				c-0.04,0.04-0.03,0.04,0.04,0.03c0.06-0.01,0.12-0.03,0.16-0.03c0.03,0,0.25-0.01,0.46-0.03c0.51-0.04,1.97-0.04,2.27,0
				c0.12,0.03,0.26,0.04,0.33,0.06c0.12,0.02,0.12,0.02-0.04-0.04c-0.32-0.12-0.8-0.16-1.63-0.14c-0.49,0-0.67,0-0.49-0.02
				c0.13-0.01,0.49-0.03,0.77-0.04c0.29,0,0.51-0.02,0.49-0.03C34.59,15.47,33.62,15.49,33.12,15.53z M32.12,13.84
				c0.04,0,0.07-0.02,0.04-0.02c-0.03-0.01-0.07-0.01-0.1,0C32.03,13.83,32.05,13.84,32.12,13.84z M32.21,15.91
				c0.04,0,0.06-0.01,0.07-0.03c0.01-0.01,0-0.03-0.03-0.03c-0.01,0-0.06,0.01-0.06,0.03C32.18,15.9,32.19,15.91,32.21,15.91z
				 M32.38,15.01c-0.02-0.02-0.04-0.02-0.06,0c-0.03,0-0.02,0.01,0.01,0.01C32.38,15.03,32.39,15.03,32.38,15.01z M33.52,13.77
				c0.19-0.01,0.35-0.03,0.35-0.03c0.03-0.03-1.26,0.01-1.45,0.04C32.25,13.81,32.89,13.8,33.52,13.77z M33.05,15.79
				c0.27-0.03,0.45-0.06,0.38-0.06c-0.17,0-0.98,0.07-1,0.1C32.39,15.85,32.47,15.85,33.05,15.79z M32.63,14.49
				c-0.03,0-0.09,0-0.13,0c-0.03,0.02-0.01,0.02,0.06,0.02C32.61,14.51,32.65,14.51,32.63,14.49z M32.58,14.98
				c-0.03,0-0.02,0.01,0.03,0.01c0.04,0,0.07-0.01,0.06-0.01C32.64,14.97,32.61,14.97,32.58,14.98z M33.06,21.51
				c-0.06,0.03-0.1,0.06-0.1,0.06c0,0.01,0.04,0,0.1-0.03c0.04-0.01,0.09-0.04,0.09-0.06C33.15,21.48,33.1,21.49,33.06,21.51z
				 M33.23,21.41c-0.03,0.01-0.06,0.03-0.06,0.04c0,0,0.03,0,0.06-0.02c0.03-0.01,0.06-0.04,0.06-0.04
				C33.29,21.38,33.26,21.39,33.23,21.41z M33.42,21.28c-0.01,0-0.03,0.02-0.03,0.04c0,0.01,0,0.03,0,0.03
				c0.02,0,0.03-0.02,0.04-0.03C33.44,21.29,33.44,21.28,33.42,21.28z M33.64,20.91c0.09-0.04,0.16-0.09,0.25-0.13
				c0.19-0.1,0.35-0.23,0.52-0.35c0.33-0.25,0.64-0.52,0.93-0.81c0.16-0.14,0.32-0.29,0.45-0.45c0.13-0.14,0.25-0.29,0.35-0.45
				c-0.09,0.13-0.17,0.23-0.28,0.35c-0.09,0.1-0.29,0.29-0.42,0.4c-0.19,0.19-0.56,0.54-0.78,0.71c-0.13,0.1-0.27,0.2-0.41,0.3
				c-0.1,0.09-0.17,0.14-0.27,0.2c-0.1,0.07-0.22,0.14-0.32,0.2C33.64,20.91,33.59,20.94,33.64,20.91z M34.23,20.19
				c0.01,0,0.04-0.01,0.06-0.03c0-0.02,0-0.03-0.01-0.03c-0.02,0-0.04,0.01-0.06,0.03C34.2,20.18,34.22,20.19,34.23,20.19z
				 M34.56,13.87c0.04,0,0.06,0,0.04-0.01s-0.06-0.01-0.09,0C34.49,13.87,34.51,13.87,34.56,13.87z M35.74,18.73
				c-0.13,0.16-0.19,0.22-0.32,0.36c-0.04,0.04-0.09,0.09-0.13,0.13c-0.13,0.13-0.26,0.25-0.38,0.33c-0.1,0.09-0.22,0.17-0.32,0.26
				c-0.02,0-0.02,0-0.03,0.01c0.01,0,0.01-0.01,0.03-0.01c0.07-0.06,0.14-0.1,0.2-0.14c0.19-0.13,0.38-0.27,0.55-0.43
				c0.19-0.2,0.36-0.41,0.52-0.62c0.17-0.25,0.36-0.51,0.48-0.8c-0.09,0.16-0.17,0.3-0.28,0.45C35.94,18.45,35.87,18.56,35.74,18.73
				z M34.74,13.91c0.03,0,0.04-0.01,0.04-0.01c-0.01-0.01-0.04-0.01-0.06-0.01C34.69,13.9,34.71,13.9,34.74,13.91z M35.69,19.71
				c0.01,0.01,0.03,0.03,0.01,0.06c-0.03,0.03-0.03,0.03-0.03-0.03C35.68,19.73,35.69,19.71,35.69,19.71z"/>
			<path class="st0" d="M42.97,15.66c-0.45,0.64-2,3.12-2.66,4.28c-0.14,0.25-0.3,0.52-0.35,0.59c-0.04,0.07-0.07,0.14-0.07,0.16
				c0,0-0.1,0.17-0.22,0.38c-0.13,0.2-0.22,0.38-0.22,0.38c0,0.01-0.09,0.19-0.2,0.39c-0.27,0.49-0.71,1.39-0.71,1.43
				c0,0.03-0.14,0.39-0.2,0.55c-0.04,0.07-0.07,0.14-0.09,0.2c0,0.03-0.03,0.13-0.06,0.2c-0.02,0.07-0.04,0.16-0.04,0.19
				c0,0.1-0.19,0.16-0.23,0.07c-0.01-0.04-0.01-0.09-0.01-0.12c0-0.03-0.01-0.04-0.04-0.04c-0.03,0-0.04-0.03-0.04-0.06
				c0-0.02-0.03-0.04-0.04-0.04c-0.03-0.02-0.04-0.04-0.04-0.09c0-0.04-0.02-0.06-0.06-0.04c-0.09,0.01-0.19-0.09-0.23-0.25
				c-0.01-0.07-0.04-0.13-0.06-0.13s-0.03-0.03-0.03-0.07c0-0.04-0.01-0.06-0.07-0.06c-0.09,0-0.16-0.13-0.12-0.24
				c0.01-0.04,0-0.06-0.06-0.07c-0.06-0.01-0.09-0.04-0.1-0.09c-0.02-0.04-0.04-0.07-0.06-0.07c-0.07,0-0.1-0.17-0.09-0.39
				c0.03-0.36,0.3-1.07,1.06-2.6c0.14-0.32,0.26-0.54,0.29-0.54s0.03,0,0.01-0.01c-0.03-0.01,0.04-0.19,0.52-1.08
				c0.65-1.23,1.68-2.92,2.5-4.17c0.14-0.22,0.27-0.42,0.27-0.43c0-0.02,0.04-0.07,0.1-0.16c0.06-0.06,0.1-0.13,0.1-0.14
				c0-0.02,0.17-0.1,0.26-0.13c0.03-0.01,0.04,0,0.02,0.06c-0.02,0.04-0.02,0.09,0.03,0.14c0.06,0.06,0.07,0.1,0.06,0.17
				c-0.03,0.07-0.01,0.09,0.03,0.07c0.03,0,0.06,0.01,0.04,0.06c0,0.06-0.02,0.06,0.13,0c0.13-0.06,0.13-0.03,0.03,0.16
				c-0.04,0.07-0.07,0.16-0.07,0.19c0.02,0.04,0.04,0.01,0.17-0.1c0.16-0.14,0.17-0.14,0.14-0.07c0,0.04,0,0.09,0.01,0.09
				c0.01,0,0.01,0.03,0.01,0.06c-0.01,0.03-0.01,0.04,0.03,0.03c0.04-0.03,0.06-0.02,0.03,0.03c-0.01,0.06-0.01,0.07,0.02,0.06
				c0.06-0.04,0.04,0.03-0.03,0.14c-0.07,0.13-0.06,0.16,0.07,0.09l0.1-0.06l0.07,0.07c0.04,0.06,0.06,0.07,0.13,0.03
				c0.06-0.03,0.06-0.03,0.04,0.03c-0.01,0.03-0.03,0.12-0.03,0.2c-0.02,0.09-0.03,0.17-0.09,0.23c-0.03,0.04-0.06,0.1-0.06,0.13
				c0,0.02-0.04,0.1-0.12,0.17c-0.22,0.24-1.2,1.79-1.97,3.11c-0.29,0.51-0.35,0.61-0.33,0.67c0.01,0.04,0.01,0.04-0.01,0.03
				c-0.03-0.02-0.03-0.02-0.02,0.01c0.02,0.01,0,0.03-0.01,0.03s-0.03,0.02-0.01,0.03c0,0.01-0.02,0.07-0.06,0.13
				c-0.25,0.38-1.65,3.04-1.61,3.04c0.02,0,0.14-0.23,0.28-0.49c0.14-0.27,0.38-0.72,0.52-0.98c0.3-0.56,0.42-0.78,0.58-1.06
				c0.25-0.48,0.35-0.65,0.43-0.77c0.04-0.07,0.09-0.16,0.12-0.22c0.03-0.04,0.17-0.3,0.33-0.58c0.14-0.25,0.28-0.48,0.28-0.49
				c0,0,0.01-0.03,0.04-0.06c0.02-0.03,0.07-0.12,0.13-0.2c0.04-0.09,0.12-0.2,0.17-0.26c0.04-0.07,0.07-0.12,0.06-0.12
				c-0.01,0,0.17-0.33,0.35-0.59c0.07-0.09,0.12-0.17,0.12-0.17c-0.01,0,0.33-0.55,0.72-1.13c0.1-0.14,0.22-0.26,0.24-0.23
				c0,0.01,0,0.06-0.01,0.09c-0.03,0.04-0.03,0.04,0.07,0.04C43.28,15.24,43.29,15.21,42.97,15.66z M38.3,20.47
				c0.17-0.39,0.38-0.77,0.56-1.14c-0.16,0.28-0.32,0.56-0.48,0.85c-0.33,0.67-0.64,1.36-0.94,2.04c0,0.03-0.01,0.04-0.03,0.07
				c0.03-0.06,0.06-0.1,0.09-0.16c0.16-0.3,0.3-0.61,0.45-0.93C38.07,20.96,38.19,20.71,38.3,20.47z M40.33,19.02
				c0.32-0.56,0.77-1.23,1.14-1.85c0.23-0.39,0.48-0.78,0.68-1.19c-0.22,0.38-0.46,0.72-0.69,1.08c-0.36,0.55-0.72,1.09-1.07,1.65
				c-0.72,1.21-1.35,2.49-1.92,3.77c-0.07,0.14-0.14,0.3-0.22,0.46c0.01-0.01,0.03-0.03,0.03-0.04c0.09-0.16,0.17-0.32,0.26-0.48
				C39.14,21.29,39.69,20.13,40.33,19.02z M39.58,19.12c-0.35,0.67-0.64,1.36-0.94,2.04c-0.01,0.01-0.03,0.04-0.03,0.07
				c0.03-0.06,0.04-0.1,0.07-0.16c0.16-0.3,0.32-0.61,0.46-0.93c0.12-0.24,0.22-0.49,0.33-0.74c0.19-0.39,0.38-0.77,0.58-1.16
				C39.89,18.54,39.72,18.83,39.58,19.12z M40.66,18.08c0.03-0.06,0.06-0.1,0.09-0.16c0.22-0.39,0.41-0.72,0.65-1.1
				c0.32-0.52,0.65-1.03,0.93-1.58c-0.36,0.61-0.75,1.2-1.13,1.81c-0.19,0.32-0.35,0.64-0.51,0.97
				C40.68,18.04,40.66,18.05,40.66,18.08z M42.21,16.59c-0.02,0-0.03,0.03-0.04,0.06c-0.03,0.03-0.03,0.06-0.03,0.06
				c0.01,0,0.03-0.03,0.06-0.06C42.21,16.62,42.22,16.59,42.21,16.59z M42.87,15.58c-0.02,0-0.39,0.56-0.45,0.68
				c-0.07,0.1,0.04-0.04,0.22-0.3C42.89,15.59,42.9,15.58,42.87,15.58z"/>
			<path class="st0" d="M53.62,14.94c-0.42,0.58-1.06,1.65-2.01,3.44c-1.46,2.68-2.47,4.89-2.43,5.11c0.01,0.04,0,0.12,0,0.16
				c-0.01,0.06-0.03,0.07-0.07,0.04c-0.04-0.03-0.04-0.03-0.06,0.02c-0.01,0.03-0.06,0.2-0.12,0.36c-0.1,0.3-0.17,0.39-0.2,0.22
				c0-0.07-0.06-0.12-0.06-0.04c0,0.01-0.01,0.01-0.03,0.01c-0.02-0.01-0.03-0.04-0.02-0.07c0.02-0.03,0-0.04-0.03-0.04
				c-0.03,0-0.06-0.03-0.07-0.06c-0.03-0.04-0.04-0.06-0.1-0.01c-0.04,0.01-0.06,0.01-0.13-0.04c-0.04-0.04-0.07-0.09-0.07-0.12
				c0.02-0.03,0.02-0.04,0-0.04c-0.07,0-0.22-0.19-0.23-0.3c-0.03-0.1-0.03-0.1-0.07-0.07c-0.06,0.03-0.07,0.02-0.13-0.04
				c-0.03-0.04-0.04-0.09-0.04-0.1c0.03-0.04-0.01-0.09-0.06-0.04c-0.04,0.03-0.06,0.01-0.07-0.02c0-0.03-0.04-0.06-0.07-0.06
				c-0.04,0-0.06-0.01-0.06-0.07c0-0.06-0.01-0.07-0.04-0.07c-0.03,0.02-0.04,0-0.04-0.03c0-0.04,0.02-0.41-0.04-0.51
				c-0.06-0.1-0.14-0.33-0.17-0.49c-0.07-0.29-0.32-1.59-0.32-1.69c0-0.04-0.01-0.12-0.03-0.2c-0.09-0.38-0.13-0.68-0.12-0.72
				c0-0.03,0-0.06-0.01-0.07c-0.03,0-0.16-0.8-0.14-0.87c0.01-0.04,0-0.06-0.01-0.04c-0.02,0.02-0.02-0.04-0.02-0.14
				c0.02-0.12,0.02-0.14,0-0.1c-0.03,0.04-0.03,0.01-0.01-0.1c0-0.13,0-0.16-0.01-0.12c-0.03,0.06-0.03,0.03-0.01-0.1
				c0-0.12,0-0.14-0.02-0.09c-0.03,0.03-0.04,0.06-0.04,0.03c0-0.04-0.35,0.55-1.19,2.08c-0.91,1.62-1.3,2.36-1.97,3.7
				c-0.36,0.72-0.45,0.88-0.45,0.75c0-0.16,0.82-2,1.29-2.85c0.03-0.04,0.13-0.27,0.26-0.52c0.24-0.48,0.69-1.32,1.17-2.13
				c0.14-0.26,0.3-0.52,0.33-0.59c0.03-0.06,0.16-0.26,0.27-0.48c0.14-0.25,0.22-0.41,0.22-0.46c0-0.06-0.01-0.09-0.03-0.07
				c-0.07,0.07-1.26,2.21-1.72,3.1c-0.12,0.2-0.3,0.56-0.43,0.82c-0.35,0.64-0.85,1.66-0.85,1.72c0,0-0.01,0.07-0.04,0.13
				c-0.03,0.06-0.04,0.13-0.04,0.14c0,0.02-0.02,0.02-0.03,0.02c-0.03,0-0.03,0.01-0.03,0.03c0,0.02-0.09,0.26-0.22,0.54
				c-0.13,0.27-0.23,0.49-0.25,0.46c0-0.03-0.01-0.04-0.04-0.03c-0.03,0-0.04-0.01-0.04-0.06c0-0.09-0.07-0.13-0.12-0.07
				c-0.03,0.01-0.06,0.01-0.13-0.02c-0.09-0.04-0.09-0.04-0.07-0.16c0.01-0.1,0.01-0.12-0.03-0.1c-0.07,0.01-0.2-0.1-0.25-0.22
				c-0.01-0.04-0.01-0.04-0.06,0c-0.04,0.06-0.04,0.06-0.03-0.06c0.01-0.12,0.01-0.13-0.03-0.13c-0.04,0-0.06-0.03-0.04-0.14
				l0.01-0.14l-0.06,0.1c-0.06,0.1-0.12,0.13-0.1,0.06c0-0.03-0.03-0.04-0.06-0.03c-0.06,0-0.07-0.01-0.07-0.06
				c0-0.03-0.03-0.06-0.06-0.06c-0.07,0-0.03-0.39,0.07-0.68c0.06-0.14,0.1-0.28,0.09-0.3c-0.01-0.03-0.01-0.04,0.01-0.03
				c0.01,0,0.03,0,0.01-0.03c-0.04-0.12,1.59-3.34,2.66-5.27c0.27-0.49,0.78-1.37,0.82-1.4c0,0,0.03-0.06,0.04-0.1
				s0.14-0.25,0.27-0.45c0.13-0.2,0.23-0.38,0.23-0.39c-0.01-0.03,0-0.03,0.01-0.03s0.03-0.01,0.03-0.04c0-0.01,0.04-0.07,0.07-0.12
				c0.04-0.04,0.06-0.07,0.06-0.09c0-0.01,0-0.03,0.02-0.03c0.01,0,0.1-0.1,0.2-0.23c0.2-0.29,0.29-0.33,0.22-0.13
				c-0.03,0.12-0.03,0.12,0.03,0.09c0.1-0.03,0.17-0.25,0.17-0.17c0,0.03,0.01,0.06,0.03,0.06s0.01,0.04,0,0.07
				c-0.01,0.06-0.01,0.06,0.01,0.03c0.06-0.04,0.22-0.16,0.2-0.12c-0.03,0.07,0.03,0.06,0.09-0.01c0.04-0.06,0.06-0.06,0.04-0.02
				c-0.03,0.06-0.01,0.06,0.04,0c0.07-0.07,0.07-0.03-0.02,0.1c-0.09,0.12-0.12,0.22-0.06,0.17c0.02,0,0.03,0.01,0.02,0.06
				c-0.02,0.03,0,0.04,0.01,0.03c0.03,0,0.04-0.06,0.04-0.12c0-0.12,0.06-0.2,0.12-0.12c0.01,0.04,0.03,0.04,0.09-0.03
				c0.06-0.06,0.07-0.06,0.04-0.01c-0.02,0.04-0.02,0.06,0.01,0.04c0.03-0.01,0.04,0.01,0.06,0.07c0.01,0.09,0.01,0.09,0.07,0.03
				c0.07-0.04,0.07-0.04,0.03,0.09c-0.03,0.07-0.03,0.09,0.01,0.09c0.03,0,0.04-0.01,0.04-0.04c0-0.03,0.01-0.03,0.12,0.01
				c0.04,0.04,0.1,0.09,0.1,0.12c0,0.04-0.01,0.16-0.03,0.23c-0.02,0-0.02,0.03-0.03,0.07c0,0.04,0.01,0,0.03-0.07
				c0,0,0.03,0.04,0.07,0.13c0.04,0.1,0.1,0.27,0.14,0.39c0.04,0.17,0.07,0.22,0.1,0.2c0.04-0.02,0.06-0.06,0.04-0.17
				c-0.02-0.09-0.02-0.14,0-0.12c0,0.01,0.03,0.03,0.04,0.01c0.01,0,0.01,0.04,0,0.09c0,0.07,0,0.09,0.01,0.06
				c0.04-0.06,0.14,0.42,0.2,0.91c0.09,0.74,0.1,0.9,0.16,1.53c0.06,0.82,0.13,1.62,0.16,1.71c0.01,0.04,0.13-0.17,0.59-1.1
				c0.32-0.64,0.58-1.16,0.59-1.17c0.01-0.02,0.1-0.19,0.2-0.39c0.12-0.22,0.22-0.41,0.25-0.43c0.01-0.03,0.04-0.06,0.04-0.07
				c0-0.04,0.56-1.04,0.87-1.53c0.33-0.58,0.71-1.07,0.94-1.24c0.16-0.14,0.19-0.14,0.07,0c-0.04,0.06-0.09,0.13-0.1,0.14
				c-0.01,0.03,0.06,0.03,0.12,0c0.04-0.01,0.04-0.01,0.03,0.01c-0.03,0.03-0.01,0.03,0.03,0.02c0.03-0.02,0.09-0.03,0.13-0.04
				c0.04-0.02,0.04-0.02,0,0.07c-0.09,0.12-0.03,0.17,0.07,0.09c0.07-0.06,0.07-0.06,0.03,0s-0.04,0.06,0.03,0.03
				c0.07-0.01,0.07-0.01,0.03,0.03c-0.03,0.04-0.01,0.03,0.04-0.01c0.04-0.03,0.07-0.04,0.07-0.03s0.02,0.03,0.03,0.01
				c0.01,0,0.04,0.02,0.04,0.04c0,0.06-0.04,0.13-0.17,0.28c-0.12,0.12-0.27,0.32-0.38,0.46c-0.3,0.43-0.29,0.45,0.01,0.04
				c0.1-0.14,0.29-0.36,0.45-0.52c0.14-0.14,0.26-0.25,0.25-0.23c-0.03,0.04-0.03,0.07-0.01,0.14c0,0.01,0.03,0,0.06-0.03
				c0.04-0.04,0.07-0.04,0.07-0.01c0,0.01,0.01,0.01,0.03,0c0.01,0,0,0.04-0.03,0.1l-0.07,0.12l0.12-0.12
				c0.07-0.07,0.13-0.1,0.13-0.09s-0.02,0.04-0.03,0.06c-0.03,0.03-0.04,0.07-0.04,0.12c-0.01,0.04-0.03,0.1-0.06,0.13
				c-0.03,0.03-0.04,0.07-0.04,0.1c0,0.01-0.06,0.07-0.1,0.14c-0.46,0.56-1.66,2.63-2.46,4.24c-0.17,0.32-0.3,0.61-0.3,0.62
				s0.06-0.09,0.12-0.19c1.06-2.1,2.39-4.35,2.82-4.82c0.12-0.12,0.19-0.16,0.14-0.09c-0.01,0.03,0.02,0.02,0.04-0.03
				c0.1-0.09,0.13-0.09,0.12,0c-0.02,0.06,0.01,0.06,0.14,0.01c0.1-0.04,0.09,0-0.06,0.17l-0.14,0.19l0.13-0.12
				c0.07-0.07,0.12-0.1,0.1-0.07c0,0.03-0.01,0.07-0.03,0.09c-0.03,0.01-0.03,0.04-0.01,0.07c0,0.03,0.01,0.03,0.06-0.01
				c0.1-0.09,0.1-0.01-0.01,0.12c-0.38,0.48-1.08,1.61-1.69,2.72c-0.16,0.29-0.85,1.55-1.1,2.01c-0.51,0.94-1.37,2.79-1.43,3.01
				c0,0.04-0.03,0.13-0.06,0.19c-0.06,0.16-0.2,0.84-0.14,0.69c0.01-0.03,0.16-0.48,0.25-0.69c0.09-0.23,0.2-0.52,0.26-0.64
				c0.06-0.13,0.14-0.32,0.17-0.42c0.16-0.43,1.84-3.6,2.62-4.95c0.52-0.9,0.85-1.39,1.1-1.69c0.17-0.2,0.28-0.26,0.12-0.06
				c-0.54,0.67-1.09,1.61-2.23,3.72c-0.48,0.9-1.78,3.47-1.75,3.5c0,0.01,0.28-0.51,0.59-1.14c1.23-2.43,2.42-4.61,2.98-5.41
				c0.27-0.41,0.59-0.81,0.64-0.81C53.93,14.52,53.86,14.64,53.62,14.94z M44.63,19.08c-0.17,0.36-0.38,0.71-0.55,1.07
				c-0.16,0.29-0.29,0.59-0.43,0.88c-0.3,0.61-0.61,1.22-0.85,1.84c-0.04,0.09-0.07,0.16-0.1,0.25c0.04-0.1,0.09-0.19,0.14-0.27
				c0.33-0.65,0.64-1.32,0.97-1.98C44.08,20.26,44.4,19.68,44.63,19.08z M45.05,17.72c0.14-0.29,0.29-0.58,0.4-0.88
				c-0.17,0.35-0.36,0.68-0.55,1.01c-0.28,0.52-0.55,1.04-0.82,1.58c-0.29,0.56-0.61,1.14-0.82,1.74c-0.04,0.1-0.07,0.2-0.12,0.29
				c0.06-0.1,0.1-0.2,0.16-0.3c0.41-0.85,0.84-1.68,1.27-2.52C44.73,18.32,44.9,18.02,45.05,17.72z M44.06,21.83
				c0-0.01-0.03,0-0.03,0.03c-0.01,0.04-0.01,0.06,0.01,0.01C44.06,21.85,44.08,21.83,44.06,21.83z M44.12,21.71
				c-0.02-0.03-0.02-0.02-0.02,0.03c0,0.03,0,0.04,0.02,0.03C44.12,21.77,44.13,21.74,44.12,21.71z M44.21,21.54
				c0,0-0.03,0.03-0.04,0.06c-0.01,0.03-0.03,0.06-0.01,0.06s0.03-0.03,0.04-0.06C44.21,21.56,44.22,21.54,44.21,21.54z
				 M44.45,21.07c-0.01,0-0.04,0.06-0.07,0.13c-0.04,0.07-0.06,0.12-0.04,0.12c0,0,0.03-0.04,0.07-0.12
				C44.44,21.13,44.47,21.07,44.45,21.07z M46.41,17.56c0-0.06-0.03-0.01-0.64,1.1c-0.91,1.62-1.33,2.39-1.29,2.39
				c0.01,0,0.06-0.07,0.1-0.17c0.06-0.1,0.1-0.19,0.12-0.22c0.09-0.12,0.62-1.08,0.67-1.19c0.03-0.07,0.07-0.12,0.07-0.12
				c0.01,0,0.03-0.01,0.03-0.03c0-0.04,0.32-0.65,0.45-0.82C46.04,18.28,46.41,17.6,46.41,17.56z M44.93,18.61
				c-0.01-0.02-0.03,0.01-0.06,0.1l-0.01,0.07l0.04-0.07C44.93,18.67,44.95,18.63,44.93,18.61z M44.97,18.48
				c-0.03,0.06-0.04,0.1-0.03,0.1c0.01,0,0.04-0.04,0.06-0.09C45.05,18.37,45.03,18.35,44.97,18.48z M46.23,16.27
				c-0.03-0.03-0.59,0.94-1.06,1.82c-0.16,0.3-0.14,0.32,0.01,0.03c0.07-0.1,0.17-0.29,0.25-0.41c0.06-0.13,0.27-0.51,0.46-0.84
				C46.09,16.56,46.25,16.27,46.23,16.27z M46.29,17.21c-0.03,0-0.03,0.03-0.03,0.04c0,0.04,0.01,0.04,0.03-0.01
				C46.32,17.21,46.3,17.2,46.29,17.21z M47.97,19.48c-0.01-0.12-0.01-0.24-0.03-0.36c-0.04-0.82-0.2-1.65-0.38-2.44
				c-0.06-0.33-0.13-0.65-0.2-0.97c-0.07-0.33-0.19-0.67-0.29-0.98c0.16,0.87,0.36,1.76,0.55,2.65c0.1,0.58,0.19,1.17,0.29,1.75
				C47.92,19.25,47.95,19.37,47.97,19.48z M47.43,15.32c0.04,0.33,0.12,0.67,0.2,0.98c0.04,0.2,0.1,0.39,0.13,0.59
				c0,0.01,0,0.01,0.02,0.03c-0.02-0.03-0.02-0.06-0.02-0.09c-0.01-0.29-0.06-0.59-0.13-0.88C47.58,15.74,47.5,15.53,47.43,15.32z
				 M48.07,18.01c-0.01-0.25-0.04-0.49-0.13-0.72C47.97,17.51,48.01,17.8,48.07,18.01z M48.46,19.38c0.01,0.09,0.03,0.14,0.04,0.14
				c0.01,0,0.03,0,0.03-0.01S48.5,19.28,48.47,19c-0.04-0.27-0.1-0.88-0.16-1.37c-0.04-0.48-0.1-0.98-0.12-1.11
				c-0.04-0.26-0.04-0.3-0.09-0.81c-0.04-0.42-0.06-0.52-0.1-0.51c-0.01,0.03-0.01,0.09,0,0.16c0.01,0.09,0.03,0.2,0.03,0.28
				c0,0.07,0,0.12,0.01,0.12c0.01-0.01,0.03,0.03,0.03,0.07c0,0.07-0.02,0.09-0.03,0.09c-0.03-0.03-0.03,0.07,0.01,0.19
				c0.02,0.03,0.02,0.09,0.02,0.14c-0.02,0.07,0,0.09,0.03,0.04c0.01-0.04,0.03-0.03,0,0.03c-0.03,0.13-0.01,0.3,0.07,0.9
				c0.03,0.14,0.07,0.45,0.09,0.68c0.03,0.23,0.06,0.46,0.07,0.52C48.36,18.6,48.45,19.24,48.46,19.38z M49.2,21.42
				c0.25-0.55,0.54-1.08,0.74-1.65c-0.22,0.46-0.46,0.91-0.69,1.36c-0.29,0.61-0.56,1.24-0.75,1.88c0,0.04-0.01,0.07-0.01,0.1
				c0.01-0.04,0.03-0.07,0.04-0.12c0.16-0.36,0.3-0.72,0.46-1.08C49.05,21.74,49.13,21.58,49.2,21.42z M48.92,23.59
				c-0.01-0.03-0.04,0.02-0.06,0.09c-0.06,0.19-0.03,0.23,0.03,0.09C48.94,23.66,48.95,23.62,48.92,23.59z M49.53,19.29
				c0.01-0.03,0.04-0.06,0.06-0.1c0.25-0.48,0.49-0.94,0.74-1.42c0.22-0.43,0.43-0.88,0.64-1.33c-0.49,0.91-1,1.81-1.39,2.76
				C49.56,19.24,49.54,19.26,49.53,19.29z M49.98,20.02c-0.01,0.03-0.03,0.06-0.04,0.09c0.01-0.03,0.04-0.07,0.06-0.1
				c0.24-0.48,0.49-0.94,0.74-1.42c0.22-0.43,0.43-0.88,0.64-1.33C50.88,18.17,50.37,19.06,49.98,20.02z M50.98,18.69
				c0,0-0.03,0.03-0.04,0.06c-0.03,0.03-0.03,0.06-0.03,0.06c0.02,0,0.03-0.03,0.06-0.06C50.98,18.72,50.99,18.69,50.98,18.69z
				 M51.05,18.51c-0.01,0.01-0.03,0.03-0.03,0.04c0,0.04,0.03,0.04,0.04-0.01C51.08,18.51,51.06,18.51,51.05,18.51z M51.89,16.98
				c-0.72,1.33-0.81,1.49-0.8,1.49c0,0,0.13-0.2,0.26-0.46c0.88-1.62,1.46-2.6,1.98-3.31c0.19-0.26,0.19-0.29-0.02-0.04
				C53.02,15.03,52.44,15.97,51.89,16.98z M51.28,16.04c0.01,0,0.03-0.03,0.04-0.06c0.01-0.03,0.03-0.06,0.01-0.06
				c0,0-0.03,0.03-0.04,0.06C51.28,16.01,51.27,16.04,51.28,16.04z M51.38,15.88c0.01-0.01,0.07-0.12,0.13-0.22
				c0.04-0.1,0.09-0.17,0.06-0.16c-0.01,0.01-0.07,0.12-0.13,0.22C51.38,15.82,51.35,15.9,51.38,15.88z M51.41,17.34
				c0.02-0.03,0.04-0.07,0.07-0.12c0.19-0.32,0.38-0.65,0.55-1c0.19-0.36,0.39-0.72,0.59-1.06c-0.23,0.32-0.45,0.65-0.64,1
				c-0.19,0.38-0.36,0.75-0.55,1.13C51.43,17.31,51.41,17.33,51.41,17.34z M51.97,14.87c0.17-0.28,0.29-0.48,0.25-0.43
				c-0.06,0.09-0.59,0.94-0.61,1.01C51.58,15.5,51.66,15.39,51.97,14.87z"/>
			<path class="st0" d="M62.38,15.53c0.03,0.03,0.03,0.03-0.01,0.03c-0.04,0.01-0.07,0-0.09,0c-0.03,0-0.22-0.01-0.43-0.01
				c-0.42-0.01-0.56-0.04-0.19-0.04c0.27,0,0.41-0.03,0.23-0.06c-0.1-0.01-0.42,0.01-0.58,0.06l-0.1,0.01l0.12,0.02
				c0.09,0.03,0.09,0.03-0.04,0.03c-0.09-0.01-0.14,0-0.14,0.01c0,0.02-0.04,0.03-0.09,0.03c-0.19,0-1.53,0.71-1.49,0.75
				c0.01,0.01-0.01,0.03-0.03,0.01c-0.03-0.01-0.07,0.01-0.1,0.06c-0.04,0.03-0.07,0.04-0.07,0.04c0-0.01-0.01,0-0.04,0.01
				c-0.01,0.03-0.19,0.14-0.39,0.26c-0.38,0.22-1.06,0.71-1.48,1.07c-0.25,0.22-0.25,0.25-0.01,0.13c0.2-0.09,1.26-0.26,2.08-0.35
				c0.88-0.07,1.95-0.07,2.17,0c0.09,0.03,0.09,0.04,0.03,0.07c-0.04,0.03-0.16,0.02-0.39,0c-0.33-0.04-1.04-0.04-1.43,0
				c-0.13,0.02-0.06,0.02,0.23,0.02c0.71-0.02,1.48,0.04,1.43,0.1c-0.01,0.01,0.03,0.04,0.07,0.06c0.04,0.03,0.1,0.06,0.13,0.07
				c0.03,0.03,0.03,0.03-0.07,0.06l-0.09,0.01l0.1,0.04c0.09,0.04,0.09,0.04,0.04,0.06c-0.1,0-0.09,0.06,0.01,0.07
				c0.09,0.03,0.14,0.1,0.09,0.14c-0.03,0.01-0.02,0.03,0.03,0.03s0.1,0.01,0.12,0.01c0.07,0.04,0,0.06-0.24,0.07
				c-0.12,0-0.22,0.01-0.23,0.01c0,0.01,0.07,0.03,0.14,0.03c0.09,0.01,0.17,0.03,0.22,0.04l0.09,0.01l-0.09,0.01
				c-0.06,0-0.04,0.01,0.06,0.07c0.14,0.07,0.16,0.1,0.03,0.17C61.85,18.85,61.87,18.96,62,19c0.03,0.01,0.03,0.01,0,0.03
				c-0.04,0,0,0.06,0.12,0.12c0.03,0.01,0.06,0.04,0.06,0.06c0,0.04-0.16,0.1-0.25,0.09c-0.06,0-0.07,0-0.04,0
				c0.03,0.01,0.06,0.04,0.06,0.09c0,0.04,0.01,0.07,0.03,0.09s-0.07,0.01-0.22,0c-0.91-0.04-0.87-0.04-0.9,0
				c0,0.03,0,0.06,0.01,0.07c0.01,0,0.03,0.03,0.01,0.03c0,0.01,0.14,0.04,0.35,0.06c0.55,0.07,0.8,0.12,0.8,0.14
				c0,0.01-0.17,0.01-0.43,0.01h-0.43c0.02,0-0.01,0.04-0.07,0.07c-0.07,0.06-0.49,0.69-0.77,1.14c-0.56,0.94-1.43,2.5-1.69,3.04
				c-0.14,0.32-0.43,1.11-0.42,1.14c0.01,0.02,0,0.09-0.03,0.16c-0.07,0.17-0.14,0.2-0.19,0.06c-0.01-0.04-0.03-0.09-0.04-0.09
				c-0.04,0-0.17-0.14-0.17-0.2c0-0.03-0.02-0.04-0.06-0.03c-0.07,0.03-0.2-0.07-0.24-0.19c-0.03-0.04-0.03-0.09-0.03-0.1
				c0-0.02-0.01-0.03-0.04-0.06c-0.03-0.01-0.04-0.04-0.04-0.07c0-0.01-0.03-0.04-0.04-0.03c-0.07,0.03-0.2-0.12-0.19-0.2
				c0.01-0.03,0-0.06-0.01-0.06c-0.02,0-0.03-0.01-0.03-0.04c0-0.03-0.03-0.04-0.04-0.03c-0.03,0.01-0.06-0.01-0.07-0.06
				c0-0.04-0.01-0.09-0.03-0.07c-0.07,0.01-0.1-0.02-0.1-0.06c0-0.01-0.01-0.04-0.03-0.04c-0.02,0-0.03-0.07-0.03-0.14
				c0-0.09,0.17-0.55,0.17-0.59c-0.03-0.09-0.03-0.09-0.13-0.04c-0.35,0.14-1.58,0.75-1.79,0.74c-0.06,0-0.26-0.02-0.42-0.02
				c-0.19-0.01-0.32-0.01-0.33-0.03c-0.02-0.01-0.07-0.03-0.13-0.04c-0.14-0.03-0.39-0.14-0.67-0.33c-0.16-0.1-0.23-0.17-0.27-0.28
				c-0.06-0.07-0.09-0.14-0.1-0.14c-0.03,0-0.07-0.12-0.25-0.53c-0.06-0.17-0.16-0.39-0.2-0.48c-0.12-0.2-0.2-0.62-0.17-0.88
				c0-0.12,0.06-0.38,0.14-0.59c0.13-0.39,0.52-1.24,0.69-1.5c0.07-0.07,0.13-0.17,0.14-0.22c0.07-0.14,0.19-0.3,0.22-0.29
				c0.01,0,0.03,0,0.01-0.03c-0.03-0.06,0.48-0.72,0.97-1.29c0.01-0.01,0.14-0.14,0.29-0.3c0.14-0.14,0.36-0.38,0.48-0.49
				c0.33-0.38,0.98-0.91,1.55-1.29c0.12-0.07,0.2-0.16,0.2-0.17c-0.01-0.01-0.01-0.03,0.01-0.01c0.02,0.01,0.17-0.09,0.36-0.19
				c0.33-0.23,1.2-0.81,1.59-0.97c0.55-0.22,1.04-0.3,1.52-0.28c0.14,0.02,0.29,0.03,0.29,0.06c0.01,0.02,0.06,0.03,0.09,0.03
				c0.07,0,0.22,0.07,0.22,0.1c0,0.04,0.3,0.35,0.35,0.35c0.03,0,0.04,0.03,0.06,0.04c0.02,0.03,0.03,0.04,0.06,0.04
				c0.02,0,0.04,0.02,0.04,0.04c-0.03,0.09,0.03,0.2,0.1,0.23c0.04,0.01,0.07,0.04,0.07,0.07c0,0.03,0.04,0.06,0.09,0.09
				c0.06,0.01,0.1,0.06,0.1,0.09c0,0.01,0.03,0.04,0.07,0.06c0.04,0.01,0.09,0.04,0.1,0.07c0.03,0.04,0.03,0.06-0.02,0.07
				c-0.04,0.03-0.03,0.09,0.14,0.32l0.09,0.14l-0.09,0.02C62.37,15.5,62.35,15.52,62.38,15.53z M53.72,23.29
				c0.23,0.03,0.48,0.06,0.72,0.04c0.45-0.04,0.87-0.17,1.29-0.3c-0.36,0.07-0.72,0.16-1.08,0.2c-0.29,0.04-0.58,0.04-0.87,0.04
				c-0.06,0-0.1,0-0.16,0C53.64,23.29,53.67,23.29,53.72,23.29z M53.74,22.94c0.04,0,0.07-0.02,0.1-0.02
				c0.39-0.01,0.78-0.06,1.17-0.12c0.23-0.06,0.46-0.1,0.68-0.19c-0.22,0.07-0.46,0.1-0.68,0.13c-0.39,0.06-0.77,0.12-1.16,0.17
				C53.83,22.92,53.79,22.92,53.74,22.94z M53.82,21.09c0.01-0.04,0.03-0.1,0.06-0.14c0.09-0.17,0.22-0.35,0.33-0.52
				c0.13-0.19,0.25-0.36,0.38-0.54c0.09-0.1,0.23-0.3,0.35-0.45c0.12-0.14,0.2-0.26,0.33-0.39c-0.13,0.12-0.25,0.25-0.35,0.38
				c-0.16,0.19-0.32,0.39-0.46,0.59c-0.12,0.16-0.23,0.33-0.35,0.49c-0.1,0.16-0.19,0.3-0.26,0.48
				C53.83,21.01,53.82,21.04,53.82,21.09z M57.03,22.9c-0.01-0.02-1.07,0.53-1.53,0.71c-0.03,0.01-0.04,0-0.03,0.01
				c0,0.01-0.03,0.03-0.09,0.03c-0.19-0.01-0.96,0.07-0.87,0.09c0.06,0.03,0.51,0,0.87-0.04c0.13-0.01,0.13-0.01-0.06,0.04
				c-0.48,0.13-1.39,0.04-1.37,0.06c0.41,0.12,0.71,0.12,1.27,0.01c0.42-0.07,1.27-0.62,1.61-0.74C56.98,23,57.06,22.94,57.03,22.9z
				 M58.29,20.1c-0.01-0.01-1.04,0.22-1.4,0.32c-0.16,0.06-0.32,0.1-0.33,0.1c-0.09,0-0.04-0.09,0.07-0.14
				c0.1-0.04,0.1-0.04,0.01-0.03c-0.06,0.02-0.09,0-0.09-0.03c0-0.07,0.74-0.26,1.63-0.42c0.2-0.04,0.3-0.07,0.32-0.1
				c0-0.03,0-0.06,0-0.06c-0.06-0.06-1.72,0.33-1.84,0.42c-0.01,0.01-0.07,0.03-0.12,0.01h-0.09l0.09-0.06
				c0.09-0.04,0.09-0.09-0.04-0.09h-0.07l0.07-0.04c0.04-0.03,0.06-0.04,0.03-0.04c-0.03,0-0.07-0.04-0.13-0.09
				c-0.06-0.09-0.07-0.1-0.03-0.14c0.03-0.01,0.12-0.07,0.19-0.1l0.14-0.06h-0.17c-0.13,0-0.16-0.01-0.13-0.06
				c0.03-0.03,0.03-0.04-0.01-0.06c-0.06-0.02-0.07-0.02-0.02-0.07c0.04-0.06,0.04-0.06-0.07-0.06c-0.1,0-0.1-0.01-0.07-0.04
				c0.03-0.03,0.14-0.09,0.26-0.13c0.12-0.03,0.17-0.06,0.13-0.06c-0.09,0.01-0.12,0-0.14-0.06c-0.03-0.04-0.03-0.06,0-0.07
				c0.03-0.01,0-0.03-0.07-0.04c-0.09-0.01-0.12,0-0.32,0.2c-0.67,0.65-1.45,1.62-1.9,2.39c-0.13,0.23-0.14,0.24-0.09,0.29
				c0.06,0.04,0.2,0.04,0.56,0.01c0.51-0.06,1.29-0.3,1.98-0.64c0.48-0.2,1.24-0.65,1.43-0.8C58.23,20.23,58.32,20.13,58.29,20.1z
				 M54.94,21.87c0,0-0.14,0.01-0.3,0.03c-0.16,0.03-0.36,0.04-0.43,0.06c-0.12,0-0.1,0.02,0.06,0.02c0.1,0,0.3-0.02,0.45-0.04
				C54.84,21.9,54.96,21.87,54.94,21.87z M56.35,18.5c0.04-0.03,0.07-0.06,0.07-0.09c0-0.02,0.01-0.04,0.06-0.06
				c0.04-0.04,0.04-0.04-0.01-0.04c-0.12,0-1.19,1.16-1.33,1.43c-0.04,0.07-0.09,0.13-0.1,0.14c-0.01,0.02-0.01,0.03,0,0.03
				s0.01,0.01-0.01,0.03c-0.03,0.02-0.06,0.04-0.06,0.07c0,0.01-0.04,0.09-0.1,0.16c-0.1,0.13-0.65,0.94-0.65,0.97
				c0,0.03,0.03-0.02,0.32-0.42c0.49-0.69,0.59-0.82,0.78-1.08C55.57,19.31,56.26,18.53,56.35,18.5z M54.58,22.64
				c-0.12,0.01-0.22,0.03-0.23,0.03c-0.01,0.02,0.26,0,0.35-0.01C54.76,22.64,54.71,22.62,54.58,22.64z M54.41,19.83
				c0-0.01,0-0.01,0.01-0.03c0.09-0.16,0.17-0.3,0.3-0.43c0.32-0.39,0.71-0.75,1.11-1.14c0.82-0.77,1.9-1.58,2.91-2.26
				c-0.46,0.27-0.93,0.58-1.36,0.91c-0.33,0.25-0.65,0.51-0.97,0.77c-0.32,0.27-0.62,0.56-0.93,0.87c-0.29,0.29-0.59,0.58-0.84,0.9
				C54.55,19.54,54.47,19.68,54.41,19.83z M54.92,22.59c-0.03-0.01-0.07-0.01-0.09,0c-0.01,0,0,0.01,0.04,0.01
				S54.93,22.59,54.92,22.59z M55.1,23.91c-0.02-0.01-0.03-0.01-0.06-0.01c-0.03,0.01-0.01,0.01,0.02,0.03
				C55.1,23.92,55.12,23.91,55.1,23.91z M56.36,22.48c-0.38,0.13-0.74,0.24-1.1,0.38c-0.04,0.01-0.07,0.01-0.12,0.03
				c0.03,0,0.06-0.01,0.09-0.01c0.39-0.09,0.77-0.2,1.13-0.35c0.23-0.09,0.45-0.17,0.65-0.29C56.8,22.33,56.57,22.4,56.36,22.48z
				 M55.37,22.49c0.04,0,0.06,0,0.04-0.01c-0.02-0.02-0.03-0.02-0.06,0C55.32,22.48,55.34,22.49,55.37,22.49z M55.6,19.45
				c-0.01,0-0.04,0.03-0.07,0.07c-0.03,0.03-0.06,0.06-0.04,0.06s0.04-0.03,0.07-0.06C55.58,19.48,55.6,19.45,55.6,19.45z
				 M56.78,21.98c-0.01,0-0.14,0.04-0.29,0.1c-0.14,0.06-0.45,0.17-0.67,0.25c-0.22,0.07-0.35,0.12-0.29,0.1
				c0.06,0,0.22-0.04,0.38-0.09C56.2,22.24,56.8,22.01,56.78,21.98z M55.63,23.39c-0.02-0.01-0.04-0.01-0.06-0.01
				c-0.03,0.01-0.02,0.03,0.01,0.03C55.61,23.4,55.63,23.4,55.63,23.39z M56.32,18.67c-0.03,0-0.49,0.46-0.65,0.67
				c-0.12,0.14,0,0.04,0.23-0.2c0.1-0.1,0.23-0.25,0.3-0.32C56.28,18.73,56.33,18.67,56.32,18.67z M55.74,23.36
				c-0.01-0.01-0.03-0.01-0.06-0.01c-0.03,0.01-0.01,0.01,0.01,0.03C55.74,23.37,55.75,23.36,55.74,23.36z M55.87,23.33
				c-0.01-0.01-0.04-0.01-0.07-0.01c-0.01,0.01-0.01,0.01,0.01,0.03C55.86,23.34,55.87,23.33,55.87,23.33z M55.96,22.9
				c-0.01-0.02-0.04-0.02-0.06,0c-0.03,0-0.01,0.01,0.01,0.01C55.94,22.91,55.96,22.91,55.96,22.9z M56.02,17.86l0.26-0.25
				c0.14-0.13,0.41-0.35,0.56-0.48c0.16-0.14,0.38-0.32,0.49-0.41c0.1-0.09,0.22-0.19,0.26-0.22c0.16-0.2-0.94,0.71-1.27,1.04
				L56.02,17.86z M57.14,22.45c-0.01-0.01-0.13,0.04-0.27,0.1c-0.14,0.06-0.39,0.16-0.58,0.22c-0.17,0.07-0.26,0.12-0.2,0.1
				c0.04-0.01,0.23-0.06,0.39-0.13C56.84,22.61,57.16,22.46,57.14,22.45z M57.06,22.78c0,0-0.14,0.03-0.32,0.1
				c-0.43,0.14-0.43,0.14-0.39,0.14c0.03,0,0.19-0.04,0.38-0.1C56.91,22.85,57.06,22.79,57.06,22.78z M56.33,16.92
				c0,0.03,0.22-0.16,0.43-0.36l0.14-0.14l-0.17,0.14C56.51,16.73,56.33,16.91,56.33,16.92z M61.5,15.36c0.01,0-0.09,0-0.2,0
				c-0.59,0.06-1.65,0.64-2.46,1.11c-0.2,0.13-0.35,0.2-0.32,0.17c0.06-0.06,0.56-0.42,0.97-0.68c-0.28,0.16-0.56,0.35-0.72,0.45
				c-0.16,0.09-0.85,0.61-0.88,0.65c-0.02,0-0.26,0.2-0.54,0.42c-0.61,0.49-0.97,0.82-0.82,0.74c0.06-0.01,0.12-0.04,0.13-0.04
				c0.03,0,0.22-0.16,0.46-0.35c0.22-0.2,0.48-0.42,0.55-0.46c0.48-0.39,1.4-0.98,1.71-1.08c0.09-0.04,0.49-0.38,0.67-0.46
				c0.4-0.17,0.85-0.32,1.19-0.39C61.37,15.4,61.5,15.37,61.5,15.36z M56.51,16.62c0,0.03,0.03,0.01,0.06-0.03
				c0.04-0.06,0.04-0.06,0-0.03C56.54,16.59,56.51,16.62,56.51,16.62z M58.04,16.85c-0.07,0-1.22,0.93-1.4,1.14
				c-0.06,0.04,0.04-0.03,0.2-0.16c0.16-0.13,0.49-0.42,0.75-0.61C57.85,17.01,58.06,16.85,58.04,16.85z M56.77,16.44
				c0.09-0.06,0.39-0.27,0.68-0.46c0.67-0.43,0.69-0.46,0.51-0.36c-0.42,0.23-1.24,0.8-1.32,0.9C56.62,16.55,56.68,16.5,56.77,16.44
				z M57.92,20c-0.45,0.09-1.13,0.27-1.17,0.32c-0.03,0.03,0.06,0.01,0.42-0.09c0.16-0.04,0.49-0.12,0.75-0.17
				c0.25-0.04,0.46-0.1,0.48-0.12C58.45,19.9,58.45,19.9,57.92,20z M56.83,19.5c-0.16,0.09-0.03,0.06,0.29-0.06
				c0.33-0.1,0.8-0.2,1.43-0.32c0.2-0.03,0.38-0.09,0.4-0.1c0.02-0.01,0-0.01-0.06,0c-0.06,0-0.29,0.04-0.53,0.09
				C57.77,19.21,57.13,19.38,56.83,19.5z M59.24,16.4c0-0.03-0.39,0.2-0.75,0.43c-0.53,0.35-1.69,1.27-1.61,1.29
				c0.01,0,0.17-0.12,0.36-0.26c0.17-0.14,0.52-0.42,0.78-0.61c0.26-0.2,0.48-0.36,0.49-0.38c0.01-0.03,0.52-0.36,0.62-0.41
				C59.2,16.44,59.24,16.42,59.24,16.4z M56.98,18.38c-0.03,0-0.06,0.01-0.07,0.03c0.03-0.02,0.06-0.03,0.09-0.03
				c0.16-0.06,0.3-0.09,0.46-0.1c0.19-0.03,0.39-0.06,0.58-0.07c0.52-0.07,1.03-0.12,1.53-0.2c-0.56,0.01-1.13,0.03-1.68,0.13
				C57.58,18.19,57.27,18.25,56.98,18.38z M56.96,21.91c0.01,0,0.04-0.02,0.07-0.03c0.01-0.01,0.03-0.03,0.01-0.03
				c-0.03,0-0.06,0.01-0.07,0.03C56.94,21.9,56.93,21.91,56.96,21.91z M57.19,21.88c-0.01,0-0.06,0.03-0.1,0.04
				c-0.04,0.03-0.07,0.04-0.04,0.04c0.02,0,0.06-0.02,0.1-0.04C57.19,21.91,57.2,21.88,57.19,21.88z M57.3,15.2
				c0,0.01,0.04-0.01,0.1-0.04c0.04-0.04,0.17-0.1,0.26-0.16c0.22-0.1,0.85-0.43,1.01-0.51c0.06-0.01,0.3-0.29,0.29-0.3
				c-0.02-0.03-0.68,0.42-0.97,0.59C57.69,14.94,57.3,15.19,57.3,15.2z M58.59,19.61c-0.04,0-1.21,0.25-1.23,0.26
				c-0.03,0.01,0.02,0.01,0.61-0.1c0.32-0.06,0.59-0.12,0.61-0.13C58.61,19.63,58.61,19.61,58.59,19.61z M57.43,21.77
				c0-0.01-0.03,0-0.06,0.01c-0.03,0.03-0.03,0.04,0.03,0.03C57.43,21.8,57.45,21.78,57.43,21.77z M57.55,18.82
				c0.04,0,0.06,0,0.04-0.01s-0.03-0.01-0.06,0C57.51,18.8,57.52,18.82,57.55,18.82z M57.66,18.79c-0.03,0.01,0.1,0,0.48-0.09
				c0.23-0.04,0.39-0.07,0.38-0.09C58.49,18.6,57.69,18.76,57.66,18.79z M57.75,16.36c-0.04,0.04-0.09,0.07-0.09,0.09
				c0,0.02,0.04-0.01,0.09-0.06c0.04-0.03,0.09-0.07,0.09-0.07C57.84,16.3,57.79,16.33,57.75,16.36z M58.07,16.14
				c-0.12,0.07-0.19,0.14-0.19,0.14c0,0.02,0.38-0.25,0.43-0.29C58.37,15.94,58.26,16,58.07,16.14z M59.31,22.22
				c-0.1,0.1-0.46,0.77-0.46,0.85c0,0.03-0.03,0.1-0.06,0.16c-0.04,0.06-0.06,0.12-0.06,0.12c0.01,0-0.03,0.1-0.1,0.24
				c-0.12,0.22-0.39,0.88-0.39,0.93c0,0.06,0.07-0.1,0.32-0.62c0.14-0.33,0.39-0.85,0.55-1.16c0.16-0.32,0.3-0.58,0.3-0.59
				C59.43,22.13,59.37,22.16,59.31,22.22z M58.82,18.51c0.48-0.04,0.53-0.06,0.53-0.09c0-0.03-0.04-0.03-0.09-0.01
				c-0.06,0-0.23,0.03-0.39,0.04c-0.16,0.03-0.38,0.06-0.49,0.07C58.17,18.57,58.17,18.57,58.82,18.51z M59.53,21.13
				c-0.33,0.55-0.68,1.1-0.97,1.66c-0.03,0.04-0.04,0.07-0.06,0.1c0.03-0.04,0.06-0.09,0.09-0.14c0.13-0.23,0.29-0.48,0.43-0.72
				c0.2-0.32,0.39-0.64,0.59-0.96c0.22-0.36,0.46-0.72,0.68-1.08C60.05,20.36,59.78,20.74,59.53,21.13z M60.41,20.25
				c-0.16,0.25-0.62,1.03-0.87,1.48c-0.04,0.06-0.1,0.16-0.13,0.22c-0.06,0.09-0.06,0.1-0.01,0.07c0.04-0.04,0.06-0.04,0.06,0
				c0,0.04,0.09-0.1,0.1-0.14c0-0.01,0.03-0.07,0.04-0.1c0.03-0.04,0.13-0.22,0.23-0.41c0.22-0.39,0.59-1.01,0.81-1.3
				c0.16-0.22,0.17-0.25,0.1-0.25c-0.04,0-0.09,0.03-0.12,0.07C60.62,19.93,60.51,20.09,60.41,20.25z M59.47,22.23
				c0,0-0.03,0.01-0.03,0.04c-0.01,0.04-0.01,0.04,0.01,0.01C59.47,22.26,59.49,22.24,59.47,22.23z M59.49,17.73
				c0.04,0,0.06-0.01,0.04-0.01c-0.02-0.01-0.03-0.01-0.06-0.01C59.46,17.72,59.46,17.72,59.49,17.73z M59.5,14.06
				c0,0,0.12-0.01,0.25-0.06c0.14-0.03,0.25-0.06,0.25-0.07C59.98,13.91,59.5,14.03,59.5,14.06z M60.92,19.81
				c-0.02,0-0.23,0.32-0.39,0.58c-0.01,0.03-0.12,0.19-0.22,0.35c-0.17,0.27-0.35,0.59-0.68,1.19c-0.06,0.12-0.12,0.22-0.12,0.25
				c0,0.01,0.03-0.03,0.06-0.09c0.04-0.07,0.12-0.2,0.17-0.3c0.06-0.1,0.13-0.22,0.16-0.27c0.3-0.55,0.52-0.9,0.84-1.36
				C60.86,19.96,60.95,19.81,60.92,19.81z M59.83,15.75c0.01,0,0.04-0.01,0.06-0.03c0.2-0.09,0.36-0.17,0.35-0.17
				C60.22,15.53,60.05,15.62,59.83,15.75z M59.88,18.38c0,0.03,0.22,0.01,0.39,0c0.04,0-0.03-0.01-0.16-0.01
				C59.98,18.37,59.88,18.37,59.88,18.38z M60.11,18.9c-0.01-0.03-0.03-0.03-0.06-0.01c-0.01,0.01-0.01,0.01,0.01,0.03
				C60.11,18.92,60.12,18.9,60.11,18.9z M60.21,19.48c0,0-0.04,0.04-0.06,0.09c-0.04,0.09,0,0.07,0.06-0.01
				C60.22,19.51,60.22,19.48,60.21,19.48z M60.51,18.35c0.04,0,0.06,0,0.04-0.01c-0.03,0-0.06,0-0.09,0
				C60.46,18.35,60.47,18.35,60.51,18.35z M60.86,19.7c0.04,0,0.07-0.02,0.06-0.02c-0.03-0.01-0.06-0.01-0.09,0
				C60.79,19.68,60.82,19.7,60.86,19.7z M60.9,13.84c0.03,0,0.04-0.02,0.04-0.02c-0.01-0.01-0.04-0.01-0.06-0.01
				C60.86,13.83,60.88,13.83,60.9,13.84z M61.92,19.58c0.07,0.03,0.04,0.03-0.17,0c-0.09-0.01-0.3-0.03-0.49-0.03
				c-0.17,0-0.32-0.01-0.3-0.03c0.02-0.03,0.09-0.03,0.19-0.03c0.07,0.01,0.27,0.03,0.42,0.04C61.71,19.54,61.87,19.55,61.92,19.58z
				 M60.98,13.84c0,0.01,0.06,0.03,0.1,0.04c0.06,0,0.12,0.01,0.13,0.01c0,0,0.02-0.01,0.02-0.03c0-0.01-0.02-0.03-0.03-0.03
				c-0.03,0-0.09-0.02-0.13-0.02C61.02,13.81,60.98,13.83,60.98,13.84z M61.18,19.7c0.12,0,0.16-0.02,0.1-0.02
				c-0.06-0.01-0.14-0.01-0.2,0C61.03,19.68,61.06,19.7,61.18,19.7z"/>
		</g>
		<g>
			<path class="st0" d="M46.59,27.36c-0.46,0-0.89,0.24-1.13,0.63c-2.93,4.78-8.2,7.97-14.2,7.97c-6,0-11.27-3.19-14.2-7.97
				c-0.24-0.39-0.67-0.63-1.13-0.63h0c-1.04,0-1.68,1.14-1.14,2.02c3.4,5.54,9.51,9.25,16.48,9.25c6.96,0,13.08-3.7,16.47-9.25
				C48.28,28.5,47.63,27.36,46.59,27.36L46.59,27.36z M31.26,0C24.25,0,18.1,3.76,14.71,9.37c-0.53,0.88,0.11,2.01,1.15,2.01h0
				c0.46,0,0.9-0.24,1.14-0.64c2.92-4.84,8.22-8.08,14.27-8.08c6.05,0,11.35,3.24,14.27,8.07c0.24,0.4,0.67,0.64,1.14,0.64h0
				c1.03,0,1.68-1.13,1.15-2.01C44.43,3.76,38.28,0,31.26,0z"/>
		</g>
	</g>
	<path class="st0" d="M48.53,7.41v3.55c0,0.4-0.33,0.73-0.73,0.73h-3.55c-0.65,0-0.98-0.79-0.52-1.25l3.55-3.55
		C47.74,6.43,48.53,6.76,48.53,7.41z"/>
	<path class="st0" d="M14.17,31.56v-3.55c0-0.4,0.33-0.73,0.73-0.73h3.55c0.65,0,0.98,0.79,0.52,1.25l-3.55,3.55
		C14.95,32.54,14.17,32.21,14.17,31.56z"/>
</g>
</svg>
