<?xml version="1.0" encoding="utf-8"?>
<!-- Generator: Adobe Illustrator 26.0.1, SVG Export Plug-In . SVG Version: 6.00 Build 0)  -->
<svg version="1.1" id="Ebene_1" xmlns="http://www.w3.org/2000/svg" xmlns:xlink="http://www.w3.org/1999/xlink" x="0px" y="0px"
	 viewBox="0 0 43 50.3" style="enable-background:new 0 0 43 50.3;" xml:space="preserve">
<style type="text/css">
	.st0{fill:#FFA500;}
	.st1{fill:#FFFFFF;}
</style>
<g>
	<path class="st0" d="M43,3v37c0,1.7-1.4,3-3,3h-9.5l-7.9,6.7c-1,0.9-2.5,0.9-3.5,0L11.2,43H3c-1.7,0-3-1.4-3-3V3c0-1.7,1.3-3,3-3
		h37C41.7,0,43,1.3,43,3z"/>
</g>
<g>
	<path class="st1" d="M19.1,9.3c-0.2,0-0.2,0-0.1,0.1c0,0,0,0.1-0.1,0.1l-0.1,0h0.1c0.1,0,0.1,0,0.1,0.1c0,0-0.8,0-1.7,0
		c-3.4,0-3.9,0-3.9,0.1c0,0,0,0,0.1,0c0,0,0.1,0,0.1,0c0,0,0.9,0.1,2.3,0.1c1.5,0,2.4,0,2.4,0.1c0.1,0,0.1,0-0.2,0
		c-0.2,0-1.3,0-2.4,0c-1.6,0-2.2,0-2.2,0c0,0,0.4,0,1.9,0c1.9,0,3.2,0,3.5,0.1c0.1,0-0.9,0-2.5,0c-1.4,0-2.6,0-2.6,0c0,0,0,0,0,0
		c0,0,0,0.1,0,0.1c0,0,0.1,0,0.1-0.1c0-0.1,0.1,0,0.1,0c0,0,0,0.1,0,0.1c0,0,0,0,0,0.1c0,0.1-0.1,0.1,0,0.2c0.1,0.1,0,0.1-0.4,0.7
		c-0.8,1-1.5,2.2-2.9,4.6c-1.4,2.5-2.1,3.7-2,3.8c0,0,0,0,0,0c0,0-0.1,0,0,0c0,0,0,0,0,0c0,0,0,0.1-0.1,0.1c0,0.1-0.1,0.3-0.2,0.5
		c-0.1,0.2-0.2,0.5-0.3,0.7c-0.2,0.4-0.3,0.6-0.3,0.6c0,0,0,0,0-0.1c0-0.1,0-0.1,0-0.1c0,0-0.1,0-0.1-0.1c0-0.1-0.1-0.2-0.2-0.1
		c-0.1,0.1-0.4-0.1-0.3-0.2c0-0.1,0-0.2-0.1-0.2c0,0-0.1,0-0.1-0.1c0-0.1,0-0.1-0.1-0.1c0,0-0.1,0-0.1-0.2v-0.1l-0.1,0.1
		c-0.1,0.1-0.2,0.1-0.1-0.1c0-0.1,0-0.1,0-0.1c0,0,0-0.1,0-0.2c0-0.1-0.1-0.2-0.1-0.1c0,0-0.1,0-0.1,0c0,0-0.1,0-0.1,0
		c-0.1,0-0.1-0.1-0.1-0.2c0,0,0,0,0,0c-0.1,0,0-0.5,0.1-0.9c0.1-0.2,0.1-0.4,0.1-0.4c0,0,0-0.2,0.1-0.1c0,0,0,0,0,0
		c0-0.1,1-2.1,1.7-3.3c0.1-0.1,0.2-0.4,0.3-0.6c0.1-0.3,0.3-0.6,0.4-0.8c0,0,0,0.1,0.2-0.3c0.6-1,1.3-2.2,1.8-2.9
		c0.1-0.2,0.2-0.4,0.2-0.4c0-0.1-4,0.2-4.8,0.3c-0.4,0.1,0.1-0.1,0.6-0.2c0.3,0,2-0.2,3.2-0.2c1.1,0,1.2-0.1,1.1-0.1
		c0,0-2,0.1-3,0.1C7.1,10,6.2,10.1,6.5,10C7,9.9,9.7,9.8,10.8,9.8c0.5,0,0.5,0,0.6-0.1l0.1-0.1l-0.9,0c-1.1,0-2.3,0.1-3.4,0.2
		c-1,0.1-1.1,0-0.3-0.1c0.2,0,0.1,0-0.3,0c-0.4,0-0.6,0-0.6,0c0,0,0-0.1,0-0.1c0,0,0-0.1,0-0.1C6,9.5,6,9.4,6,9.4c0,0,0,0,0-0.1
		C5.8,9.1,7.2,8.9,9.7,8.8c0.7,0,1.5-0.1,1.8-0.1l0.6,0h-0.6c-1,0-3.7,0.1-4.7,0.2C6.6,9,6.4,9,6.3,9C6.1,9,6.1,8.9,6.2,8.9
		c0,0,0,0-0.1,0C6,8.9,6,8.8,6.1,8.7C6.1,8.7,6.1,8.7,6,8.7c-0.1,0-0.1,0-0.2,0c0,0,0.2-0.1,0.7-0.2c0.3-0.1,0.3-0.1,0.1-0.1
		c-0.1,0-0.2,0-0.2,0c-0.1,0-0.1,0-0.2,0c-0.1,0-0.1-0.1,0-0.1c0.1-0.1,0.1-0.1,0-0.1c-0.1,0-0.1,0,0-0.1C6.2,8,6.2,8,6.1,8
		C5.9,8,5.9,8,6,8c0,0,0.1-0.1,0.1-0.1c0,0,0,0,0.1-0.1c0.1,0,0.1-0.1-0.1-0.1c-0.2,0-0.2,0-0.1-0.1C6,7.6,6.1,7.6,6,7.6
		c0,0,0.1,0,0.1-0.1c0.1,0,0.2-0.1,0.1-0.1c0,0,0,0,0,0c0,0,0,0,0-0.1c-0.1-0.1,1-0.2,3.2-0.4c0.2,0,0.5,0,0.6,0
		c2-0.1,8-0.1,8.6,0.1c0.2,0.1,0,0.1-0.5,0c-0.3,0-1,0-1.6,0h-1.1l1.1,0c1,0,1.8,0.1,1.9,0.2c0,0-0.1,0-0.4,0c-0.5,0-0.5,0-0.1,0
		c0.6,0.1,0.7,0.1,0.7,0.1c0,0.1-0.1,0.1-0.2,0.1c-0.1,0-0.1,0,0.1,0.1c0.1,0,0.2,0,0.1,0.1c-0.1,0-0.1,0,0,0c0,0,0,0,0,0s0,0,0,0.1
		s0.1,0.1,0,0.1c0,0,0,0,0,0c0,0,0,0,0,0c0,0-0.1,0-0.1,0c0,0,0,0.1,0.1,0.1C18.9,8,19,8,19,8c0,0,0,0-0.1,0c0,0-0.1,0-0.1,0
		c-0.1,0-0.1,0,0,0c0,0,0,0,0,0c-0.1,0-0.1,0,0,0c0.1,0,0.3,0.1,0.2,0.1c0,0,0,0,0.1,0.1c0,0,0.1,0.1,0.1,0.1c0,0,0,0,0,0.1
		c0.1,0,0.1,0,0,0.1c0,0-0.1,0.1-0.2,0.1c-0.1,0.1-0.1,0.1-0.4,0c-0.2,0-0.4,0-0.5,0h-0.2l0.2,0c0.1,0,0.3,0,0.6,0.1
		c0.4,0,0.4,0,0.5,0.2C19,9,19,9,19.1,9.1C18.8,9,18.4,9,18.1,9c-0.6,0-1.2,0-1.7,0c-0.5,0-1,0.1-1.5,0.1c-0.1,0-0.3,0-0.4,0
		c0.1,0,0.3,0,0.4,0c0.3,0,0.7,0,1,0c0.4,0,0.7,0,1.1,0c0.5,0,1,0,1.6,0.1c0.2,0,0.4,0,0.6,0C19.3,9.2,19.2,9.2,19.1,9.3z M7.1,8.3
		c0,0-0.1,0-0.1,0C7,8.3,7,8.4,7.1,8.3C7.1,8.4,7.2,8.3,7.1,8.3z M7.7,9.6c0,0-0.1,0-0.2,0c-0.1,0,0,0,0.1,0
		C7.7,9.7,7.7,9.6,7.7,9.6z M7.9,9.6C7.9,9.6,7.9,9.6,7.9,9.6C7.8,9.7,7.8,9.7,7.9,9.6C7.9,9.7,7.9,9.7,7.9,9.6z M13.9,11.5
		C12.7,13.2,11,16,9.3,19c-0.4,0.8-1.2,2.4-1.3,2.7c0,0.1-0.1,0.1-0.1,0.1c0,0,0-0.1,0-0.1c0-0.3,0.7-1.8,1.6-3.6
		c0.8-1.4,1.3-2.3,2.4-4.2c1.1-1.8,2.1-3.2,2.2-3.2c0,0,0,0.1-0.1,0.1c-0.1,0.2-0.5,0.7-0.5,0.7c0,0-0.8,1.2-1.4,2.1
		c-0.9,1.4-2,3.3-2,3.4c0,0,0,0,0.1-0.1c0.2-0.3,1.8-3,2.1-3.5c0.1-0.2,0.3-0.5,0.5-0.8c0.4-0.7,1.1-1.5,1.3-1.7
		C14.5,10.6,14.4,10.8,13.9,11.5z M8.4,9.6c-0.1,0-0.2,0-0.3,0c-0.1,0,0,0,0.1,0C8.4,9.6,8.5,9.6,8.4,9.6z M10.7,14.1
		c-0.3,0.5-0.6,0.9-0.9,1.4c-0.2,0.3-0.4,0.7-0.5,1c-0.3,0.7-0.7,1.3-1,2c0,0.1-0.1,0.2-0.1,0.4c0.1-0.1,0.1-0.3,0.2-0.4
		C8.6,18,8.8,17.6,9,17.2c0.3-0.5,0.5-1,0.8-1.5C10.1,15.1,10.4,14.6,10.7,14.1z M13.1,8.4c0.1,0,0.2,0,0.4,0c0.1,0,0.1,0,0.2,0
		c0,0-0.1,0-0.1,0c-0.1,0-0.1,0-0.2,0c-0.1,0-0.2,0-0.4,0c-0.5,0-0.9,0-1.4,0c-0.9,0-1.7,0-2.6,0.1c-0.1,0-0.2,0-0.2,0
		c0,0,0.1,0,0.1,0c0.4,0,0.8,0.1,1.2,0.1c0.6,0,1.2,0,1.8,0C12.3,8.4,12.7,8.4,13.1,8.4z M10.9,12.5c0.2-0.3,0.3-0.5,0.5-0.8
		c0.2-0.4,0.5-0.7,0.7-1.1c-0.3,0.4-0.6,0.8-0.9,1.2c-0.4,0.6-0.8,1.1-1.1,1.7C10,14,9.7,14.4,9.5,14.9c-0.1,0.3-0.2,0.5-0.4,0.8
		C9.1,15.9,9,16,8.9,16.2C9,16,9.1,15.8,9.2,15.7c0.2-0.4,0.4-0.8,0.6-1.2c0.2-0.4,0.5-0.9,0.7-1.2C10.6,13,10.8,12.7,10.9,12.5z
		 M10.6,9.5c-0.5,0-1.2,0-1.4,0c-0.4,0-0.3,0,0.4,0c0.5,0,1.1,0,1.4-0.1C11.4,9.5,11.3,9.5,10.6,9.5z M10.7,14.7
		c-0.2,0.4-0.5,0.8-0.7,1.2c-0.2,0.5-0.5,0.9-0.6,1.4c0,0,0,0.1,0,0.1c0,0,0-0.1,0-0.1c0.2-0.4,0.4-0.8,0.6-1.2
		C10.2,15.7,10.5,15.2,10.7,14.7z M10.2,17.1C10.2,17.1,10.2,17.1,10.2,17.1c-0.1,0.1-0.1,0.2-0.1,0.2
		C10.1,17.3,10.2,17.2,10.2,17.1C10.2,17.1,10.2,17.1,10.2,17.1z M11.2,8.1c0.3,0,0.4,0,0.3,0c-0.2,0-0.4,0-0.6,0
		C10.8,8.1,10.9,8.1,11.2,8.1z M11,13.6C11,13.6,11,13.7,11,13.6C11,13.8,11,13.8,11,13.6C11.1,13.6,11.1,13.6,11,13.6z M11.4,13
		C11.4,13,11.4,13,11.4,13c0,0,0.1-0.1,0.2-0.3c0.1-0.2,0.2-0.3,0.2-0.3c0,0,0.1-0.1,0.1-0.1c0-0.1,0.6-0.9,1-1.6
		c0.3-0.5,0.4-0.5,0.5-0.6c0.1-0.1,0.1-0.1,0-0.1C13.3,10,12.1,11.7,11.4,13z M12.7,8c0.4,0,0.6,0,0.4,0c-0.2,0-0.5,0-0.8,0
		C12.1,8,12.2,8,12.7,8z M12.4,7.9l1,0c0.5,0,1.6,0,2.4,0h1.5l-1.3,0c-0.7,0-1.8,0-2.4,0H12.4z M16.1,8.7c0,0-3.6,0-3.7,0
		c0,0,0.4,0,1.6,0c0.9,0,1.7,0,1.9,0C16,8.7,16.1,8.7,16.1,8.7z M13,9.5c0,0-0.1,0-0.1,0.1c0,0,0,0.1,0,0.1
		C12.9,9.7,12.9,9.7,13,9.5C13,9.6,13,9.5,13,9.5z M13.1,9.5c0,0-0.1,0-0.1,0c-0.1,0-0.1,0-0.1,0c0,0,0.1,0,0.1,0
		C13,9.5,13.1,9.5,13.1,9.5z M15,9.4c0,0-0.4,0-0.8,0c-0.6,0-0.8,0-0.8,0c0,0,0.3,0,0.8,0C14.6,9.5,15,9.4,15,9.4z M13.4,11.2
		C13.4,11.2,13.4,11.2,13.4,11.2C13.4,11.3,13.4,11.3,13.4,11.2C13.5,11.2,13.5,11.2,13.4,11.2z M13.6,11c0.1-0.1,0.2-0.2,0.3-0.3
		c0.1-0.1,0.1-0.2,0.1-0.1c0,0-0.1,0.1-0.2,0.2C13.7,10.8,13.6,11,13.6,11C13.5,11.1,13.5,11.1,13.6,11z M15.1,9.2
		c-0.2,0-0.6,0-0.9,0c-0.2,0-0.1,0,0.4,0C15.2,9.2,15.4,9.2,15.1,9.2z M17.2,8.7c0,0-0.1,0-0.1,0C17,8.7,17.1,8.7,17.2,8.7
		C17.2,8.7,17.3,8.7,17.2,8.7z M17.2,8c0,0,0.2,0,0.5,0C18,8,18.1,8,18,8C17.7,8,17.2,8,17.2,8z M17.7,8.7c0,0-0.1,0-0.1,0
		C17.6,8.7,17.6,8.7,17.7,8.7C17.7,8.7,17.7,8.7,17.7,8.7z M18.3,7.5C18.3,7.5,18.4,7.4,18.3,7.5C18.3,7.4,18.3,7.4,18.3,7.5
		C18.2,7.4,18.2,7.5,18.3,7.5z"/>
	<path class="st1" d="M28.7,11.4c0,0.6-0.1,0.6-0.3,1c-0.4,0.7-0.8,1.2-1.5,1.7c-1.2,1-3.5,2.3-5.8,3.2c-0.9,0.4-2.8,1-2.9,0.9
		c-0.1,0,0.1-0.1,0.6-0.2c1.8-0.5,3.8-1.4,5.8-2.6c0.7-0.4,1.6-1,2-1.3c0.4-0.3,0.7-0.6,0.7-0.6c0,0-0.1,0.1-0.3,0.2
		c-1.4,1.2-4.6,2.9-7.1,3.8c-0.8,0.3-1.6,0.5-1.7,0.5c0,0,0.1-0.1,0.3-0.1c1.7-0.5,3.1-1.1,4.7-1.9c1.3-0.7,2.5-1.4,3.3-2
		c0.5-0.4,1.2-1.1,1.2-1.2c0-0.1-0.2,0.1-0.5,0.4c-0.2,0.3-0.6,0.5-0.7,0.6c-0.1,0.1-0.2,0.2-0.2,0.2c0,0,0,0,0,0.1c0,0,0,0,0,0
		c0-0.1,0,0-0.1,0c0,0.1,0,0.1,0,0.1c0,0,0,0,0,0c0,0-0.1,0-0.1,0s-0.1,0-0.1,0.1c0,0,0,0.1-0.1,0.1c0,0,0,0,0,0
		c0.1-0.1,0-0.1-0.1,0c0,0,0,0.1,0,0c0,0,0,0,0,0c0,0,0,0-0.1,0c0,0-0.2,0.1-0.3,0.2c-0.9,0.6-3.3,1.8-4.6,2.4c-0.1,0-0.1,0-0.2,0.1
		c0,0,0,0,0.1-0.1s0-0.1,0,0c0,0-0.1,0.1-0.1,0.1c-0.9,0.3-2.5,0.8-2.5,0.8c0,0,0.1,0,0.2-0.1s0.2-0.1,0.2-0.1s-0.1,0-0.1,0
		c-0.1,0-0.2,0-0.3,0.1c-0.1,0-0.2,0.1-0.4,0.6c-0.5,0.9-1.1,2.3-1.3,2.9c-0.2,0.6-0.3,0.8-0.4,0.8c0,0-0.1,0-0.1,0
		c0-0.1-0.1-0.3-0.2-0.3c0,0-0.1,0-0.1-0.1c0-0.1-0.1-0.2-0.2-0.1c0,0-0.1,0-0.2-0.1c-0.1-0.1-0.1-0.1-0.1-0.2c0-0.1,0-0.1,0-0.1
		c0,0-0.1-0.1-0.2-0.1c-0.1-0.1-0.1-0.1-0.2-0.1c-0.1,0-0.1,0-0.1-0.2c0-0.3-0.1-0.4-0.2-0.3c0,0.1-0.1,0-0.2-0.1
		c-0.2-0.1-0.2-0.1-0.2-0.5c0-0.3,0-0.4,0.1-0.6c0-0.2,0.1-0.3,0.1-0.2c0,0,0.1-0.1,0.2-0.4c0-0.1,0-0.1,0,0c-0.1,0.1-0.1,0.1,0-0.1
		c0-0.1,0.1-0.1,0.1-0.1c0,0,0.1-0.1,0.1-0.2c0-0.1,0.1-0.3,0.1-0.2c0,0,0,0,0,0c0-0.1,1.1-2.4,2-4c0.9-1.5,2.1-3.6,2.5-4.1
		c0-0.1,0-0.1,0,0c0,0,0,0,0-0.1l0.1-0.1l-0.1,0c-0.1,0.1-0.1,0.1-0.1,0c0,0,0-0.1,0-0.1c-0.1,0-0.1-0.1-0.1-0.1c0,0,0,0-0.1,0
		c-0.1,0-0.2-0.1-0.1-0.1c0,0,0,0,0-0.1c0,0,0-0.1,0.1-0.1c0.1,0,0.2-0.1,0.2-0.1c0.1-0.1,0.1-0.1,0,0c-0.2,0-0.3,0.1-0.2,0
		c0.1-0.1,0-0.1-0.2-0.1c-0.2,0-0.2,0-0.2-0.1c0,0,0-0.1,0-0.1c0,0,0,0,0-0.1c0,0,0-0.1-0.1-0.1c-0.1,0-0.1,0,0-0.1c0,0,0-0.1,0-0.1
		c0-0.1,0-0.1,0-0.1c0.1,0,0.1-0.1,0.1-0.1c0,0,0-0.1,0.1-0.1c0.1,0,0.1,0,0,0c-0.1,0-0.1,0,0,0c0-0.1,0.1-0.1,0-0.1
		c-0.1-0.1,0.3-0.3,1.7-0.6c1.3-0.3,2.5-0.5,3.8-0.5c0.9,0,1.1,0,1.7,0.2c0.7,0.2,1.5,0.9,1.8,1.5C27.9,8.6,28,8.8,28,8.9
		c0.1,0.1,0.1,0.2,0.1,0.2C28,9,28.1,9.2,28.2,9.3c0.2,0.2,0.3,0.5,0.4,0.7C28.7,10.5,28.7,10.9,28.7,11.4z M16.2,16.4
		c0.3-0.6,0.6-1.3,0.9-1.9c-0.3,0.4-0.5,0.9-0.7,1.4c-0.1,0.3-0.2,0.5-0.4,0.8c-0.3,0.6-0.6,1.3-0.8,2c0,0.1-0.1,0.1-0.1,0.2
		c0,0,0-0.1,0.1-0.1C15.5,17.9,15.8,17.2,16.2,16.4z M16.9,17.9c0.2-0.5,0.5-1,0.7-1.4c-0.4,0.6-0.8,1.2-1.1,1.8
		c-0.3,0.6-0.6,1.2-0.8,1.8c0,0-0.1,0.1-0.1,0.1c0-0.1,0.1-0.1,0.1-0.2C16.2,19.4,16.6,18.7,16.9,17.9z M16.4,18
		c-0.2,0.3-0.3,0.6-0.4,0.9c0,0,0,0,0,0.1c0,0,0,0,0-0.1C16.1,18.7,16.3,18.4,16.4,18c0.1-0.1,0.2-0.2,0.3-0.4
		C16.6,17.8,16.5,17.9,16.4,18z M17.8,17.5c0,0-0.1,0.1-0.4,0.7c-0.3,0.6-0.5,0.9-0.5,1.1c0,0-0.1,0.3-0.2,0.6
		c-0.1,0.3-0.2,0.6-0.3,0.7c-0.1,0.2,0.1,0,0.3-0.6c0.3-0.7,0.5-1.2,0.9-1.9C17.9,17.6,17.9,17.5,17.8,17.5z M19.3,16.3
		c0.5-0.2,1-0.4,1.4-0.6c0.7-0.3,1.4-0.6,2.1-0.9c-0.4,0.2-0.9,0.3-1.3,0.5c-0.5,0.2-1.2,0.5-1.6,0.6c-0.4,0.2-0.8,0.3-1.2,0.4
		c-0.3,0.1-0.6,0.2-0.8,0.4c-0.1,0-0.1,0.1-0.2,0.1c0,0,0.1-0.1,0.1-0.1c0.2-0.1,0.4-0.2,0.7-0.2C18.8,16.5,19,16.4,19.3,16.3z
		 M18,17.6C18,17.5,18,17.5,18,17.6c-0.1,0.2-0.1,0.2-0.1,0.1C18,17.6,18,17.6,18,17.6z M18.1,17c0,0-0.1,0.1-0.1,0.1
		c-0.1,0.1-0.1,0.1,0,0.1C18,17.1,18,17.1,18.1,17C18.1,17,18.1,17,18.1,17z M18,16.1C18,16,18,16,18,16c0.1-0.2,0.2-0.3,0.3-0.5
		c0.1-0.2,0.2-0.4,0.3-0.6c0.1-0.2,0.3-0.6,0.5-0.8c0.1-0.2,0.2-0.4,0.3-0.6c-0.1,0.2-0.2,0.3-0.3,0.5c-0.2,0.3-0.4,0.6-0.6,0.9
		c-0.1,0.2-0.3,0.5-0.4,0.7c-0.1,0.1-0.2,0.3-0.2,0.4C18,16,18,16.1,18,16.1z M18.2,14.2c0,0,0.1-0.1,0.1-0.1c0.3-0.6,0.7-1.1,1-1.7
		c0.2-0.3,0.4-0.6,0.6-0.9c-0.3,0.4-0.5,0.8-0.8,1.2c-0.3,0.5-0.6,0.9-0.8,1.4C18.2,14.1,18.2,14.1,18.2,14.2z M19.8,12.4
		c0.6-1,0.9-1.4,1.1-1.7c0.1-0.2,0.2-0.3,0.2-0.3c-0.1,0-1.5,2.2-2.2,3.4c-0.1,0.2-0.2,0.4-0.3,0.6c-0.1,0.2-0.2,0.3-0.2,0.3
		c0,0,0.1-0.1,0.1-0.2c0.1-0.1,0.2-0.4,0.3-0.6c0.1-0.2,0.2-0.4,0.2-0.4c0,0,0,0,0,0c0,0,0.1,0,0,0C19.2,13.4,19.2,13.3,19.8,12.4z
		 M18.7,16c0,0-0.1,0-0.1,0.1C18.5,16.2,18.5,16.2,18.7,16C18.7,16,18.7,16,18.7,16z M19.6,17c0.2-0.1,0.3-0.2,0.5-0.3
		c-0.2,0.1-0.4,0.2-0.6,0.3c-0.3,0.1-0.5,0.2-0.8,0.3c0,0-0.1,0-0.1,0c0,0,0,0,0.1,0C18.9,17.3,19.3,17.2,19.6,17z M18.9,17.3
		c0,0-0.1,0-0.2,0c0,0-0.1,0,0,0S18.8,17.4,18.9,17.3C18.9,17.3,18.9,17.3,18.9,17.3z M18.9,15.9C18.9,15.9,18.9,16,18.9,15.9
		C18.9,16,18.9,16,18.9,15.9C18.9,16,18.9,16,18.9,15.9C18.9,16,18.9,15.9,18.9,15.9z M26.2,13.2l0.2-0.2L26.2,13.2
		c-2,1.4-4.5,2.6-6.7,3.4c-0.3,0.1-0.5,0.2-0.5,0.2c0,0,0.3-0.1,0.7-0.2c1.6-0.5,4.1-1.8,5.6-2.7c0.3-0.2,0.5-0.4,0.6-0.4
		c0.1-0.1,0.1-0.1,0.1-0.1C26,13.3,26.1,13.2,26.2,13.2z M22.7,14.4c0,0-0.3,0.1-0.7,0.3c-0.8,0.4-1.8,0.8-2.3,1
		c-0.4,0.2-0.6,0.2-0.5,0.2c0,0,0.3-0.1,0.5-0.2c0.3-0.1,0.7-0.3,1-0.4C21.2,15.1,22.7,14.4,22.7,14.4z M24.6,12
		c0.3-0.1,1.1-0.8,1.4-1.2c0.5-0.5,0.8-0.8,0.7-0.8c0,0,0,0,0-0.1c0,0,0-0.1,0-0.1c0,0,0-0.1,0-0.1c0.1-0.1-0.1-0.1-1-0.1
		c-1,0-2.8,0.2-3,0.3c0,0-0.1,0-0.1,0c0,0-0.1,0-0.1,0c0,0-0.1,0-0.2,0.1c-0.1,0-0.2,0.1-0.4,0.3c-0.1,0.2-0.2,0.3-0.2,0.4
		c0,0-0.2,0.3-0.4,0.7c-0.2,0.3-0.4,0.6-0.4,0.6c0,0,0.2-0.2,0.4-0.5c0.2-0.3,0.4-0.6,0.5-0.7c0.1-0.1,0,0-0.1,0.2
		c-0.7,1-1.3,1.9-1.7,2.7c-0.3,0.4-0.5,0.8-0.5,0.8c0,0,0,0,0.1,0c0.1,0,0.2-0.3,0.4-0.6c0.7-1.2,2-3,2.4-3.4c0.1-0.1,0,0-0.1,0.2
		c-0.5,0.7-1.3,1.9-2,3c-0.2,0.2-0.3,0.5-0.3,0.6c0,0.1-0.1,0.1,0,0.1c0,0,0.1-0.1,0.2-0.2c0.5-0.8,1.7-2.7,1.9-2.9
		c0.1-0.1,0.1-0.1,0.1-0.1c0,0,0.2-0.2,0.4-0.4c0.3-0.3,0.3-0.4,0.2-0.1c-0.7,1-2.5,3.6-2.4,3.7c0.1,0,2.4-1.1,3.4-1.7
		c0.3-0.2,0.6-0.3,0.6-0.3c0,0,0.1-0.1,0.2-0.1C24.4,12.1,24.5,12.1,24.6,12z M19.4,8c0.1,0,0.3,0,0.4-0.1c0.7-0.1,1.4-0.3,2.1-0.4
		c0.3,0,0.6-0.1,1-0.1c0.5-0.1,1-0.1,1.4-0.2c-0.6,0-1.1,0-1.6,0c-0.4,0-0.9,0.1-1.3,0.2c-0.5,0.1-1.1,0.2-1.6,0.4
		c-0.1,0-0.2,0-0.2,0.1C19.5,8,19.5,8,19.4,8L19.4,8z M19.6,8.4c0.2,0,0.4-0.1,0.6-0.1c0.3-0.1,0.6-0.1,0.9-0.2
		C20.5,8.1,20,8.3,19.6,8.4c-0.1,0-0.1,0-0.1,0c0,0,0,0,0,0C19.5,8.5,19.6,8.5,19.6,8.4z M19.6,13.5c0-0.1,0.1-0.1,0.1-0.2
		c0.3-0.5,0.6-1,0.8-1.4c0.3-0.5,0.6-1,1-1.6c-0.4,0.6-0.8,1.1-1.2,1.8C20.1,12.5,19.9,13,19.6,13.5C19.7,13.5,19.7,13.5,19.6,13.5z
		 M25.8,14.4c0,0,0,0-0.1,0c-1.4,0.9-3.4,1.9-5,2.6c-0.3,0.1-0.7,0.2-0.7,0.3c-0.4,0.2,0.1,0,0.7-0.2c1.3-0.5,2.6-1.1,4-1.9
		C25,14.8,25.8,14.4,25.8,14.4z M20,11C20,11,20,11,20,11C19.9,11,19.9,11,20,11C19.9,11.1,19.9,11.1,20,11z M20.4,7.4
		c0.1,0,0.5-0.1,1-0.2c0.5-0.1,1.1-0.2,1.3-0.2C23.4,7,23.6,7,23.1,7C22.4,7,20.8,7.3,20.4,7.4C20.3,7.5,20.3,7.5,20.4,7.4z
		 M20.5,10.2c-0.1,0-0.1,0-0.1,0.1C20.4,10.2,20.4,10.2,20.5,10.2C20.5,10.2,20.6,10.2,20.5,10.2C20.6,10.1,20.5,10.2,20.5,10.2z
		 M20.6,12.5C20.5,12.5,20.5,12.6,20.6,12.5C20.5,12.6,20.6,12.5,20.6,12.5C20.6,12.4,20.6,12.4,20.6,12.5z M20.6,8.4
		c0.1,0,0.1-0.1,0.1-0.1C20.8,8.3,20.6,8.4,20.6,8.4C20.5,8.4,20.5,8.4,20.6,8.4z M21.4,16.3c0.6-0.3,1.1-0.5,1.7-0.8
		c0.6-0.3,1.1-0.6,1.7-1c0.2-0.2,0.5-0.3,0.7-0.5c-0.3,0.2-0.6,0.4-0.9,0.5c-0.5,0.3-0.9,0.5-1.4,0.8c-0.3,0.2-0.6,0.3-0.9,0.5
		C22,16,21.7,16.1,21.4,16.3c-0.1,0-0.2,0.1-0.3,0.1C21.2,16.4,21.3,16.4,21.4,16.3z M21.3,10.1C21.4,10.1,21.4,10.1,21.3,10.1
		C21.3,10.1,21.3,10.1,21.3,10.1C21.2,10.2,21.3,10.2,21.3,10.1z M21.5,9.9C21.5,9.9,21.4,9.9,21.5,9.9C21.3,10,21.5,10,21.5,9.9
		C21.6,9.9,21.6,9.8,21.5,9.9c0.1-0.1,0.1-0.1,0.1-0.1s0.1,0,0.1,0c0-0.1-0.1-0.1-0.2,0C21.5,9.8,21.5,9.8,21.5,9.9
		C21.6,9.9,21.6,9.9,21.5,9.9z M22.2,9.8C22.2,9.8,22.3,9.8,22.2,9.8C22.3,9.7,22.3,9.7,22.2,9.8C22.2,9.8,22.2,9.8,22.2,9.8z
		 M22.5,14.6c0,0-0.1,0-0.1,0c0,0-0.1,0,0,0C22.4,14.6,22.5,14.6,22.5,14.6C22.5,14.6,22.5,14.6,22.5,14.6z M23.6,8.9
		c0.5-0.1,1-0.2,1.5-0.3c-0.4,0-0.8,0-1.3,0.1c-0.3,0-0.5,0.1-0.8,0.1c-0.2,0.1-0.4,0.1-0.6,0.2C22.7,9,23.2,8.9,23.6,8.9z
		 M22.5,9.6C22.5,9.6,22.5,9.5,22.5,9.6C22.4,9.5,22.4,9.6,22.5,9.6C22.4,9.6,22.4,9.6,22.5,9.6C22.4,9.6,22.5,9.6,22.5,9.6z
		 M23,9.7c0.1,0,0.5,0,0.9-0.1c0.7-0.1,1.9-0.1,2.5,0c0.3,0,0.3,0,0.2,0c-0.3-0.1-1.1-0.2-1.7-0.1c-1.2,0.1-2.2,0.2-2.3,0.3
		c-0.1,0.1,0,0.1,0.1,0C22.7,9.8,22.9,9.7,23,9.7z M24.8,9.3c-0.2-0.1-2.1,0.1-2.2,0.2c0,0,0,0.1,0,0c0.1,0,0.2,0,0.4-0.1
		c0.5-0.1,1.4-0.2,1.7-0.2C24.8,9.4,24.9,9.4,24.8,9.3z M22.7,9.9C22.6,9.8,22.6,9.8,22.7,9.9C22.5,9.9,22.6,9.9,22.7,9.9
		C22.7,9.9,22.7,9.9,22.7,9.9z M23,14.2c0.1-0.1,0.2-0.1,0.2-0.1C23.2,14.1,23.1,14.1,23,14.2c-0.1,0-0.2,0.1-0.2,0.1
		C22.9,14.3,23,14.2,23,14.2z M22.9,14.4c0,0,0.1,0,0.3-0.1c0.1-0.1,0.2-0.1,0.2-0.1c0,0-0.1,0-0.2,0.1C23,14.3,22.9,14.4,22.9,14.4
		z M25.4,9c-0.2,0-0.5,0-0.7,0c-0.4,0-0.7,0-1.1,0.1c-0.2,0-0.5,0-0.7,0.1c0.2,0,0.3,0,0.5,0c0.3,0,0.6,0,0.9,0c0.7,0,1.5,0,2.2,0.1
		c0.1,0,0.3,0,0.4,0c-0.1,0-0.2,0-0.3-0.1C26.3,9,25.9,9,25.4,9z M23.4,7.1c0.2,0,0.3,0,0.5,0c0.2,0,0.4,0,0.6-0.1
		C24.1,7.1,23.8,7.1,23.4,7.1z M23.7,13.9c-0.1,0-0.2,0.1-0.2,0.1C23.6,14,23.6,14,23.7,13.9c0.1,0,0.2,0,0.2-0.1
		C23.9,13.9,23.8,13.9,23.7,13.9z M23.8,7C23.9,7,23.9,6.9,23.8,7C23.8,6.9,23.8,6.9,23.8,7C23.7,6.9,23.7,7,23.8,7z M24.1,13.7
		C24,13.7,24,13.8,24.1,13.7C24,13.8,24,13.8,24.1,13.7C24.1,13.7,24.2,13.7,24.1,13.7C24.2,13.7,24.1,13.7,24.1,13.7z M24.3,13.6
		C24.3,13.6,24.2,13.6,24.3,13.6C24.2,13.7,24.3,13.7,24.3,13.6c0.1,0,0.1,0,0.1,0C24.4,13.6,24.4,13.6,24.3,13.6z M24.6,7l0.2,0
		c0.1,0,0.3,0,0.4,0h0.2l-0.2,0c-0.1,0-0.3,0-0.4,0H24.6z M27.6,12.3c-0.1,0.2-0.3,0.3-0.4,0.5c0,0-0.1,0.1-0.1,0.1
		c-0.3,0.3-0.6,0.5-0.9,0.8c0,0-0.1,0.1-0.1,0.1c0,0,0.1-0.1,0.1-0.1c0.3-0.3,0.7-0.6,1-0.9C27.3,12.7,27.4,12.5,27.6,12.3z
		 M27.1,11.6C27,11.8,27,11.8,26.8,12c0,0-0.1,0.1-0.1,0.1c0,0-0.1,0.1-0.1,0.1c-0.1,0.1-0.3,0.3-0.4,0.4c0,0-0.1,0.1-0.1,0.1
		c0,0,0.1,0,0.1-0.1c0.3-0.2,0.5-0.4,0.7-0.6c0.1-0.2,0.3-0.3,0.4-0.5c0.1-0.1,0.2-0.3,0.3-0.4c0.1-0.1,0.2-0.3,0.2-0.4
		c-0.1,0.3-0.4,0.5-0.5,0.7C27.2,11.5,27.2,11.6,27.1,11.6z M26.8,12.6C26.8,12.6,26.7,12.7,26.8,12.6c-0.1,0.1-0.2,0.2-0.2,0.2
		C26.7,12.8,26.7,12.8,26.8,12.6C26.8,12.7,26.8,12.6,26.8,12.6z M27.8,11.5c0.1-0.1,0.1-0.2,0.2-0.3C27.9,11.4,27.8,11.5,27.8,11.5
		c-0.2,0.2-0.3,0.3-0.4,0.4c-0.2,0.2-0.3,0.3-0.5,0.5c0,0,0,0,0,0c0,0,0,0-0.1,0.1c0,0,0,0,0,0c0.2-0.2,0.4-0.4,0.6-0.6
		C27.6,11.8,27.7,11.7,27.8,11.5z M26.9,12.5L26.9,12.5L26.9,12.5z M27.5,13.4c0,0-0.1,0.1-0.1,0.1C27.4,13.6,27.4,13.6,27.5,13.4
		C27.6,13.4,27.6,13.4,27.5,13.4z M28.3,12.1c0,0-0.2,0.2-0.5,0.7c0,0,0,0,0.1-0.1c0.1-0.1,0.2-0.3,0.3-0.4
		C28.3,12.2,28.4,12.1,28.3,12.1z"/>
	<path class="st1" d="M39.8,9.7c-0.3,0.7-1,2.3-1.6,3.7c-0.3,0.7-0.7,1.5-0.8,1.7c-0.1,0.2-0.2,0.5-0.2,0.5c0,0-0.1,0.1-0.1,0.2
		c0,0.1-0.2,0.4-0.3,0.6c-0.6,1.5-1.4,3.7-1.5,4.5c-0.1,0.4-0.2,0.6-0.3,0.6c0,0,0,0,0-0.1c0-0.1-0.1-0.2-0.1-0.2
		c-0.1-0.1-0.1-0.2-0.1-0.2c0-0.1,0-0.1-0.1-0.1c-0.1,0-0.3-0.1-0.4-0.3c-0.1-0.3-0.1-0.4-0.2-0.4c-0.1,0-0.1,0-0.2-0.1
		c0-0.1,0-0.2,0-0.3c0-0.1,0-0.1-0.1-0.1c-0.1,0-0.1,0-0.1,0c0,0,0-0.1-0.1-0.1c-0.1,0-0.1,0-0.1-0.1c0,0,0-0.1-0.1-0.1
		c-0.1-0.1-0.1-0.6,0-1.1c0.1-0.2,0.1-0.4,0.1-0.4c0-0.1-0.1-0.1-0.2-0.1c0,0,0,0-0.1,0c0,0-0.4,0-0.9,0c-1,0-1.9,0-2,0.1
		c-0.1,0.1-0.2,0.1-0.1,0c0,0,0,0,0,0c0,0,0,0,0-0.1c0.1-0.1,0.6-0.2,2.1-0.2c0.9,0,1.4,0,1.4,0c0,0-0.1,0-0.1,0c-0.1,0-0.6,0-1.2,0
		c-0.6,0-1.3,0-1.6,0l-0.5,0l-0.5,0.6c-1,1.1-1.5,1.8-1.9,2.4c-0.3,0.5-0.4,0.6-0.5,0.8c0,0.1-0.1,0.2-0.1,0.2
		c-0.1,0.1-0.3,0.5-0.2,0.5c0,0,0,0.1-0.1,0.1c-0.1,0.1-0.3,0.1-0.2,0c0-0.1,0-0.3-0.1-0.3c0,0-0.1,0-0.1-0.1c0-0.1-0.1-0.2-0.2-0.2
		c0,0-0.1,0-0.1-0.1c0.2-0.3,0.4-0.5,0.6-0.8c0.5-0.7,1-1.4,1.5-2.1c-0.5,0.6-1,1.2-1.4,1.8c-0.2,0.3-0.5,0.6-0.7,1
		c0,0-0.1,0.1-0.1,0.1c-0.1-0.1-0.1-0.2-0.1-0.3c0,0,0,0,0,0c0,0,0,0,0,0c0-0.1,0.1-0.1,0.1-0.2c0.2-0.3,0.4-0.6,0.6-0.9
		c-0.2,0.3-0.5,0.6-0.7,0.9c0,0,0,0.1-0.1,0.1c0,0,0-0.1-0.1-0.1c0,0-0.1-0.1-0.1-0.2c0-0.1-0.1-0.2-0.1-0.3c0-0.1-0.1-0.2,0-0.2
		c0,0,0,0-0.1-0.1c0,0,0-0.1,0-0.1c0,0,0-0.1,0-0.1c-0.1-0.1,0-0.7,0.3-1.2c0.2-0.5,0.8-1.3,0.9-1.3c0,0,0,0,0-0.1
		c0-0.1,0.3-0.5,0.3-0.4c0,0,0,0,0,0c0-0.1,0.7-1.1,1.4-1.9c0.1-0.1,0.4-0.4,0.5-0.6c0.2-0.2,0.3-0.4,0.3-0.4c0,0,0.2-0.2,0.3-0.4
		c0.2-0.2,0.3-0.4,0.3-0.4c0,0,0.2-0.2,0.4-0.4c0.2-0.2,0.7-0.7,1.1-1.1c0.4-0.4,0.8-0.9,0.9-1c0.8-0.9,3.9-3.6,4.4-3.8
		c0.1,0,0.1,0-0.1,0.1c-0.1,0.1-0.2,0.2-0.1,0.2c0,0,0.1,0,0.1,0c0,0,0,0,0,0.1c0,0.1,0,0.1,0.1,0c0.1-0.1,0.2,0,0.1,0.1
		c-0.1,0.1-0.1,0.1,0,0.1c0,0,0.1,0,0.2,0c0.1,0,0,0,0,0.1L37,7.8l0.1-0.1l0.1-0.1l-0.1,0.1l-0.1,0.1l0.1,0c0.1-0.1,0.2-0.1,0.2-0.4
		c0.1-0.4,0.2-0.5,0.3-0.5c0,0,0.1-0.1,0.1-0.1c0-0.1,0-0.1,0.1-0.1c0,0,0.1,0,0.1,0c0.1,0,0.1,0.1,0.1,0.2c0,0.2,0.1,0.3,0.2,0.3
		c0,0,0.1,0,0.1,0c0,0,0.1,0,0.1,0c0.1,0.1,0.1,0.1,0,0.3c0,0.1,0,0.2,0,0.1c0.1-0.1,0.2-0.2,0.2-0.1c0,0,0,0.1,0,0.1
		c0,0.1,0.1,0.2,0.1,0.1c0-0.1,0.1,0,0.1,0.2c0,0.2,0,0.2,0.1,0.1c0,0,0.1,0,0.1,0c0,0,0,0.1,0.1,0.1c0,0,0.1,0,0.1,0.1
		c0,0.1,0,0.1,0.1,0.1c0.1,0,0.1,0,0.1,0.4c0,0.2-0.1,0.7-0.1,0.5c0-0.1-0.4,0.7-0.4,0.9c0,0,0,0.1,0,0.1c0,0-0.1,0.3-0.3,0.6
		c-0.2,0.4-0.4,0.8-0.5,1.1c-0.2,0.5-0.4,1-0.4,1c0,0,0,0.1,0,0.1c0,0.1,0,0.1-0.1,0.1c0,0-0.1,0.3-0.3,0.7
		c-0.4,0.9-0.6,1.5-0.9,2.1c-0.1,0.3-0.3,0.8-0.4,1c-0.1,0.2-0.1,0.4-0.1,0.4c0,0,0,0,0.1-0.1c0.1-0.3,1.3-3.1,1.3-3.2
		c0-0.1,0.1-0.3,0.2-0.5c0.1-0.2,0.2-0.5,0.3-0.7c0.1-0.2,0.1-0.3,0.1-0.3c0,0,0-0.1,0.1-0.3c0.1-0.1,0.2-0.4,0.3-0.6
		s0.2-0.5,0.3-0.6c0-0.1,0.1-0.3,0.1-0.3c0-0.1,0.1-0.2,0.1-0.3c0-0.1,0.1-0.2,0.1-0.2c0,0,0-0.1,0.1-0.2c0-0.1,0.1-0.2,0.1-0.2
		c0-0.1,0-0.1,0.1-0.3c0-0.1,0.1-0.2,0.1-0.3c0,0,0,0,0,0c0,0,0.1,0,0.1-0.1c0-0.1,0.1-0.2,0.1-0.3c0-0.1,0.1-0.2,0.1-0.2
		c0,0,0,0.1,0,0.3C39.9,9.2,39.9,9.4,39.8,9.7z M28.7,17.3c0.3-0.4,0.6-0.8,1-1.2c-0.4,0.4-0.8,0.9-1.2,1.4c-0.5,0.6-1,1.3-1.4,1.9
		c0,0-0.1,0.1-0.1,0.1c0-0.1,0.1-0.1,0.1-0.2C27.7,18.7,28.2,18.1,28.7,17.3z M29.9,17.6c-0.1,0-0.1,0.1-0.3,0.2
		c-0.1,0.1-0.2,0.2-0.2,0.2c0,0-0.1,0.1-0.2,0.2c0,0.1-0.1,0.2-0.1,0.2s0,0,0,0.1c0,0-0.1,0.2-0.3,0.4c-0.2,0.2-0.4,0.4-0.5,0.6
		c-0.1,0.1-0.3,0.4-0.5,0.7c-0.2,0.2-0.3,0.4-0.3,0.5c0,0,0,0,0.1,0c0,0,0.4-0.5,0.8-1c0.4-0.5,0.8-1,0.9-1.2
		c0.1-0.1,0.3-0.4,0.4-0.5C30,17.6,30,17.6,29.9,17.6z M31,15.7c0.4-0.4,0.7-0.9,1.1-1.3c0.1-0.1,0.2-0.2,0.3-0.3c0,0,0,0,0,0
		c-0.3,0.3-0.7,0.6-1,1c-0.4,0.4-0.7,0.8-1,1.1c-0.2,0.3-0.5,0.5-0.7,0.8c-0.1,0.1-0.2,0.2-0.2,0.2c0.1-0.1,0.2-0.2,0.2-0.2
		C30.2,16.5,30.6,16.1,31,15.7z M30.5,17.6C30.5,17.5,30.4,17.6,30.5,17.6C30.4,17.6,30.4,17.6,30.5,17.6
		C30.5,17.6,30.5,17.6,30.5,17.6z M32.7,16.2c-0.6-0.1-1.2-0.1-1.7,0c0,0,0,0-0.1,0c0,0,0,0,0.1,0c0.3,0,0.5,0,0.8,0
		C32.1,16.2,32.4,16.2,32.7,16.2z M31.5,14C31.5,14,31.5,14,31.5,14c0.2-0.1,0.3-0.3,0.4-0.4c0.6-0.6,1.3-1.2,2-1.9
		c0.6-0.5,1.2-1.1,1.8-1.6c0.3-0.3,0.6-0.5,0.8-0.8c-0.1,0.1-0.3,0.3-0.5,0.4c-0.2,0.2-0.4,0.3-0.5,0.5c-0.5,0.5-1,0.9-1.5,1.4
		c-0.5,0.4-0.9,0.8-1.4,1.3c-0.3,0.3-0.6,0.6-0.9,0.9C31.6,13.8,31.6,13.9,31.5,14z M31.9,14.2c-0.1,0.1-0.1,0.1-0.1,0.1
		C31.8,14.3,31.8,14.3,31.9,14.2l0.1-0.1L31.9,14.2z M32,15.4C32,15.3,32,15.3,32,15.4C31.9,15.4,31.9,15.4,32,15.4
		C32,15.4,32,15.4,32,15.4z M34.8,15.9c-0.3-0.1-0.6-0.1-0.9-0.1c-0.6-0.1-1.2,0-1.9,0c0,0-0.1,0-0.1,0c0,0,0.1,0,0.1,0
		c0.6,0,1.2,0,1.7,0C34.2,15.8,34.5,15.8,34.8,15.9z M32.2,15C32.3,15,32.3,15,32.2,15c0.1,0,0.5-0.4,1.1-0.9
		c0.5-0.5,1.3-1.2,1.7-1.6c0.6-0.6,0.9-0.8,0.8-0.9c0,0-0.2,0.1-0.3,0.2c-0.1,0.2-0.4,0.4-0.5,0.5C34.3,12.9,32.2,15,32.2,15z
		 M32.6,15c0,0,0.3-0.3,0.6-0.6c0.3-0.3,1-1,1.5-1.5c0.5-0.5,0.9-0.9,0.9-0.9c0,0-0.2,0.1-0.4,0.3C34,13.6,32.5,15,32.6,15z
		 M36.5,9.7c0,0-1.6,1.4-2.7,2.4c-0.6,0.6-1.4,1.4-1.2,1.3c0.1-0.1,0.2-0.2,0.3-0.3c0.2-0.3,2-2,2.9-2.7C36.2,10,36.6,9.7,36.5,9.7z
		 M35.2,13.4c0,0,0-0.1,0-0.1c0-0.1,0.1-0.3,0.1-0.5c0.1-0.3,0.1-0.3,0-0.3c-0.1,0-0.6,0.6-1.3,1.3L32.8,15h1.7l0.2-0.6
		C35.1,13.4,35.1,13.4,35.2,13.4z M33.5,15.4c0.5,0,0.8,0,0.5,0c-0.3,0-0.7,0-1,0C32.7,15.4,32.9,15.4,33.5,15.4z M33.3,16.1
		c0,0-0.1,0.1-0.1,0.1C33.2,16.1,33.3,16.1,33.3,16.1C33.3,16.1,33.3,16,33.3,16.1z M33.6,13.4c0,0-0.1,0-0.1,0.1
		c0,0.1-0.1,0.1-0.1,0.1C33.5,13.6,33.5,13.6,33.6,13.4C33.6,13.5,33.6,13.4,33.6,13.4z M33.8,11.3c0.1-0.1,0.4-0.4,0.7-0.6
		c0.3-0.3,0.5-0.5,0.5-0.5c0,0-0.3,0.3-0.7,0.6C33.9,11.2,33.7,11.4,33.8,11.3z M34.9,12.1c-0.8,0.8-1.2,1.2-1,1
		C34,13.1,34.5,12.6,34.9,12.1c0.6-0.5,1-0.9,1-0.9C35.9,11.2,35.8,11.3,34.9,12.1z M34.2,10.7l0.3-0.2c0.1-0.1,0.5-0.5,0.8-0.7
		c0.5-0.5,0.9-0.8,1.5-1.2c0.2-0.1,0.3-0.3,0.3-0.3c0,0,0,0-0.1,0c-0.2,0.1-1.9,1.6-2.6,2.2L34.2,10.7z M35.5,17.4
		C35.5,17.4,35.5,17.4,35.5,17.4C35.5,17.4,35.5,17.4,35.5,17.4c-0.1,0.2-0.2,0.5-0.3,0.7c-0.1,0.3-0.2,0.6-0.3,0.9
		C35.2,18.5,35.3,18,35.5,17.4z M36,17c0.2-0.4,0.3-0.8,0.5-1.2c0.3-0.7,0.7-1.5,0.9-2.2c-0.4,0.7-0.8,1.4-1.1,2.2
		c-0.2,0.5-0.5,1.1-0.7,1.6c-0.1,0.4-0.2,0.7-0.4,1.1c0,0,0,0.1-0.1,0.1c0,0,0-0.1,0.1-0.2C35.6,18,35.8,17.5,36,17z M37.2,12.8
		c-0.3,0.7-0.6,1.5-0.9,2.3c-0.2,0.5-0.4,1.1-0.7,1.6c-0.1,0.2-0.1,0.3-0.2,0.5c0.1-0.2,0.1-0.3,0.2-0.5c0.4-0.9,0.8-1.7,1.2-2.7
		c0.3-0.8,0.7-1.7,1-2.5c0.1-0.2,0.2-0.3,0.3-0.6c0,0,0-0.1,0-0.1C37.8,11.5,37.5,12.2,37.2,12.8z M35.9,18.4
		C35.9,18.4,35.9,18.4,35.9,18.4c0,0.1-0.1,0.1-0.1,0.1C35.8,18.6,35.9,18.5,35.9,18.4z M38.2,11.4c-0.2,0.4-0.3,0.9-0.4,1.3
		c0,0,0,0.1,0,0.1c0-0.1,0-0.1,0.1-0.2c0.4-1.1,0.8-2.2,1.3-3.4C38.8,9.9,38.5,10.7,38.2,11.4z M38.4,7.4
		C38.4,7.4,38.4,7.4,38.4,7.4C38.4,7.3,38.4,7.4,38.4,7.4C38.3,7.4,38.3,7.5,38.4,7.4z"/>
	<path class="st1" d="M19.9,26c-0.2,0.2-1.1,1.3-1.4,1.7c-0.8,0.9-1.6,2.2-2.1,3C16.2,31,16,31.2,16,31.2c-0.1,0-0.1-0.2-0.1-0.2
		c0,0,0-0.1-0.1,0c-0.1,0-0.2-0.2-0.2-0.3c0,0-0.1,0-0.1,0c-0.1,0-0.2,0-0.2-0.1c-0.1-0.1-0.1-0.1-0.1-0.2c0-0.1,0-0.1,0-0.1
		c0,0-0.1,0-0.1-0.1C15,30,15,30,14.9,30c-0.1,0-0.1,0-0.1-0.2c0-0.1,0-0.2,0-0.2c0,0,0-0.1,0-0.1c0-0.1,0-0.1,0,0
		c-0.1,0.1-0.1,0.1-0.2,0c-0.1-0.1-0.1-0.1-0.1-0.2c0,0,0-0.1-0.1-0.1c-0.1,0-0.1,0,0-0.2c0-0.1,0-0.3,0-0.3c0-0.1,0-0.1,0-0.1
		c-0.1,0,0.2-0.4,0.6-1.1l0.4-0.6l-0.4,0.2c-1.2,0.6-2.8,1.9-3.9,3.1c-0.7,0.8-1.6,1.9-1.6,2c0,0,0,0-0.1,0.1c0,0-0.5,0.8-0.8,1.3
		C8.3,34,7.9,34.8,8,34.9C8,35,8.4,35,8.7,35c0.6,0,1.4-0.3,3-0.9c0.2-0.1,1.1-0.5,1.6-0.8c0.2-0.1,0.4-0.2,0.4-0.2c0,0,0,0,0,0
		c0,0,0.1,0,0-0.1c0,0,0,0,0,0c0,0,0.2,0,0.3-0.1c0.4-0.3,0.5-0.3,0.5-0.2c0,0.1,0,0.1,0.1,0.1c0.1-0.1,0,0.1-0.1,0.2l-0.1,0.1
		l0.1-0.1c0.1,0,0.1,0-0.1,0.1c-0.1,0.1-0.2,0.2-0.2,0.1c0,0,0,0,0,0c0,0.1,0.1,0.1,0.1,0c0,0,0.1,0,0.1,0c0,0-0.1,0.2-0.2,0.3
		c-0.1,0.1-0.2,0.2-0.1,0.2c0,0,0.2-0.1,0.4-0.2c0.2-0.1,0.3-0.2,0.3-0.2c0,0.1-0.5,0.5-1.2,0.9c-0.3,0.2-0.6,0.4-0.6,0.4
		c0,0,0,0-0.1,0c0,0,0,0,0,0c0,0-0.1,0.1-0.3,0.2c-0.2,0.1-0.3,0.1-0.3,0.2c0,0,1.4-0.7,1.9-1c0.6-0.4,0.9-0.5,0.9-0.5
		c0,0,0,0.1-0.1,0.1c0,0-0.1,0.1,0,0.1c0,0.1,0,0.1,0,0.1c0,0,0,0,0,0.1c0,0,0,0,0.1,0c0.1,0,0.1,0,0,0.1c-0.1,0.1-0.1,0.1-0.1,0.1
		c0.1,0-0.1,0.2-0.4,0.4c-1.1,0.8-2.9,1.6-4.2,2c-0.3,0.1-0.4,0.1-0.3,0.1c0.8-0.1,3.3-1.2,4.8-2.1c0.3-0.2,0.5-0.2,0.2,0
		c-0.1,0.1-0.1,0.1-0.1,0.1c0,0-0.1,0.1-0.2,0.2C14.8,35,14.7,35,14.9,35c0.1,0,0.2-0.1,0.2-0.1l0.1-0.1l-0.1,0.1
		c-0.1,0-0.2,0.2-0.3,0.2c-0.3,0.2-0.7,0.5-1.5,0.9c-1,0.5-1.5,0.8-2.9,1.2l-0.2,0l0.2,0c0.5-0.1,1.4-0.4,2.4-0.9
		c0.8-0.4,0.9-0.4,0.2,0c-0.6,0.3-1.2,0.6-1.7,0.7c-0.5,0.2-1.4,0.4-1.7,0.4c-0.7,0-1.1,0.1-1.1,0.1c0,0,0.2,0,0.5,0
		c0.4,0,0.5,0,0.3,0c-0.1,0-0.5,0-0.8,0c-0.3,0-0.6,0-0.6,0c0,0,0.3,0.1,0.5,0.1c0.2,0,0.4,0,0.8-0.1c1.3-0.2,2.4-0.6,3.8-1.3
		c0.8-0.4,0.8-0.3,0,0.1c-1.3,0.7-2.5,1.1-3.8,1.3L9,37.9l0.4,0c0.8,0,1.9-0.3,3.1-0.9c0.3-0.1,0.6-0.3,0.6-0.3c0,0,0.3-0.1,0.6-0.3
		c0.3-0.1,0.6-0.2,0.6-0.2c0,0-0.8,0.5-1.3,0.7c-1.4,0.6-2.8,1.1-3.8,1.1c-0.1,0-0.2,0-0.3,0c0,0-0.2,0-0.2,0c-0.3,0-0.6-0.1-1-0.5
		c-0.2-0.1-0.3-0.2-0.3-0.2c0,0-0.1-0.1-0.2-0.2C7.1,37,7,36.8,7,36.8c0,0-0.1-0.3-0.2-0.6c-0.1-0.3-0.2-0.7-0.3-0.8
		c-0.2-0.5-0.3-1.3-0.2-2c0.1-0.4,0.4-1.4,0.7-2c0.3-0.8,1.1-2.2,1.2-2.1c0,0,0.1,0,0.1,0c0,0,0,0,0,0c-0.1,0-0.1,0,0.1-0.3
		c0.5-0.8,1.2-1.6,2.1-2.5c1.3-1.3,1.9-1.7,3.1-2.3c1-0.5,1.6-0.7,2.5-0.8c0.3-0.1,0.8,0,0.7,0c-0.1,0,0,0.1,0.2,0.1
		c0.1,0,0.1,0,0.1,0.1c-0.1,0-0.2,0-0.4,0c-0.7,0-0.7,0.1,0,0.1c0.6,0,0.8,0,0.7,0.1c0,0,0,0,0.1,0c0,0,0.1,0,0.1,0
		c0.1,0.1-0.1,0.1-0.1,0.1c0,0-0.1,0,0,0c0,0,0.1,0.1,0.1,0.1c0.1,0,0.1,0,0.5-0.3c0.4-0.4,0.4-0.5,0.6-0.5c0.1,0,0.1,0,0.1,0
		c0,0,0,0.1,0,0.2c0,0.1,0.1,0.2,0,0.2c-0.1,0.1-0.1,0.2,0,0.1c0.1,0,0.1,0,0.1,0.1c0,0.1,0,0.1,0.1,0c0.1-0.1,0.2-0.1,0.2-0.1
		c0,0,0,0.1-0.1,0.2c-0.1,0.1-0.1,0.2-0.1,0.2c0,0,0,0.1-0.1,0.2l-0.1,0.1l0.1-0.1c0.1,0,0.2-0.1,0.3-0.2c0.2-0.1,0.2-0.1,0.2,0
		c0,0.1,0,0.1,0,0.1c0,0,0,0,0,0.1c0,0.1,0,0.1,0,0.1c0,0,0,0,0,0.1c0,0.1,0,0.1,0,0.1c0,0,0,0-0.1,0.1c-0.1,0.1-0.1,0.2-0.1,0.2
		c-0.1,0.1-0.1,0.1,0.1,0c0.2-0.1,0.4-0.1,0.3,0c0,0,0,0,0,0c0,0,0,0,0,0.1c0,0.1,0,0.1,0.1,0c0.1-0.1,0.1,0,0,0.1c0,0,0,0.1,0,0.1
		c0,0,0,0.1-0.1,0.2c0,0.1,0,0.1,0,0.1c0.1-0.1,0,0-1.1,1.3c-0.9,1-2,2.7-2.1,2.9c0,0-0.1,0.1-0.1,0.3c-0.2,0.3-0.2,0.3-0.1,0.2
		c0.2-0.2,0.3-0.5,0.3-0.5c0,0,0,0,0,0c0,0,0.2-0.2,0.4-0.5c0.2-0.3,0.4-0.6,0.5-0.8c0.1-0.2,0.2-0.3,0.2-0.4c0,0,0.1-0.1,0.2-0.2
		c0.1-0.1,0.2-0.2,0.2-0.2c0,0,0.2-0.3,0.6-0.8c0.7-0.8,1.1-1.3,1.1-1.1c0,0-0.2,0.3-0.5,0.6c-0.5,0.6-1.1,1.3-1.2,1.4
		c-0.1,0.1,0.1-0.1,0.3-0.4c0.2-0.2,0.5-0.5,0.5-0.6c0,0,0.1-0.2,0.3-0.3c0.2-0.2,0.3-0.4,0.4-0.5c0.1-0.1,0.2-0.1,0.2-0.1
		C20.1,25.8,20,25.9,19.9,26z M8.9,31.3c0.4-0.6,0.8-1.1,1.2-1.7c0.4-0.5,0.8-1,1.3-1.5c-0.4,0.3-0.7,0.7-1,1.1
		c-0.3,0.4-0.6,0.8-0.9,1.2c-0.3,0.4-0.6,0.8-0.8,1.2c-0.3,0.5-0.6,0.9-0.8,1.5c-0.1,0.2-0.2,0.4-0.2,0.5c0.1-0.2,0.2-0.4,0.3-0.6
		C8.2,32.4,8.6,31.9,8.9,31.3z M8.8,35.1C9,35.1,9,35.1,8.8,35.1c0,0-0.3,0-0.4,0c-0.2,0-0.3,0-0.3,0C8,35.2,8.5,35.2,8.8,35.1z
		 M8.8,36.1c-0.1,0-0.3,0-0.4,0l-0.2,0h0.3C8.6,36.2,8.8,36.2,8.8,36.1C8.9,36.1,8.9,36.1,8.8,36.1z M8.5,31.4c0,0,0.1-0.1,0.1-0.1
		c0.4-0.6,0.8-1.2,1.2-1.8c0.3-0.5,0.6-0.9,0.9-1.4c-0.3,0.4-0.5,0.7-0.8,1.1c-0.5,0.7-1,1.3-1.4,2C8.5,31.3,8.5,31.3,8.5,31.4z
		 M15.8,26.1c-0.2,0.1-0.9,0.4-1.4,0.7c-1.2,0.7-2,1.4-2.8,2.1c-0.6,0.6-1.1,1.2-1.1,1.2c0,0,0,0.1-0.1,0.1c0,0-0.1,0.1-0.1,0.1
		c0,0-0.1,0.3-0.3,0.5c-0.3,0.4-0.9,1.3-1.1,1.6c-0.1,0.2-0.1,0.2,0.1,0c0.1-0.1,0.2-0.3,0.3-0.4c0.1-0.1,0.3-0.4,0.4-0.6
		c0.2-0.2,0.4-0.5,0.5-0.6c0.4-0.5,0.4-0.5,0.4-0.6c0,0,0,0,0,0c0,0,0.1,0,0.2-0.2c0.1-0.1,0.3-0.3,0.4-0.4c0.1-0.1,0.2-0.2,0.2-0.3
		c0-0.1,0.7-0.7,1.2-1.1c1-0.8,1.7-1.3,2.4-1.6c0.7-0.4,0.7-0.4,0.8-0.4c0,0,0,0-0.1,0c-0.1,0-0.1,0-0.1,0c0,0,0.1,0,0.1-0.1
		C15.9,26.2,16,26.1,15.8,26.1z M9.7,35.9c0.3-0.1,0.9-0.3,0.9-0.3c0,0,0,0-0.1,0c-0.1,0-0.4,0.1-0.7,0.2C9.3,36,9.2,36.1,9.7,35.9z
		 M9.8,37.2c0,0-0.1,0-0.1,0C9.6,37.2,9.6,37.3,9.8,37.2C9.8,37.3,9.8,37.2,9.8,37.2z M9.9,37.2C9.9,37.2,9.9,37.2,9.9,37.2
		C9.8,37.2,9.8,37.2,9.9,37.2C9.9,37.2,10,37.2,9.9,37.2z M10.1,37.1C10,37.2,10,37.2,10.1,37.1C10.1,37.2,10.2,37.2,10.1,37.1
		C10.1,37.1,10.1,37.1,10.1,37.1z M11.1,35.6c0,0,0.1,0,0.1,0c0,0,0,0,0,0C11.2,35.5,11.2,35.6,11.1,35.6
		C11.1,35.6,11.1,35.6,11.1,35.6z M11.4,35.5c0,0,0.1,0,0.1,0c0,0,0,0,0,0C11.5,35.4,11.5,35.4,11.4,35.5
		C11.4,35.5,11.4,35.5,11.4,35.5z M14.6,27c-1.1,0.6-1.8,1.2-2.7,2.1c-0.6,0.6-0.6,0.6,0,0c1.1-1,1.8-1.5,2.9-2.1
		c0.3-0.2,0.6-0.3,0.7-0.4C15.6,26.5,15.1,26.7,14.6,27z M12,27.6c0.1,0,0.1-0.1,0.1-0.1c0,0,0.6-0.5,1-0.8c0.5-0.3,1.1-0.7,1.6-1
		c0.2-0.1,0.4-0.2,0.4-0.2c-0.1,0-0.9,0.5-1.3,0.7c-0.7,0.4-1.4,0.9-1.8,1.3C11.9,27.6,11.9,27.6,12,27.6z M12.3,26.4
		c0,0,0.8-0.5,1-0.7l0.1-0.1l-0.1,0.1C13.1,25.9,12.3,26.4,12.3,26.4z M14,26.9c-0.4,0.2-1.4,1-1.4,1.1c0,0,0.2-0.1,0.3-0.2
		s0.6-0.4,0.9-0.6c0.3-0.2,0.6-0.4,0.8-0.5c0.1-0.1,0.2-0.2,0.3-0.2C14.8,26.5,14.4,26.7,14,26.9z M12.8,25.9c0,0,0.1,0,0.1-0.1
		c0.1-0.1,0.3-0.2,0.5-0.3c0.2-0.1,0.6-0.3,0.9-0.4c0.3-0.1,0.6-0.3,0.6-0.3c0,0-0.7,0.2-1,0.4C13.5,25.5,12.8,25.9,12.8,25.9z
		 M13.9,33.5C13.9,33.6,13.9,33.5,13.9,33.5c0.1,0,0.2-0.1,0.2-0.1C14.1,33.5,14,33.5,13.9,33.5C13.9,33.5,13.9,33.5,13.9,33.5z
		 M14.2,24.1c0.2-0.1,1.2-0.3,1.4-0.4c0.2,0,0.3-0.1,0-0.1c-0.5,0.1-1.3,0.3-1.6,0.5C13.9,24.2,14,24.2,14.2,24.1z M14.2,33.4
		C14.2,33.4,14.3,33.4,14.2,33.4C14.3,33.4,14.2,33.4,14.2,33.4C14.1,33.4,14.2,33.4,14.2,33.4z M15.4,26.4
		C15.5,26.4,15.4,26.4,15.4,26.4C15.3,26.4,15.3,26.4,15.4,26.4C15.4,26.4,15.4,26.3,15.4,26.4z M16.3,28.7c0.2-0.4,0.5-0.7,0.8-1.1
		c0.4-0.5,0.7-1,1.1-1.5C17.5,26.9,16.8,27.8,16.3,28.7C16.3,28.7,16.3,28.8,16.3,28.7C16.3,28.8,16.3,28.8,16.3,28.7z M17.3,28
		C17.3,28,17.3,28.1,17.3,28C17.3,28.1,17.3,28,17.3,28c0.4-0.6,0.9-1.1,1.2-1.7C18.1,26.9,17.7,27.4,17.3,28z M18.1,27.8
		C18.1,27.9,18,27.9,18.1,27.8C18,27.9,18.1,27.9,18.1,27.8C18.2,27.8,18.2,27.8,18.1,27.8z M18.6,25.6
		C18.6,25.6,18.7,25.6,18.6,25.6c0.1-0.1,0.2-0.2,0.2-0.2C18.7,25.5,18.7,25.5,18.6,25.6C18.6,25.6,18.6,25.6,18.6,25.6z"/>
	<path class="st1" d="M31.4,28c0,0.7,0,1-0.4,1.9c-0.3,1.1-0.6,1.7-1.2,2.6c-1.6,2.4-3.6,4.2-5.7,5.1c-0.2,0.1-0.5,0.2-0.5,0.2
		c-0.1,0-0.1,0,0,0c0,0,0,0,0,0c0,0-0.3,0-0.5,0.1c-0.6,0.1-1,0.2-1.3,0.1c-0.1,0-0.3-0.1-0.4-0.2c-0.2-0.2-0.2-0.2,0,0
		c0.1,0.1,0.3,0.1,0.5,0.1l0.2,0l-0.2-0.1c-0.1,0-0.4-0.1-0.7-0.2c-0.5-0.2-0.5-0.2-0.8-0.5c-0.2-0.2-0.5-0.5-0.6-0.7
		c-0.2-0.2-0.3-0.5-0.4-0.6c-0.2-0.3-0.4-0.5-0.6-0.9c-0.2-0.5-0.3-0.7-0.3-1.4c0-0.9,0.2-1.7,0.5-2.7c0.3-0.8,0.5-1.1,1-1.8
		c0.6-0.9,0.8-1.2,1.4-1.8c1-1.2,2.1-2.1,3.2-2.7c0.3-0.2,0.7-0.4,0.7-0.5c0-0.1,0.4-0.2,0.9-0.3c0.7-0.2,0.8-0.2,1-0.1
		c0.1,0,0.2,0.1,0.1,0.1c-0.2,0,0.2,0.2,0.5,0.2c0.2,0,0.3,0,0.4,0.1c0.1,0,0.1,0,0,0c-0.1,0-0.2-0.1-0.4-0.1c-0.2,0-0.2,0,0.1,0
		c0.3,0,0.5,0.1,0.8,0.3c0.1,0,0.2,0.1,0.2,0.1c0.1,0.1,0.9,0.8,0.9,0.9c0,0,0.2,0.3,0.4,0.4c0.3,0.1,0.8,1.2,1,1.9
		C31.4,27.3,31.4,27.5,31.4,28z M19.1,30.6C19.1,30.6,19.1,30.6,19.1,30.6C19,30.7,19,30.7,19,30.7s0,0,0,0
		C19.1,30.7,19.1,30.6,19.1,30.6z M19.2,30.3C19.1,30.4,19.1,30.4,19.2,30.3C19.1,30.5,19.1,30.5,19.2,30.3
		C19.2,30.3,19.2,30.3,19.2,30.3z M20.9,30.1c0.1-0.2,0.2-0.3,0.3-0.5c0.2-0.3,0.4-0.5,0.6-0.7c-0.3,0.3-0.5,0.5-0.7,0.8
		c-0.2,0.2-0.4,0.5-0.5,0.7c-0.2,0.3-0.4,0.7-0.6,1c0,0.1-0.1,0.2-0.1,0.3c0,0,0,0,0,0c0.1-0.1,0.1-0.2,0.2-0.4
		C20.4,31,20.7,30.5,20.9,30.1z M21.4,35c1-0.1,1.7-0.4,3-1.3c0.8-0.6,0.9-0.7,1.5-1.3c0.7-0.7,1.3-1.4,1.8-2.2c0.2-0.4,1-1.9,1-2
		c0,0,0,0,0,0c0,0,0,0,0,0c0-0.1,0-0.2,0.1-0.1c0,0,0,0,0-0.1c0-0.1,0-0.1,0-0.1c0,0,0,0,0-0.1c0,0,0,0,0,0c0,0,0,0,0-0.1
		s0-0.3,0.1-0.5c0.1-0.5,0.2-1.2,0.1-1.2c-0.1-0.1-0.8,0-1.3,0.2c-0.4,0.2-0.5,0.2-0.5,0.1c0,0-0.1,0-0.2,0c-0.2,0-0.2,0-0.1-0.1
		c0.1,0,0.2-0.1,0.2-0.2l0.1-0.1L27.2,26C27,26.1,27,26.1,27,26c0-0.1,0-0.1-0.2,0c-0.3,0.1-0.4,0.2-1,0.6c-0.3,0.2-0.6,0.4-0.7,0.4
		c-0.3,0.2-1,0.8-1.7,1.5c-0.6,0.6-1.3,1.5-1.2,1.6c0,0-0.1,0.2-0.2,0.3c-0.3,0.5-0.7,1.1-0.7,1.3c0,0.1,0,0.1,0.3-0.3
		c0.1-0.2,0.3-0.5,0.4-0.5c0.1-0.1,0.1-0.2,0.1-0.2c0,0,0,0,0,0s0,0.2-0.2,0.4c-0.1,0.2-0.2,0.4-0.2,0.4c0,0,0,0,0.1-0.1
		c0,0,0.2-0.3,0.4-0.6c0.8-1.1,1.7-2.2,2.4-2.7c0.7-0.6,1.9-1.6,1.8-1.4c0,0-0.5,0.4-1.1,0.8c-0.3,0.2-1.4,1.2-1.9,1.9
		c-0.5,0.5-1.2,1.4-1.4,1.8c-0.6,1-1,1.7-1.2,2.4c-0.2,0.7-0.3,1.2-0.3,1.3C20.6,35.1,20.7,35.1,21.4,35z M21.2,31.9
		c-0.1,0-0.7,1.4-0.7,1.6c0,0,0.3-0.6,0.5-1.1C21.1,32.1,21.3,31.9,21.2,31.9z M20.8,29.6C20.8,29.6,20.8,29.6,20.8,29.6
		c0.1-0.1,0.1-0.2,0.1-0.1C20.8,29.6,20.8,29.6,20.8,29.6z M21.1,29.2c0.8-1.1,2.3-2.7,3-3.3c0.4-0.3,0.8-0.6,0.9-0.6
		c0,0,0.2-0.1,0.4-0.2c0.3-0.2,0.4-0.2,0.1-0.1c-0.1,0-0.2,0.1-0.3,0.1c-0.2,0.1-1,0.6-1.5,1c-0.4,0.3-1.5,1.3-1.4,1.3
		c0,0,0.2-0.1,0.4-0.3c0.3-0.3,0.3-0.3-0.2,0.2c-0.6,0.6-0.8,0.8-1.2,1.5C20.9,29.5,20.8,29.6,21.1,29.2z M26.1,25.4
		c-0.2,0-2,1.3-2.6,1.8c-0.1,0.2-0.1,0.1,0.2-0.1c0.1-0.1-0.2,0.2-0.5,0.5c-0.9,0.9-1.2,1.3-1.9,2.4c-0.1,0.2,0,0,0.3-0.4
		c0.9-1.2,1.5-1.9,2.5-2.8c0.7-0.6,1.1-0.9,1.7-1.2c0.2-0.1,0.4-0.2,0.4-0.3C26.2,25.5,26.1,25.4,26.1,25.4z M21.3,36.6
		c0.1,0,0.2,0,0.4,0c0.2,0,0.5,0,0.7,0c0.2,0,0.4-0.1,0.7-0.2c0.4-0.2,0.8-0.4,1.2-0.7c-0.1,0.1-0.3,0.1-0.4,0.2
		c-0.1,0.1-0.2,0.1-0.4,0.2c0.2-0.1,0.4-0.2,0.6-0.3c0.2-0.1,0.5-0.3,0.7-0.4c0.2-0.1,0.3-0.2,0.5-0.3c0.3-0.2,0.6-0.5,0.9-0.8
		c0.2-0.2,0.5-0.4,0.7-0.6c0.2-0.2,0.4-0.5,0.6-0.7c0.2-0.2,0.3-0.4,0.5-0.6c0.2-0.2,0.3-0.4,0.5-0.7c0.2-0.2,0.3-0.5,0.5-0.7
		c0.1-0.2,0.3-0.4,0.4-0.6c0.1-0.2,0.2-0.4,0.3-0.5c0.1-0.1,0.1-0.3,0.2-0.4c0,0.2-0.1,0.3-0.2,0.4c-0.1,0.2-0.2,0.4-0.3,0.6
		c-0.2,0.2-0.3,0.4-0.5,0.7c-0.2,0.2-0.3,0.5-0.5,0.7c-0.1,0.1-0.4,0.5-0.5,0.7c-0.2,0.2-0.3,0.4-0.5,0.6c-0.2,0.2-0.4,0.4-0.5,0.6
		c-0.1,0.1-0.2,0.2-0.3,0.3c-0.2,0.2-0.5,0.4-0.7,0.6c-0.1,0.1-0.1,0.1-0.3,0.2c-0.1,0.1-0.2,0.2-0.3,0.2c-0.3,0.2-0.6,0.5-1,0.7
		c-0.3,0.2-0.6,0.4-1,0.6c0,0,0,0-0.1,0c-0.1,0-0.4,0.1-0.6,0.2c-0.3,0-0.5,0.1-0.8,0.1C21.6,36.5,21.5,36.6,21.3,36.6
		C21.3,36.6,21.3,36.6,21.3,36.6z M22.5,37c0.2,0,0.4-0.1,0.6-0.2C22.8,36.9,22.6,36.9,22.5,37c-0.2-0.1-0.5,0-0.7,0
		c0,0-0.1,0-0.1,0c0,0,0.1,0,0.1,0C22,37,22.2,37,22.5,37z M23,34.7c0,0-0.1,0-0.2,0.1c-0.1,0.1-0.4,0.2-0.6,0.2
		c-0.2,0.1-0.4,0.2-0.3,0.2c0,0,0.2-0.1,0.4-0.1C22.6,35,23,34.8,23,34.7z M23.6,28.8l0.6-0.6L23.6,28.8c-0.9,1-1.5,1.7-1.4,1.7
		c0,0,0,0-0.1,0.1c-0.1,0-0.1,0,0.1-0.2C22.5,30,23,29.4,23.6,28.8z M22.2,26.4c0,0.1,0.6-0.5,0.7-0.5c0,0,0.1-0.1,0.1-0.1
		c0,0,0,0.1-0.1,0.2c-0.1,0.1,0,0.1,0.2-0.1c0.3-0.3,0.5-0.4,0.2-0.2c-0.1,0.1-0.2,0.1-0.2,0.1c0,0,0.1-0.1,0.2-0.2
		c0.1-0.1,0.3-0.2,0.3-0.2C23.5,25.3,22.2,26.3,22.2,26.4z M22.2,30.1c0,0,0.1-0.2,0.2-0.3l0.2-0.2l-0.2,0.2
		C22.2,30.1,22.2,30.1,22.2,30.1z M29.6,32c-0.8,1.2-1.6,2.1-2.6,3.1c-0.7,0.7-1.2,1.1-1.7,1.4C24.8,36.7,24,37.1,24,37
		c0,0-0.1,0-0.2,0c-0.1,0-0.3,0.1-0.6,0.2s-0.4,0.1-0.3,0.1c0.1,0,0.9-0.2,1.1-0.3c0.1,0,0.1-0.1,0.1,0c0.1,0.1-1.5,0.6-1.8,0.6
		c-0.1,0-0.2,0-0.2,0.1c-0.1,0.1,0.3,0,0.7,0c0.8-0.1,2.4-1,3.5-1.9c1-0.8,3-3.1,3.3-3.8C29.9,31.5,29.9,31.5,29.6,32z M22.8,35.9
		c0.2-0.1,0.3-0.1,0.3-0.1c0,0-0.8,0.3-0.8,0.3C22.3,36.1,22.5,36.1,22.8,35.9z M22.7,26.7c-0.1,0.1-0.2,0.1-0.1,0.1
		C22.6,26.9,22.6,26.8,22.7,26.7l0.1-0.1L22.7,26.7z M23.2,25.4c0.3-0.2,0.8-0.5,1.1-0.7c0.3-0.2,0.6-0.3,0.6-0.3
		c0,0-0.2,0.1-0.4,0.3C24.2,24.9,24,25,24,25c0,0,0,0,0.1,0c0.1,0,0.3-0.2,0.5-0.3c0.2-0.1,0.5-0.3,0.6-0.4c0.1-0.1,0.2-0.2,0.2-0.2
		c0,0,0,0,0,0c0-0.2-1.8,0.8-2.5,1.5C22.8,25.8,22.9,25.7,23.2,25.4z M23.1,26.4c-0.1,0.1-0.1,0.2-0.1,0.2
		C23,26.5,23,26.5,23.1,26.4l0.1-0.1L23.1,26.4z M23.4,26c-0.1,0.1-0.1,0.1-0.1,0.1C23.3,26.1,23.3,26.1,23.4,26
		C23.4,26,23.4,26,23.4,26z M23.4,26.1C23.3,26.2,23.3,26.2,23.4,26.1C23.3,26.2,23.3,26.2,23.4,26.1C23.4,26.1,23.4,26.1,23.4,26.1
		z M23.4,27.1c0,0,0.1-0.1,0.1-0.1c0-0.1,0.1-0.1,0.1-0.1c0,0-0.1,0.1-0.1,0.1C23.4,27.1,23.4,27.1,23.4,27.1z M24.5,35
		c-0.2,0.1-0.9,0.6-0.9,0.5c0,0,0.2-0.1,0.4-0.2C24.3,35.2,24.6,34.9,24.5,35z M23.6,26.9c0,0,0.1-0.1,0.1-0.1l0.1-0.1l-0.1,0.1
		C23.6,26.9,23.6,26.9,23.6,26.9z M25.2,26.7c-0.4,0.3-1.1,0.8-1.3,1L23.7,28l0.3-0.2c0.1-0.1,0.5-0.4,0.8-0.7
		C25.3,26.6,25.5,26.5,25.2,26.7z M29.7,32.4c-0.8,1.2-1.8,2.4-2.8,3.2c-1.2,1-1.7,1.4-3,1.9c-0.2,0.1-0.1,0.1,0.3-0.1
		c0.2-0.1,0.5-0.2,0.7-0.3c0.3-0.2,1.2-0.8,1.6-1.1C27.7,35,29.1,33.4,29.7,32.4C29.9,32,29.9,32,29.7,32.4z M23.9,26.7
		C23.9,26.7,24,26.6,23.9,26.7c0.1-0.1,0.2-0.2,0.2-0.2C24.1,26.5,24,26.5,23.9,26.7C23.9,26.6,23.9,26.7,23.9,26.7z M26.9,34.5
		c0.2-0.2,0.4-0.4,0.5-0.6C27.3,34.1,27.1,34.2,26.9,34.5c-0.2,0.1-0.4,0.3-0.6,0.5c-0.5,0.4-1,0.9-1.6,1.2c-0.1,0-0.2,0.1-0.3,0.1
		c0,0-0.1,0,0,0c0.1,0,0.2,0,0.2-0.1c0.2-0.1,0.4-0.2,0.6-0.3c0.4-0.2,0.7-0.5,1-0.8C26.5,34.9,26.7,34.6,26.9,34.5z M24.4,36
		c0,0,0.2-0.1,0.4-0.2c0.6-0.4,1.3-0.9,1.9-1.5l0.6-0.6l-0.5,0.5c-0.9,0.8-1.5,1.3-2.1,1.7C24.5,35.9,24.4,36,24.4,36z M24.5,25
		c0,0,0.1,0,0.5-0.2c0.1-0.1,0.2-0.2,0.2-0.2C25.1,24.6,24.5,25,24.5,25z M24.7,36.4c-0.1,0-0.1,0.1-0.1,0.1
		C24.6,36.5,24.6,36.5,24.7,36.4C24.7,36.4,24.8,36.4,24.7,36.4C24.8,36.4,24.7,36.4,24.7,36.4z M25.4,36.2c-0.1,0-0.2,0.1-0.3,0.2
		c-0.1,0-0.1,0.1-0.1,0.1C25,36.5,25.3,36.3,25.4,36.2l0.1-0.1L25.4,36.2z M25.4,34.5C25.3,34.6,25.3,34.6,25.4,34.5
		C25.3,34.6,25.4,34.6,25.4,34.5C25.4,34.4,25.4,34.4,25.4,34.5z M26.8,35.1c0,0-0.2,0.1-0.4,0.3c-0.2,0.2-0.5,0.4-0.6,0.5
		c-0.1,0.1-0.2,0.2-0.2,0.2c0,0,0.2-0.1,0.6-0.4C26.6,35.4,26.9,35.1,26.8,35.1z M25.7,26.4c0,0,0.1-0.1,0.3-0.2
		c0.2-0.1,0.3-0.2,0.4-0.2c0,0-0.1,0.1-0.2,0.1c-0.3,0.2-0.3,0.2-0.1,0.1c0.1,0,0.3-0.1,0.3-0.1c0.2-0.1,0.3-0.2,0.1-0.1l-0.1,0
		l0.1-0.1c0.1-0.1,0.1-0.1,0-0.1c0,0-0.1,0-0.2,0.1C26.1,26,25.7,26.3,25.7,26.4z M26.1,25.6C26,25.7,26,25.7,26,25.7
		C26.1,25.7,26.1,25.7,26.1,25.6C26.2,25.6,26.2,25.6,26.1,25.6z M26.3,33.8c0,0-0.1,0.1-0.1,0.1c-0.1,0-0.1,0.1-0.1,0.1
		c0,0,0.1-0.1,0.1-0.1C26.2,33.8,26.3,33.8,26.3,33.8z M27.8,33.2C27.8,33.1,27.8,33.1,27.8,33.2C27.7,33.2,27.7,33.2,27.8,33.2
		C27.7,33.2,27.8,33.2,27.8,33.2z M27.7,33.8c0,0,0.1-0.1,0.1-0.1c0.1-0.1,0.2-0.2,0.4-0.4c0.1-0.1,0.3-0.3,0.4-0.4
		c0.2-0.2,0.4-0.5,0.6-0.7c0.1-0.2,0.3-0.4,0.4-0.6c-0.1,0.2-0.3,0.4-0.4,0.6c-0.2,0.3-0.4,0.6-0.7,0.9c-0.1,0.1-0.2,0.2-0.3,0.3
		C28,33.5,27.9,33.6,27.7,33.8C27.8,33.8,27.8,33.8,27.7,33.8z M28,32.9C28,32.9,28,32.9,28,32.9c0.2-0.1,0.2-0.2,0.2-0.2
		C28.1,32.8,28.1,32.8,28,32.9C28,32.9,28,32.9,28,32.9z M28.1,25.8C28.2,25.8,28.2,25.8,28.1,25.8C28.1,25.8,28.1,25.8,28.1,25.8
		C28,25.8,28.1,25.8,28.1,25.8z M29.8,30.6c-0.3,0.4-0.6,1-0.9,1.5c-0.1,0.2-0.2,0.3-0.3,0.5c0.1-0.2,0.2-0.3,0.3-0.5
		c0.2-0.3,0.5-0.7,0.7-1c0.2-0.4,0.5-0.8,0.7-1.2c0.1-0.3,0.3-0.6,0.4-0.9c0.1-0.2,0.1-0.5,0.2-0.8c-0.1,0.3-0.2,0.6-0.3,0.9
		C30.3,29.6,30.1,30.1,29.8,30.6z M30.9,29.6c-0.3,0.7-0.5,1.2-0.5,1.2c0,0,0,0,0,0.1c0,0,0,0,0,0c0,0,0,0,0,0c0,0,0,0,0,0
		c0,0,0,0,0,0c0,0,0,0,0,0c0,0-0.1,0,0,0c0,0,0,0,0,0c0,0,0,0,0,0.1c0,0.1,0.1,0,0.4-0.6c0.2-0.5,0.5-1.1,0.5-1.4
		C31.1,29.1,31,29.2,30.9,29.6z"/>
	<path class="st1" d="M34.5,34.9c0,0-0.1,0.2-0.2,0.3c-0.4,0.4-0.6,0.8-0.9,1.5c-0.2,0.5-0.4,1-0.4,1.2c0,0,0,0.1-0.1,0.1
		c-0.1,0-0.1,0-0.1-0.1c0-0.1-0.1-0.1-0.1-0.1c0,0-0.1,0-0.1-0.1c0-0.1,0-0.1,0,0c0,0,0,0-0.1,0c0-0.1-0.1-0.1-0.1,0
		c-0.1,0.1-0.3,0-0.4-0.1c0-0.1-0.4-0.3-0.5-0.2c-0.1,0.1-0.1-0.1-0.1-0.3c0-0.1,0-0.1-0.1,0c-0.1,0-0.1,0-0.1-0.1
		c0-0.1,0-0.1-0.1,0c0,0.1,0,0.1-0.2,0.1c-0.1,0-0.1-0.1-0.1-0.1c0,0,0-0.1-0.1,0c-0.1,0-0.1,0-0.1-0.2c0-0.1,0-0.2,0-0.3
		c0-0.1-0.1-0.1-0.1,0c0,0,0,0,0,0c0-0.2,0.8-2,1.1-2.4c0.3-0.5,0.8-0.9,0.9-0.9c0,0-0.1,0.1-0.2,0.3c-0.1,0.1-0.2,0.2-0.2,0.2
		c0.1-0.1,0.2-0.1,0.2-0.2l0.1-0.1l-0.1,0.1l-0.1,0.1l0.1-0.1c0.1-0.1,0.3-0.1,0.3-0.1c0,0,0,0.1,0,0.1c-0.1,0.1-0.1,0.1,0,0.1
		c0,0,0.1,0,0,0c0,0,0,0,0.1,0c0.1,0,0.1,0,0.2,0c0.1,0.1,0,0.1-0.3,0.5c-0.2,0.2-0.4,0.4-0.5,0.5c-0.1,0.1-0.1,0.1,0.1-0.1l0.2-0.2
		l-0.2,0.4c-0.1,0.2-0.2,0.4-0.2,0.4c0,0,0,0.1-0.1,0.1c-0.1,0.1-0.1,0.1,0,0c0,0,0.1-0.1,0.1-0.1c0,0,0.1-0.2,0.2-0.4
		c0.1-0.2,0.2-0.4,0.2-0.3c0,0-0.1,0-0.1,0c0,0,0.1-0.1,0.3-0.3c0,0,0.1-0.1,0.1-0.1c-0.2,0.2-0.4,0.5-0.5,0.8c0,0,0,0,0,0
		c0,0,0,0,0-0.1c0.1-0.1,0.2-0.3,0.2-0.4c0.1-0.2,0.2-0.3,0.3-0.5c0,0,0.1,0,0.1,0c0,0,0,0,0.1,0c0.1-0.1,0.1-0.1,0.2,0
		c0,0,0.1,0,0.1,0c-0.1,0.1-0.2,0.2-0.3,0.3c-0.1,0.2-0.2,0.3-0.3,0.5c-0.2,0.3-0.3,0.5-0.4,0.8c0,0,0,0.1,0,0.1
		c0,0,0.1-0.1,0.1-0.2c0.3-0.5,0.5-0.9,0.8-1.3c0.1-0.1,0.2-0.2,0.2-0.3c0,0,0,0,0,0.1c0,0,0,0.1,0,0.1s-0.1,0.2-0.2,0.3
		c-0.4,0.4-0.9,1.3-1.1,1.8c-0.1,0.3,0,0.3,0.1-0.1c0.2-0.4,0.4-0.8,0.7-1.3c0.3-0.5,0.4-0.5,0.7-0.5c0.1,0,0.2,0,0.3,0
		c-0.1,0.1-0.2,0.2-0.3,0.3c-0.2,0.3-0.4,0.6-0.6,0.9c-0.1,0.2-0.2,0.4-0.3,0.6c-0.1,0.2-0.2,0.3-0.2,0.5c0,0.1,0,0.2-0.1,0.3
		c0,0,0,0,0,0c0-0.1,0.1-0.2,0.1-0.3c0.2-0.4,0.4-0.8,0.7-1.2c0.1-0.2,0.3-0.5,0.5-0.7c0.1-0.1,0.2-0.2,0.3-0.3c0,0,0,0,0,0
		s-0.1,0.1-0.1,0.2c-0.1,0.1-0.1,0.1-0.1,0.1c0.1,0,0.1,0,0,0c0,0.1,0,0.1,0.1,0c0.1,0,0,0.1-0.2,0.3c-0.6,0.8-1.1,1.7-1.2,2.1
		c0,0.1,0,0.2,0,0.3l0,0.1l0-0.1c0.6-1.2,0.9-1.8,1.2-2.1c0.1-0.1,0.2-0.2,0.2-0.2c0,0-0.1,0.1-0.2,0.2c-0.2,0.2-0.5,0.7-0.7,1.1
		c-0.2,0.3-0.4,1-0.4,1c0,0,0.1-0.1,0.2-0.4c0-0.1,0.1-0.1,0.1-0.1c0,0,0-0.1,0.1-0.1c0-0.1,0.1-0.2,0.1-0.2
		c0.1-0.1,0.1-0.1,0.1-0.1c0,0,0.1-0.2,0.4-0.6C34,35.3,34.5,34.9,34.5,34.9z M31.9,35.9C31.9,35.9,31.8,36,31.9,35.9
		C31.8,36,31.9,36,31.9,35.9C31.9,35.9,31.9,35.9,31.9,35.9z M32.1,35.4C32,35.4,32,35.4,32.1,35.4C32.1,35.5,32.1,35.5,32.1,35.4
		C32,35.5,32,35.5,32.1,35.4C32,35.5,32.1,35.5,32.1,35.4C32.1,35.5,32.1,35.5,32.1,35.4z M33,36.3c0,0,0.1-0.2,0.3-0.4
		c0.1-0.2,0.3-0.5,0.4-0.7c0.1-0.2,0.2-0.2,0.1-0.2C33.6,35.2,32.9,36.3,33,36.3z M34.2,34.8C34.2,34.8,34.2,34.8,34.2,34.8
		C34.1,34.9,34.1,34.9,34.2,34.8C34.1,34.9,34.1,34.9,34.2,34.8z"/>
</g>
</svg>
