<?xml version="1.0" encoding="utf-8"?>
<!-- Generator: Adobe Illustrator 26.0.1, SVG Export Plug-In . SVG Version: 6.00 Build 0)  -->
<svg version="1.1" id="Ebene_1" xmlns="http://www.w3.org/2000/svg" xmlns:xlink="http://www.w3.org/1999/xlink" x="0px" y="0px"
	 viewBox="0 0 73 101" style="enable-background:new 0 0 73 101;" xml:space="preserve">
<style type="text/css">
	.st0{enable-background:new    ;}
	.st1{fill:#D8C5BC;}
</style>
<g class="st0">
	<path class="st1" d="M72.6,35.8c-0.2,2.8-0.3,3.2-1.3,5c-1.9,3.4-4,5.8-7.4,8.7c-6,5-17.4,11.3-28.9,16c-4.7,2-14,5-14.3,4.6
		c-0.3-0.2,0.3-0.5,2.8-1.2c9.2-2.7,18.7-6.9,28.9-12.7c3.4-1.9,8.2-5,9.9-6.4c2-1.7,3.4-2.9,3.4-3.1c0-0.1-0.6,0.4-1.4,1.1
		c-6.8,6-23,14.6-35.2,18.8c-4,1.4-8.2,2.7-8.7,2.6c-0.1-0.1,0.6-0.4,1.6-0.7c8.6-2.6,15.4-5.4,23.5-9.4C52.1,55.7,58.2,52,61.9,49
		c2.4-2,5.8-5.5,6-6c0-0.3-0.8,0.3-2.3,1.8c-1.2,1.3-2.8,2.6-3.4,3.1c-0.6,0.4-1,0.8-1,1c0.1,0.1,0,0.2-0.1,0.3
		c-0.2,0.1-0.2,0-0.1-0.1c0.2-0.4-0.2-0.2-0.7,0.2c-0.2,0.3-0.2,0.4,0,0.3c0.1-0.1,0.2-0.1,0.1,0c-0.1,0.1-0.3,0.2-0.5,0.2
		c-0.2,0-0.3,0.1-0.3,0.3c0,0.1-0.1,0.3-0.3,0.4c-0.1,0.1-0.1,0,0-0.1c0.3-0.4-0.2-0.3-0.5,0.1c-0.2,0.2-0.2,0.3,0,0.1
		c0.2-0.1,0.2-0.1,0.1,0.1c-0.1,0.1-0.2,0.2-0.3,0.1c-0.1,0-0.8,0.4-1.5,0.8c-4.3,3.1-16.2,9.2-23,11.9c-0.3,0.1-0.5,0.2-0.8,0.3
		c0.1-0.1,0.2-0.2,0.3-0.3s0.2-0.4,0-0.2c-0.1,0-0.6,0.4-0.6,0.6c-4.7,1.7-12.3,4.2-12.5,3.9c-0.1,0,0.3-0.2,0.8-0.3
		c0.5-0.1,1-0.3,1-0.4c0-0.1-0.3-0.1-0.7,0.1c-0.3,0.1-1,0.2-1.3,0.3c-0.6,0.1-0.8,0.5-2,2.8c-2.4,4.3-5.6,11.3-6.6,14.3
		c-1.1,3.2-1.4,3.9-1.9,3.9c-0.2,0-0.3,0-0.3-0.2c0.1-0.4-0.6-1.5-1-1.5c-0.1,0-0.3-0.2-0.3-0.6c-0.2-0.6-0.6-0.8-0.9-0.4
		c-0.1,0.1-0.4,0-0.9-0.3c-0.5-0.4-0.7-0.6-0.6-1c0.1-0.3-0.1-0.6-0.2-0.6s-0.5-0.3-0.8-0.7c-0.5-0.6-0.7-0.7-0.9-0.6
		c-0.4,0.2-0.5,0-0.7-1.1C3,80,2.7,79.7,2.4,80.2c-0.1,0.3-0.3,0.2-1-0.5c-0.9-0.7-0.9-0.7-1-2.5c-0.1-1.5,0-2,0.5-3.1
		c0.2-0.8,0.5-1.3,0.7-1.2c0.1,0.1,0.3-0.4,0.9-2.1c0-0.3,0-0.3-0.2,0.1c-0.4,0.6-0.4,0.5-0.1-0.3c0.1-0.3,0.3-0.5,0.4-0.5
		c0.2,0.2,0.5-0.6,0.3-0.9c-0.1-0.3,0.3-1.3,0.5-1.2c0.1,0.1,0.2,0,0.1-0.2C3.3,67.3,9.1,55.7,13.4,48s10.5-17.8,12.5-20.5
		c0.2-0.3,0.2-0.3,0-0.1c-0.2,0-0.1-0.1,0.2-0.4l0.5-0.4L26,26.8c-0.7,0.3-0.7,0.3-0.6-0.1c0.1-0.2,0-0.3-0.2-0.3
		c-0.4,0-0.5-0.3-0.4-0.7c0-0.1-0.2-0.1-0.5-0.1c-0.5,0.1-0.8-0.3-0.3-0.6c0.1,0,0.1-0.2,0.1-0.3c-0.1-0.2,0.2-0.4,0.6-0.5
		c0.3-0.2,0.9-0.5,1.1-0.6c0.3-0.3,0.3-0.3-0.1-0.2c-1,0.2-1.4,0.3-1.1,0.2c0.6-0.3,0.2-0.6-0.8-0.5c-0.8,0.1-1,0-0.9-0.3
		c0-0.2-0.1-0.4-0.2-0.4s-0.1-0.1-0.1-0.3c0.1-0.2,0-0.3-0.3-0.4c-0.4-0.1-0.5-0.2-0.2-0.3c0.1-0.1,0.2-0.4,0.2-0.6
		c-0.1-0.3,0-0.5,0.2-0.7c0.3-0.1,0.4-0.3,0.3-0.4c0-0.1,0.1-0.3,0.3-0.4c0.3-0.2,0.3-0.2-0.2-0.2c-0.4,0.1-0.4,0.1-0.1-0.2
		c0.2-0.3,0.3-0.5,0.2-0.5c-0.5-0.5,1.7-1.4,8.6-3.1c6.3-1.6,12.3-2.5,18.7-2.7c4.4-0.1,5.7,0,8.6,0.9c3.4,1.1,7.5,4.5,9,7.5
		c0.4,0.7,0.9,1.8,1.3,2.4c0.3,0.5,0.5,0.9,0.4,0.8c-0.6-0.3-0.3,0.5,0.4,1.4c0.8,1,1.6,2.4,1.9,3.6C72.4,31.2,72.7,33.6,72.6,35.8z
		 M10.1,60.6c1.5-3.1,2.9-6.3,4.3-9.4c-1.3,2.2-2.6,4.5-3.7,6.9c-0.7,1.3-1.2,2.7-1.9,4.1c-1.4,3.2-2.8,6.5-4,9.8
		c-0.1,0.4-0.3,0.7-0.4,1c0.1-0.2,0.2-0.4,0.3-0.6C6.7,68.5,8.4,64.6,10.1,60.6z M13.9,68.4c1.2-2.4,2.4-4.8,3.7-7
		c-2,2.9-3.8,6-5.4,9.2c-1.5,2.9-2.9,5.8-4.1,8.8c-0.1,0.2-0.3,0.4-0.3,0.7c0.1-0.3,0.3-0.6,0.4-0.9C10.2,75.7,12.1,72,13.9,68.4z
		 M11.1,69c-0.9,1.4-1.6,2.9-2.1,4.4c0,0.1-0.1,0.2-0.1,0.3C9,73.6,9,73.5,9.1,73.4c0.7-1.4,1.4-2.8,2.1-4.1
		c0.5-0.8,0.8-1.5,1.3-2.2C12,67.7,11.5,68.3,11.1,69z M18.4,66.2c-0.2-0.2-0.5,0.3-2,3.4c-1.6,3.2-2.3,4.7-2.4,5.6
		c0,0.1-0.5,1.4-1.2,2.8c-0.7,1.5-1.2,2.9-1.3,3.3c-0.3,1.2,0.3,0.2,1.5-2.8c1.5-3.4,2.7-5.9,4.4-9.5C18.5,66.9,18.7,66.4,18.4,66.2
		z M25.7,60.4c2.4-0.8,4.8-1.8,7.2-2.8c3.6-1.4,7.1-2.9,10.6-4.6c-2.2,0.8-4.3,1.5-6.5,2.4c-2.6,1-5.8,2.3-8.2,3.2
		c-2,0.8-4.1,1.5-6.2,2.2c-1.5,0.5-2.9,1-4.2,1.8c-0.3,0.2-0.6,0.4-0.8,0.7c0.2-0.2,0.4-0.4,0.7-0.5c1-0.6,2.1-0.9,3.3-1.2
		C23,61.3,24.3,60.9,25.7,60.4z M19.4,66.6c0-0.3-0.1-0.1-0.4,0.5c-0.2,0.5-0.2,0.5,0,0.1C19.2,67,19.4,66.7,19.4,66.6z M19.6,63.7
		c-0.1,0-0.4,0.4-0.5,0.7c-0.3,0.6-0.3,0.7-0.1,0.3c0.2-0.2,0.4-0.5,0.6-0.7C19.7,63.9,19.7,63.7,19.6,63.7z M19,59.3
		c0.1-0.3,0.3-0.5,0.4-0.7c0.5-0.9,1.1-1.7,1.6-2.5c0.6-1,1.1-2,1.7-2.9c0.6-1,1.7-3.1,2.4-4.1c0.5-0.9,1.1-1.8,1.6-2.8
		c-0.6,0.8-1.1,1.5-1.6,2.3c-1,1.5-1.9,2.9-2.8,4.4c-0.7,1.1-1.3,2.3-1.9,3.5c-0.3,0.7-0.8,1.5-1.1,2.2C19.2,58.9,19.1,59.1,19,59.3
		z M20,49.7c0.2-0.2,0.3-0.4,0.5-0.7c1.6-2.8,3.4-5.5,5.1-8.3c1-1.6,2-3.1,2.9-4.7c-1.3,2-2.7,3.9-4,6c-1.5,2.3-2.9,4.6-4.1,7.1
		C20.3,49.3,20.2,49.5,20,49.7z M28.2,40.9c3.2-4.9,4.5-6.8,5.7-8.5c0.7-1,1.1-1.6,0.9-1.6c-0.6,0-7.7,10.9-10.8,16.7
		c-0.5,0.8-1.2,2.2-1.7,3.2c-0.6,0.9-0.9,1.7-0.8,1.6c0.1-0.1,0.4-0.6,0.7-1.1c0.3-0.6,1-1.9,1.6-3c0.7-1,1.1-1.9,1.1-2
		c-0.1,0,0-0.1,0.1-0.1c0.2,0,0.3,0,0.2-0.1C25,45.9,25.2,45.6,28.2,40.9z M22.5,58.9c-0.2,0-0.5,0.2-0.6,0.3c-0.4,0.5,0,0.5,0.5,0
		C22.7,59,22.8,58.9,22.5,58.9z M27,63.9c0.9-0.4,1.7-0.9,2.5-1.4c-1,0.5-2.1,0.8-3.1,1.3c-1.4,0.5-2.7,1-4,1.5
		c-0.2,0-0.4,0.1-0.5,0.1c0.1,0,0.2,0,0.4,0C23.9,65.2,25.5,64.6,27,63.9z M23.6,65.5c-0.2,0-0.5,0-0.8,0.1
		c-0.2,0.1-0.3,0.2-0.1,0.2c0.2,0,0.5-0.1,0.8-0.2C23.7,65.5,23.7,65.5,23.6,65.5z M23.8,58.5c-0.1,0-0.2,0.1-0.2,0.2
		c0,0.1,0,0.2,0,0.2c0.1,0,0.2-0.1,0.3-0.2C23.9,58.6,23.9,58.5,23.8,58.5z M60,44.6l0.8-0.8l-1.2,0.9c-9.5,6.7-21.8,13-32.9,16.8
		c-1.4,0.6-2.5,0.9-2.3,1c0.1,0,1.6-0.5,3.4-1.1c8-2.6,20.5-8.8,27.8-13.6c1.3-1,2.6-1.9,2.9-2.1c0.3-0.3,0.5-0.4,0.5-0.3
		C59.1,45.4,59.5,45.1,60,44.6z M42.5,50.7c0-0.1-1.6,0.6-3.3,1.4c-4.1,1.9-8.8,4-11.6,5c-2,0.8-2.9,1.2-2.5,1.2
		c0.1,0,1.3-0.4,2.6-1c1.4-0.4,3.5-1.3,4.8-1.8C35.2,54.3,42.5,50.8,42.5,50.7z M51.8,39.1c1.3-0.6,5.3-3.8,7.2-5.8
		c2.4-2.4,3.8-4,3.5-4c-0.1,0-0.1-0.1-0.1-0.3c0.1-0.1,0-0.3-0.1-0.4c-0.1-0.2-0.1-0.4,0-0.6c0.4-0.4-0.7-0.5-5.2-0.5
		c-4.8-0.1-14.1,0.8-14.8,1.4c-0.2,0.2-0.4,0.2-0.5,0.1c-0.1-0.1-0.3,0-0.4,0.1c-0.2,0.1-0.6,0.2-0.8,0.3c-0.4,0-0.9,0.5-1.8,1.6
		c-0.6,0.9-1.2,1.6-1.2,1.8c0,0-1,1.5-2.2,3.3c-1.2,1.7-2.1,3.1-2,3.1c0,0,0.9-1.1,1.9-2.5c0.9-1.3,2-2.8,2.4-3.3
		c0.5-0.5,0.2,0-0.6,1.2c-3.5,5.1-6.3,9.4-8.6,13.2c-1.3,2.2-2.4,4-2.4,4.1c0,0,0.2,0,0.4-0.1c0.3-0.1,1.2-1.3,2.2-3.1
		c3.7-6.1,9.8-14.8,11.9-17c0.5-0.6,0.2-0.2-0.7,1.1c-2.7,3.6-6.5,9.4-9.9,15c-0.8,1.2-1.5,2.5-1.7,2.8c-0.2,0.3-0.3,0.6-0.2,0.6
		c0.1,0,0.5-0.5,0.8-1c2.4-4.2,8.5-13.5,9.6-14.6c0.3-0.4,0.6-0.7,0.6-0.7c0-0.2,0.8-1,1.8-2.1c1.7-1.7,1.7-1.8,0.9-0.6
		c-3.7,5-12.3,18-12.1,18.3c0.3,0.2,12.1-5.6,16.8-8.4c1.6-0.9,2.9-1.6,3-1.6c0,0,0.4-0.3,0.8-0.6C50.8,39.6,51.4,39.3,51.8,39.1z
		 M26.3,19c0.7-0.1,1.4-0.2,2-0.3c3.6-0.6,7.1-1.3,10.6-1.9c1.6-0.2,3.2-0.3,4.9-0.5c2.4-0.3,4.8-0.4,7.2-0.8
		c-2.8,0-5.5-0.1-8.2,0.1c-2.2,0.2-4.5,0.6-6.7,1c-2.7,0.5-5.3,1.2-8,1.9c-0.4,0.1-0.8,0.2-1.2,0.3c-0.2,0.1-0.5,0.1-0.7,0.2H26.3z
		 M27.1,21.1c1-0.1,2-0.3,3-0.5c1.5-0.3,2.9-0.7,4.4-1.1c-2.7,0.1-5.4,0.8-7.9,1.7c-0.1,0-0.1,0-0.2,0c0.1,0,0.1,0,0.1,0
		C26.7,21.2,26.9,21.2,27.1,21.1z M27.3,46.4c0.2-0.3,0.4-0.6,0.5-0.9c1.5-2.4,3-5.1,4.2-7.1c1.6-2.6,3.2-5.2,4.8-7.9
		c-2,2.9-4,5.7-5.8,8.8c-1.3,2.2-2.4,4.4-3.5,6.7C27.5,46.1,27.4,46.3,27.3,46.4z M57.8,50.6c0-0.1-0.2,0-0.5,0.2
		c-6.8,4.4-16.8,9.5-25,12.7c-1.6,0.6-3.3,1.2-3.7,1.4c-1.9,0.8,0.7,0,3.6-1.1c6.5-2.5,12.9-5.6,19.7-9.4
		C54.2,53,57.8,50.7,57.8,50.6z M28.9,34.1c0.1-0.2,0-0.3-0.1-0.2c-0.1,0-0.2,0.2-0.2,0.3C28.6,34.5,28.8,34.4,28.9,34.1z
		 M31.1,16.2c0.4,0,2.7-0.4,5.1-0.8c2.3-0.4,5.3-0.8,6.5-1c3.6-0.4,4.6-0.6,2.1-0.5c-3.7,0.2-11.6,1.5-13.8,2.2
		C30.4,16.3,30.4,16.3,31.1,16.2z M31.6,29.8c-0.3,0.1-0.5,0.2-0.5,0.3c0,0,0.2,0,0.5-0.1c0.2-0.1,0.4-0.3,0.4-0.3
		C32,29.6,31.8,29.7,31.6,29.8z M31.9,41.3c-0.4,0.3-0.5,0.4-0.2,0.4C31.8,41.7,32,41.6,31.9,41.3C32.1,41.1,32.1,41.1,31.9,41.3z
		 M32.3,21.1c0.3-0.1,0.6-0.3,0.7-0.3c0.2-0.2-0.8-0.1-1,0.2C31.7,21.1,31.8,21.1,32.3,21.1z M36.2,60.4c2.9-1.3,5.7-2.5,8.5-4
		c2.9-1.6,5.7-3.2,8.5-5c1.2-0.8,2.4-1.6,3.6-2.4c-1.5,0.9-3,1.8-4.7,2.7c-2.3,1.4-4.3,2.6-6.8,4c-1.6,0.8-3.1,1.5-4.7,2.3
		c-1.4,0.7-2.8,1.5-4.2,2.2c-0.6,0.3-1.1,0.5-1.7,0.8C35.2,60.8,35.7,60.6,36.2,60.4z M35.7,29.6c0.3,0,0.4-0.2,0.3-0.2
		c-0.2-0.1-0.4,0-0.5,0.1C35.3,29.7,35.4,29.7,35.7,29.6z M36.7,28.3c-0.1,0-0.4,0.2-0.5,0.3c-0.5,0.5,0.2,0.4,0.6,0
		c0.3-0.3,0.4-0.5,0.3-0.6c-0.1-0.1,0-0.1,0.2-0.1c0.2,0,0.3-0.1,0.3-0.2c0-0.3-0.5-0.3-0.8,0.1c-0.2,0.2-0.2,0.3,0,0.3
		C37,28.2,37,28.2,36.7,28.3z M40.2,28.1c0.1,0,0.2-0.2,0.4-0.4c0.2-0.3,0.2-0.3-0.1-0.1C40.2,27.9,40,28.1,40.2,28.1z M41.7,51.6
		c-0.1,0-0.3,0.1-0.5,0.2C41,51.9,40.9,52,41.1,52c0.1,0,0.3-0.1,0.5-0.2C41.8,51.7,41.8,51.6,41.7,51.6z M46.9,23.3
		c2.5-0.4,4.9-0.8,7.4-1.4c-2.1,0.1-4.2,0.2-6.3,0.5c-1.3,0.2-2.6,0.5-3.9,0.7c-1,0.3-2,0.5-3,0.8C42.6,23.8,45.1,23.5,46.9,23.3z
		 M41.5,26.8c0.1-0.1,0-0.2-0.1-0.2c-0.1,0-0.2,0.1-0.2,0.2s0,0.2,0.1,0.2C41.3,27,41.4,26.9,41.5,26.8z M44,27.6
		c0.5-0.1,2.4-0.2,4.3-0.5c3.7-0.4,9.7-0.5,12.5-0.2c1.6,0.1,1.6,0.1,0.8-0.2c-1.6-0.5-5.4-0.8-8.5-0.7c-5.8,0.4-11.2,1-11.7,1.6
		c-0.3,0.3-0.2,0.3,0.7,0.2C42.7,27.7,43.6,27.6,44,27.6z M53.2,25.6c-0.8-0.5-10.7,0.6-11.2,1.2c-0.2,0.2-0.2,0.3,0.1,0.2
		c0.3-0.1,1.1-0.2,1.9-0.4c2.3-0.4,7.1-0.8,8.3-0.8C53.1,25.8,53.4,25.7,53.2,25.6z M42.4,28.2c-0.1-0.1-0.3-0.1-0.4-0.1
		c-0.2,0.1-0.1,0.1,0.1,0.2C42.4,28.3,42.5,28.2,42.4,28.2z M44.3,49.7c0.5-0.3,0.9-0.5,0.9-0.5c0-0.1-0.4,0-0.9,0.3
		c-0.4,0.2-0.8,0.5-0.8,0.5C43.5,50.1,43.9,49.9,44.3,49.7z M43.7,50.6c0,0.1,0.5-0.1,1.3-0.5c0.7-0.4,1.2-0.7,1.2-0.7
		c0-0.1-0.5,0.1-1.2,0.5C44.2,50.3,43.7,50.6,43.7,50.6z M56.2,23.8c-1.2-0.1-2.4-0.1-3.6,0c-1.8,0-3.5,0.2-5.3,0.4
		c-1.2,0.1-2.3,0.2-3.4,0.5c0.8-0.1,1.7-0.1,2.6-0.2c1.4,0,2.8-0.1,4.3-0.2c3.7-0.1,7.4,0,11.2,0.3c0.6,0.1,1.3,0.1,1.9,0.2
		c-0.5-0.1-1-0.2-1.5-0.3C60.4,24.1,58.3,23.8,56.2,23.8z M46.2,14.7c0.8,0,1.6,0.1,2.3,0c1.1,0,2.1-0.1,3.1-0.3
		C49.8,14.3,48,14.3,46.2,14.7z M47.7,48.4c-0.5,0.2-0.8,0.5-0.8,0.6c0,0,0.3-0.1,0.8-0.4c0.4-0.2,0.8-0.4,0.8-0.5
		C48.5,48.1,48.1,48.2,47.7,48.4z M48.1,13.8c0.3,0,0.4-0.1,0.3-0.1c-0.2-0.1-0.4-0.1-0.5,0C47.7,13.7,47.8,13.8,48.1,13.8z
		 M49.6,47.4c-0.3,0.1-0.4,0.2-0.4,0.3c0,0.1,0.1,0,0.4-0.1c0.2-0.1,0.4-0.3,0.4-0.3C50,47.2,49.8,47.3,49.6,47.4z M50.6,46.8
		c-0.2,0.1-0.4,0.2-0.4,0.3c0,0,0.2,0,0.4-0.1c0.3-0.1,0.5-0.3,0.5-0.3C51.1,46.6,50.9,46.7,50.6,46.8z M52,14.1l1.2,0.1
		c0.6,0.1,1.4,0.2,1.8,0.2h0.8l-0.9-0.2c-0.4-0.1-1.3-0.1-1.8-0.1H52z M66.8,40.5c-0.7,1-1.4,1.6-2.2,2.3c-0.1,0.2-0.3,0.3-0.4,0.4
		c-1.5,1.4-3,2.7-4.5,4.1c-0.2,0.1-0.3,0.3-0.5,0.5c0.2-0.2,0.4-0.3,0.5-0.5c1.6-1.3,3.5-2.8,5-4.3C65.5,42.2,66.2,41.4,66.8,40.5z
		 M64.7,37c-0.6,0.7-0.9,1-1.6,1.8c-0.1,0.1-0.3,0.3-0.4,0.5c-0.2,0.1-0.3,0.3-0.5,0.4c-0.7,0.7-1.4,1.4-2.2,2.1
		c-0.2,0.2-0.5,0.4-0.7,0.6c0.1-0.1,0.3-0.2,0.4-0.3c1.3-1,2.5-2,3.7-3.2c0.7-0.8,1.4-1.6,2.1-2.4c0.5-0.6,0.9-1.3,1.4-1.9
		c0.5-0.7,0.9-1.3,1.2-2.1c-0.7,1.4-1.8,2.5-2.7,3.7C65.2,36.5,64.9,36.8,64.7,37z M63,42.1c-0.1,0-0.3,0.3-0.5,0.5S62.1,43,62.2,43
		c0.1,0,0.3-0.2,0.5-0.4S63,42.1,63,42.1z M67.9,36.6c0.3-0.4,0.6-0.8,0.8-1.3c-0.3,0.5-0.7,1.1-1,1.4c-0.7,0.8-1.1,1.3-1.9,2.1
		c-0.9,1-1.5,1.7-2.3,2.5c-0.1,0-0.1,0-0.1,0c-0.1,0.1-0.2,0.2-0.3,0.3c0.1-0.1,0.2-0.1,0.2-0.2c1.2-0.9,2.1-1.9,3.1-2.9
		C66.9,37.9,67.4,37.3,67.9,36.6z M63.4,41.3L63.4,41.3L63.4,41.3z M66.4,45.9c-0.2,0.2-0.4,0.4-0.4,0.5c0,0.3,0.1,0.2,0.5-0.3
		C66.9,45.7,66.9,45.7,66.4,45.9z M70.7,39.5c-0.1-0.1-0.9,1.1-2.4,3.5c-0.1,0.2,0.1,0.1,0.6-0.4c0.5-0.6,1.1-1.5,1.4-2
		C70.6,40,70.8,39.5,70.7,39.5z"/>
</g>
</svg>
