<?xml version="1.0" encoding="utf-8"?>
<!-- Generator: Adobe Illustrator 26.0.1, SVG Export Plug-In . SVG Version: 6.00 Build 0)  -->
<svg version="1.1" id="Ebene_1" xmlns="http://www.w3.org/2000/svg" xmlns:xlink="http://www.w3.org/1999/xlink" x="0px" y="0px"
	 viewBox="0 0 77 101" style="enable-background:new 0 0 77 101;" xml:space="preserve">
<style type="text/css">
	.st0{enable-background:new    ;}
	.st1{fill:#D8C5BC;}
</style>
<g class="st0">
	<path class="st1" d="M76,24.8c-0.2,0.3-1.1,1.2-2,2.2c-4.1,4-9.3,12-13.7,20.5c-0.8,1.8-1.6,3.5-1.7,4c-0.4,0.9-0.9,1.7-1.3,1.5
		c-0.2-0.1-0.2-0.3-0.2-0.6c0.1-0.3-0.1-0.5-0.5-0.4c-0.1,0-0.1-0.1-0.1-0.3c0-0.1-0.2-0.3-0.4-0.3c-0.3,0-0.3-0.2-0.3-0.6
		c0.1-0.6,0.1-0.6-0.8-0.5c-0.5,0.1-1,0-1.2-0.2c-0.3-0.4-0.8-1.3-0.7-1.5c0-0.1-0.1-0.1-0.2-0.1s-0.3-0.2-0.3-0.4
		c-0.1-0.3-0.3-0.5-0.5-0.5c-0.1,0-0.3-0.1-0.3-0.2c0-0.1-0.1-0.1-0.3-0.1c-0.3,0.1-0.5,0-0.6-0.4c-0.3-0.4-0.2-0.6,0.2-0.9l0.4-0.5
		L51,45.6c-0.6,0.1-0.6,0.1-0.5-0.5c0-0.7,0-0.7-0.3-0.3c-0.4,0.5-0.9,0.5-0.8,0c0.1-0.2,0-0.3-0.3-0.2c-0.3,0.1-0.4,0-0.4-0.3
		s-0.2-0.4-0.4-0.4c-0.2,0-0.3-0.3-0.2-1.1c0-0.7-0.1-1.4-0.2-1.8c-0.1-0.7,0.8-3,2.4-5.9c0.5-0.9,0.9-1.7,0.8-1.7
		c-0.4,0-6.3,2.1-9,3.1c-6.7,2.7-12.4,6-15.7,9.2c-2.2,2.1-2.2,2.4,0.2,3.3c2.5,1,5.7,2,11.6,3.6c3,0.7,5.7,1.4,6,1.5
		c0.4,0.2,0.8,0.3,1,0.3c1.1,0.3,4.5,1.7,5.5,2.4c1.9,1.2,4.3,4.3,3.9,4.9c0,0.1,0.3,0.8,0.7,1.4c0.5,0.7,0.7,1.2,0.5,1.3
		c-0.3,0.1-0.2,1,0.1,1.3c0.2,0.1,0.4,0.3,0.4,0.5s0.1,0.4,0.4,0.6c0.2,0.2,0.3,0.4,0.3,0.6c-0.1,0,0.1,0.6,0.4,1.2
		c0.3,0.6,0.5,1.3,0.4,1.5c-0.1,0.1-0.1,1-0.2,1.9c0,1.2,0.1,1.6,0.3,1.5c0.3-0.1,0.3,0,0,0.5c-0.3,0.7-0.7,1.6-0.7,1.8
		c0.1,0.3-1.5,1.5-3,2.2C47.1,81.6,28,86.6,15,88.3c-4.3,0.6-5,0.6-6.7,0.3c-1.2-0.2-2.9-0.6-3.2-0.8c-0.1,0-0.1-0.4-0.2-0.7
		c0-0.4-0.3-0.9-0.6-1.2C3.8,85.2,3.6,85,4,85c0.4,0,0.2-0.4-0.2-0.5c-0.3,0-0.5-0.2-0.6-0.3c0-0.1,0-0.3-0.1-0.5c0,0,0-0.1-0.1-0.2
		c1.5-0.1,3-0.2,4.5-0.3c4.3-0.3,8.5-0.7,12.7-1.7c-2.4,0.3-4.9,0.4-7.3,0.6c-1.3,0.1-2.7,0.3-4.1,0.4c-2,0.1-4,0.2-6,0.4
		c0-0.3-0.1-0.6-0.2-0.9c-0.2-0.7-0.4-1.4-0.5-1.4c-0.2-0.2-0.6-1.8-0.6-2.3c0-0.3-0.2-0.8-0.4-1.1c-0.5-0.9-0.5-3.1,0-3.4
		c0.2-0.1,0.3-0.3,0.3-0.4c-0.2-0.4,0-0.6,1.2-1.4l1-0.6l0.7,0.7c0.6,0.7,0.8,0.7,2.6,0.9c1.9,0.2,2,0.2,8.1-0.6
		c0.5,0,0.9-0.1,0.9-0.2c-0.1-0.1,0.3-0.1,0.8-0.2c2.5,0,20.8-4.3,19.9-4.6c-0.1,0-0.2-0.3-0.2-0.5c0.1-0.3,0-0.4-1-0.6
		c-1-0.3-2.4-0.8-1.9-0.8c0.1,0,1,0.2,2,0.5c2.8,0.7,2.2,0.3-0.8-0.6c-5.7-1.8-12.3-5.9-13.5-8.3c-0.2-0.3-0.6-1-1-1.6
		c-0.7-1.1-1.8-3.3-2-4.3c-0.3-0.8-1-2.4-1.5-3.1c-0.5-0.8-0.7-1.3-1.3-3.9c-0.3-1.1-0.3-2-0.2-3.4c0.1-1,0.2-2,0.3-2.1
		s0.3-0.6,0.4-1.1c0.5-1.8,1.7-4,2.6-5c0.8-0.9,5.9-5.1,6.2-5.1c0,0,0.3-0.2,0.6-0.4c0.6-0.7,6.3-3.4,9.9-4.8
		c8.7-3.5,18-6.2,20.3-5.9c0.8,0.1,0.9,0.9,0.2,1.3c-0.4,0.4-0.4,0.4,0.2,0.4c0.5,0,0.7,0.1,0.7,0.4c0,0.2-0.1,0.4-0.2,0.4
		c-0.2,0-0.1,0,0,0.2c0.3,0.2,0.3,0.3,0.1,0.5c-0.3,0.3-0.2,0.4,0.6,0.7c0.4,0,0.6,0.2,0.5,0.3c-0.1,0.1,0,0.1,0.1,0.1
		c0.2-0.1,0.4,0,0.6,0c0.4,0.3-0.1,1.1-0.6,1.2C57.2,22,57.2,22,57.6,22c0.3,0,0.8-0.4,1.7-1.6c4-5.4,5.4-7,6.9-7.7
		c1.2-0.5,1.6-0.6,1.1-0.1c-0.4,0.3-0.5,1-0.1,1c0.1,0,0.1,0.1,0.1,0.3c-0.1,0.1,0,0.2,0.2,0.2c0.6,0,0.6,0,0.1,0.8
		c-0.2,0.3-0.2,0.4-0.1,0.4c0.1-0.1,0.3-0.1,0.3,0.1c0.1,0.2,0.2,0.2,0.5-0.1c0.4-0.3,0.4-0.3,0.1,0.1c-0.3,0.4-0.3,0.4,0.1,0.2
		c0.3-0.1,0.3,0-0.1,0.5l-0.5,0.5l0.6-0.4c1-0.7,1.1-0.7,1.3-0.4c0.2,0.3,0.1,0.5-0.7,1.3c-0.6,0.5-0.8,0.9-0.6,0.8
		c0.3-0.1,0.4-0.1,0.2,0.2c-0.1,0.5,0.1,0.4,1.3-0.6c0.4-0.3,0.9-0.7,1.1-0.8c0.2-0.1,0.2-0.1,0.2-0.1c-0.7,0.7-1.5,1.4-2.2,2.1
		c-0.8,0.8-1.5,1.7-2.3,2.6c-0.1,0-0.2,0.2-0.3,0.3c0,0,0,0.1-0.1,0.1c-0.8,0.8-1.7,1.6-2.5,2.5c-0.2,0.2-0.4,0.4-0.5,0.7
		c0,0.3,0.6-0.2,0.7-0.3l0.1-0.1c0,0,0,0,0.1,0c0.1-0.1,0.2-0.1,0.3-0.2c0.4-0.3,0.8-0.6,1.1-1c1.3-1.2,2.6-2.5,3.9-3.8
		c0.5-0.5,1-1.1,1.5-1.6c0.1,0,0.1,0,0.1,0c0-0.1,0.1-0.1,0.1-0.1c0.1,0.1,0.3,0.2,0.4,0.1c0.1-0.1-0.1,0.1-0.3,0.5l-0.6,0.5
		l0.8-0.4c1-0.6,1.1-0.6,0.5,0.2c-0.3,0.5-0.5,0.8-0.4,0.9c0,0-0.7,0.9-1.7,1.8c-1,1-1.9,2.1-2.2,2.5c-0.3,0.4,0.3-0.1,1.2-1.1
		c1.7-1.8,3.9-3.4,3.7-2.7c-0.1,0.3-0.1,0.3,0.2,0c0.3-0.2,0.5-0.1,0.3,0.4c0,0.1,0.1,0.1,0.1,0.2c-0.7,0.6-1.4,1.2-2.1,1.9
		c-1.2,1.1-2.4,2.3-3.5,3.5C65,29,62.5,32,60.4,35.2c-0.4,0.5-0.7,1-1.1,1.6c0.1,0,0.1-0.1,0.1-0.1c0.5-0.7,0.9-1.2,1.4-1.8
		c3.3-4.4,6.7-8.3,9.9-11.5c0.9-0.9,1.8-1.7,2.8-2.6c0.2,0.1,0.4,0.1,0.7,0c0.8-0.1,0.6,0.3-0.4,1c-0.6,0.4-1,0.7-1,0.8
		c0,0.1,0.3-0.1,0.6-0.4c0.8-0.5,0.8-0.5,0.8,0.2c0,0.4,0,0.6,0.3,0.5c0.2,0,0.2,0,0,0.3c-0.3,0.3-0.4,0.5-0.4,0.6
		c0,0.1-0.4,0.5-1,1c-2.1,1.4-5.8,6.3-8.9,11.5c-0.2,0.3-0.8,1.4-1.4,2.4c-1.8,2.9-2.8,5.1-2.7,5.5c0.1,0.2,0.1,0.3-0.1,0.2
		c-0.1-0.1-0.1,0-0.1,0.2c0.1,0.3,0.1,0.3-0.1,0.2c-0.2-0.1-0.2-0.1-0.1,0.2c0,0.2,0,0.3-0.1,0.3s-0.2,0.1-0.1,0.2
		c0.1,0.1,0,0.2-0.1,0.2c-0.2,0-0.2,0.1-0.1,0.3c0,0.1,0,0.2-0.1,0.2c-0.1,0-0.2,0.1-0.2,0.2c0,0.2-0.1,0.7-0.3,1.1
		c-0.2,0.4-0.3,0.8-0.2,0.8c0.2,0,2.1-4.3,2-4.6c-0.1-0.3-0.1-0.3,0.2-0.2c0.1,0.1,0.2,0.1,0.1,0c-0.1-0.2-0.1-0.3,0-0.3
		s0.3-0.2,0.4-0.4c0.1-0.3,0.3-0.9,0.6-1.3c0.3-0.4,0.4-0.8,0.4-0.9c-0.1,0-0.1-0.1,0-0.1c0.2,0,0.2-0.1,0.2-0.3
		c0-0.1,0.7-1.2,1.5-2.4c0.7-1.2,1.4-2.2,1.4-2.2c0-0.2,2.1-3.4,3.5-5.2c2.6-3.3,6-6.8,6.4-6.4c0.1,0-0.5,0.7-1.3,1.4
		c-1.5,1.5-3.7,4.2-5.6,6.9c-1.5,2.2-1,1.6,1.4-1.6c2.1-2.9,5.2-6,6.1-6.2C76.4,24.4,76.4,24.4,76,24.8z M51.8,76.7
		c-5.6,2.6-21.6,6.8-33.2,8.7c-3.6,0.6-4.6,0.7-9,0.9c-2.8,0.2-3,0.5-0.5,0.6C10.4,87,10.3,87,8.4,87c-2.1,0.1-3.1,0.3-2,0.5
		c0.7,0.2,4,0,6.8-0.3c10.6-1.4,24.7-4.7,34.8-8.3c1.5-0.5,3.3-1.2,3.9-1.5c2.4-1,4.6-2.7,2.9-2c-0.4,0.1-0.6,0.2-0.6,0.4
		c0,0.1-0.1,0.1-0.3,0c-0.1,0-0.2,0-0.2,0.2c0,0.1-0.1,0.1-0.2,0.1C53.4,76,52.6,76.3,51.8,76.7z M8.4,78.9c-0.2,0-0.6,0-0.9,0
		C7.3,79,7.4,79,7.9,79C8.3,79,8.6,79,8.4,78.9z M8.9,73.9c-0.2,0-0.4,0-0.5,0C8.2,74,8.3,74,8.6,74S9,74,8.9,73.9z M55,76.3
		c-1.4,0.9-5.5,2.6-8.4,3.6c-9.5,3.2-24.1,6.5-35.6,7.9c-1.3,0.2-2,0.3-1.6,0.3c0.3,0,1.8-0.1,3.3-0.3c3.7-0.4,7.8-1,11.5-1.8
		c3.9-0.8,3.6-0.7,6.2-1.3c1.3-0.4,2.7-0.7,3.3-0.8c2.8-0.5,10.6-2.8,14.5-4.2c4.1-1.5,8.3-3.5,7.9-3.9C56.1,75.7,55.6,76,55,76.3z
		 M9.8,74c-0.1-0.1-0.2-0.1-0.4-0.1C9.3,74,9.3,74,9.5,74.1C9.8,74.1,9.9,74,9.8,74z M10.5,78.8c-0.1-0.1-0.3-0.1-0.5-0.1
		c-0.1,0.1-0.1,0.1,0.2,0.2C10.4,78.9,10.5,78.8,10.5,78.8z M10.2,84.7c0.3,0,0.5,0,0.8,0c0.6-0.1,1.3-0.1,2-0.2
		c1.9-0.2,3.8-0.4,5.7-0.6c2.8-0.5,5.7-1,8.6-1.6c2-0.4,4-1,6-1.5c1.7-0.4,3.3-0.9,4.9-1.5c2-0.6,3.9-1.3,5.8-2.1
		c-2,0.7-4.2,1.1-6.2,1.7c-3.3,1-6.5,1.9-9.8,2.6c-2.8,0.6-5.5,1-8.3,1.5c-2.1,0.3-4.3,0.6-6.4,1.1c-0.9,0.2-1.9,0.4-2.8,0.6
		C10.4,84.7,10.3,84.7,10.2,84.7z M10.9,73.8c0.4,0,0.6-0.1,0.4-0.1c-0.2-0.1-0.5-0.1-0.7,0C10.4,73.7,10.5,73.8,10.9,73.8z
		 M12.1,78.5c-0.2,0-0.5,0-0.7,0c-0.2,0.1,0,0.1,0.4,0.1C12.1,78.6,12.4,78.6,12.1,78.5z M12.5,73.6c0.3,0,0.5-0.1,0.4-0.1
		c-0.2-0.1-0.4-0.1-0.6,0C12,73.5,12.1,73.6,12.5,73.6z M13,78.3l-0.5,0.1L13,78.3c0.3,0.2,2-0.1,3.8-0.4c5.8-0.9,12-2.3,17.6-3.9
		c1.2-0.3,2.5-0.7,2.9-0.8c1.3-0.3,8.4-2.8,8.8-3.1c0.4-0.1,0.5-0.2,0.2-0.1C32.4,74.6,26.3,76.2,13,78.3z M13.7,73.4
		c0.3,0,0.4,0,0.3-0.1C13.9,73.2,13.8,73.2,13.7,73.4C13.5,73.3,13.5,73.4,13.7,73.4z M26.1,78.8c3.2-0.8,6.4-1.7,9.5-3.1
		c1.4-0.6,2.9-1.2,4.1-2.2c-1.1,0.8-2.7,1.3-3.7,1.7c-2.1,0.7-4.2,1.4-6.4,2c-2.2,0.7-4.4,1.2-6.6,1.8c-1.8,0.4-3.5,0.8-5.3,1
		c-0.9,0.1-1.9,0.3-2.8,0.4c0.8,0,1.7,0,2.5-0.1C20.3,80.3,23.2,79.6,26.1,78.8z M15.2,73.2c0.2,0,0.4,0,0.3-0.1
		c-0.1-0.1-0.3-0.1-0.4,0C14.9,73.1,15,73.2,15.2,73.2z M17.8,72.8c0.3,0,0.4-0.1,0.3-0.2c-0.1,0-0.4,0-0.6,0
		C17.3,72.7,17.4,72.8,17.8,72.8z M20,72.4c0.3,0,0.4-0.1,0.3-0.1c-0.1-0.1-0.2-0.1-0.4-0.1C19.8,72.3,19.8,72.3,20,72.4z
		 M24.6,35.7c0.9-0.6,1.4-0.9,2.2-1.4c1.3-0.7,3.3-1.8,5-2.5c1.3-0.6,2.5-1.1,3.8-1.6c-2.8,0.8-5.6,1.9-8.1,3.3
		c-1.2,0.7-2.4,1.5-3.5,2.4c-0.9,0.6-1.8,1.3-2.7,2.1c-0.5,0.4-1.1,0.8-1.3,1.3c0.1-0.3,0.3-0.5,0.5-0.6c0.3-0.3,0.6-0.5,0.9-0.7
		C22.4,37.2,23.5,36.5,24.6,35.7z M22.1,72c0.3,0,0.4-0.1,0.3-0.1c-0.1-0.1-0.2-0.1-0.4-0.1C21.8,71.9,21.9,71.9,22.1,72z
		 M24.1,40.9c0.3-0.3,0.8-0.7,1.2-1c1.5-1.1,3.5-2.4,5-3.3c0.8-0.4,1-0.5,1.6-0.9c0.8-0.4,1.5-0.9,2.4-1.3c1.2-0.6,2.5-1.2,3.9-1.8
		c1.5-0.7,3-1.4,4.5-2c-1.2,0.3-2.5,0.7-3.7,1.2c-2,0.7-3.9,1.5-5.7,2.6c-1.5,0.8-3,1.7-4.4,2.6c-1.4,1-2.7,2-3.9,3.1
		c-0.4,0.3-0.9,0.7-1.2,1.1C23.9,41.1,24,41,24.1,40.9z M38,64.3c-2.5-1-4.9-2.1-7.3-3.3c-2.2-1-4.3-2.3-6.4-3.5
		c1.6,1.5,3.4,2.8,5.3,3.9c1.4,0.8,2.9,1.4,4.4,1.9c1.3,0.5,2.6,0.9,3.9,1.3c0.6,0.1,1.1,0.2,1.7,0.2h-0.1
		C39,64.7,38.5,64.5,38,64.3z M24.5,55.2c2,1.7,4.4,2.7,6.9,3.5c0.2,0,0.3,0,0.5,0.1c-0.1-0.1-0.2-0.1-0.3-0.1
		c-1-0.6-2.1-1.1-3.2-1.7C27.1,56.4,25.8,55.9,24.5,55.2z M52.6,30.3c-0.2,0.1-0.9,0.2-1.4,0.4c-0.5,0.1-1.2,0.3-1.5,0.5
		c-0.3,0.1-1.8,0.7-3.3,1.2c-4.2,1.4-6.9,2.6-10.9,4.6c-5.2,2.6-7.1,3.9-9.2,6c-1,1-1.7,1.6-1.5,1.5c0.5-0.3,0.5-0.2,0,0.7
		c-0.2,0.5-0.1,0.5,0.6-0.4c0.5-0.6,1-1.1,1-1.2c0-0.3,2.4-2.1,5.1-3.6c4.7-2.8,8.8-4.6,16.3-7.1c2.4-0.7,4.4-1.5,4.5-1.6
		c0.4-0.4,0.1-0.3-2.9,0.6c-1.4,0.5-2.7,0.8-2.7,0.8c-0.1-0.1,1.2-0.5,2.8-1s3-1.1,3.2-1.2C52.9,30.2,52.9,30.2,52.6,30.3z M25,71.3
		c0.3,0,0.4,0,0.4-0.1c-0.1-0.1-0.3-0.1-0.5,0C24.8,71.2,24.8,71.3,25,71.3z M26.1,71.1c0.3,0,0.4,0,0.3-0.1c-0.1-0.1-0.3-0.1-0.4,0
		C25.8,71,25.9,71.1,26.1,71.1z M32.8,78.5c-2.1,0.6-4.2,1.2-6.3,1.7c-0.2,0.1-0.3,0.1-0.4,0.1c0.2,0,0.3,0,0.5,0
		c2.1-0.3,4.1-0.7,6.1-1.3c1.6-0.5,3.3-1.1,4.9-1.7C36,77.7,34.4,78.1,32.8,78.5z M26.6,44.2c-0.3,0.3-0.5,0.5-0.3,0.5
		c0.1,0,0.2-0.2,0.4-0.4C26.9,44,26.9,44,26.6,44.2z M36,31.9c-1.4,0.5-6.8,3.4-7.9,4.2c-1.6,1.1-1.2,1,1-0.3c1-0.6,3.1-1.8,4.7-2.5
		C36.3,32,37.3,31.4,36,31.9z M27.7,32.7c0,0.1,0.6-0.2,2.4-1.3c1.3-0.8,1.9-1.3,0.9-0.8C30,31.2,27.7,32.6,27.7,32.7z M30.5,64.6
		c-1.7-0.7-3.1-1.4-2.7-1.4c0.1,0,0.6,0.2,1.1,0.4c0.6,0.3,1.8,0.8,2.7,1.1c0.8,0.3,1.6,0.7,1.6,0.7C33.2,65.6,32.2,65.4,30.5,64.6z
		 M41.8,35.5C35.9,37.9,28.5,42,28.2,43c-0.1,0.2-0.1,0.2,0,0.1c0.2-0.1,1-0.8,2-1.4c1.9-1.3,6.7-3.7,10.2-5.2
		c1.2-0.5,2.9-1.2,3.8-1.6c1-0.4,3.1-1.2,4.7-1.7c1.5-0.5,2.9-1,2.9-1C52.2,31.8,45.2,34.1,41.8,35.5z M29.6,30.7
		c0,0.1,0.6-0.1,2.9-1.2c0.9-0.4,2-0.9,2.5-1c0.4-0.2,1.8-0.7,3.1-1.2c1.3-0.5,3.8-1.4,5.6-2c1.7-0.6,3.1-1.2,3-1.2
		c-0.6,0-7.6,2.4-10.7,3.7C32.9,29,29.6,30.5,29.6,30.7z M36,36c-1.7,0.8-6,3.2-6,3.4c0,0,0.4-0.2,0.9-0.4c0.5-0.3,2.2-1.2,3.9-2.1
		C38,35.4,38.7,34.7,36,36z M39.1,65.8c0-0.1-1.1-0.3-2.6-0.7c-0.3,0,0,0.2,0.7,0.4C38.3,65.8,39.1,66,39.1,65.8z M37.3,79.8
		c-0.1-0.1-0.2-0.1-0.4,0c-0.2,0-0.1,0.1,0.1,0.1C37.3,79.9,37.4,79.9,37.3,79.8z M38.8,34.8c-0.2,0-0.4,0.1-0.6,0.2
		c-0.4,0.3,0,0.3,0.5,0C39,34.9,39.1,34.8,38.8,34.8z M40.3,79c-0.1-0.1-0.3-0.1-0.5-0.1c-0.1,0.1-0.1,0.1,0.1,0.2
		C40.2,79.1,40.3,79,40.3,79z M40.9,20.9c0.2,0.1,0.6-0.1,1-0.2c0.8-0.4,0.4-0.4-0.5,0C40.9,20.8,40.7,20.9,40.9,20.9z M45.7,27.7
		c-1.4,0.3-2.7,0.8-4,1.4C42.8,28.9,44.4,28.2,45.7,27.7z M42.5,75.5c0.3-0.1,0.3-0.2,0.1-0.2s-0.5,0.1-0.6,0.2
		C41.6,75.8,41.9,75.8,42.5,75.5z M53.1,17.6c0-0.3-6.3,1.2-9.4,2.3c-1.6,0.6-1.1,0.6,0.6,0c1.4-0.4,6.6-1.7,8-2
		C52.7,17.9,53.1,17.7,53.1,17.6z M44.9,74.6c-1.1,0.4-1.8,0.7-1.6,0.7s1.7-0.4,3.4-1.1c2.7-1,5.4-2.1,5.4-2.3c0-0.1-0.4,0-0.8,0.2
		C49.1,73,46.7,74,44.9,74.6z M43.8,30.7c0,0.1-0.1,0.1-0.1,0.1c0.2-0.1,0.5-0.2,0.6-0.2c2.6-0.9,4.9-1.8,7.8-2.7
		c-1.2,0.1-2.4,0.4-3.5,0.7C47,29.2,45.4,29.9,43.8,30.7z M51.4,76.1c-0.9,0.4-2.9,1.2-4.3,1.6c-1.3,0.6-2.4,1-2.2,1
		c0.1,0,1.1-0.3,2.2-0.7c3.4-1.2,6.4-2.4,6.2-2.6C53.2,75.4,52.4,75.7,51.4,76.1z M53,25.6c-2.2,0.2-4.3,1.2-6.3,2.3
		c-0.1,0-0.1,0.1-0.2,0.1c0.1,0,0.3-0.1,0.3-0.1c0.8-0.3,1.8-0.6,2.6-0.9C50.6,26.5,51.8,26,53,25.6z M53.7,75.3
		c0.1,0,0.2-0.1,0.4-0.2c0-0.1-0.1-0.1-0.3-0.1C53.5,75.2,53.4,75.3,53.7,75.3z M55.6,75.1c0,0.3,0.1,0.4,0.3,0.2
		c0.2-0.2,0.2-0.3,0.1-0.6C55.7,74.2,55.4,74.5,55.6,75.1z M57.9,43.7c0.1-0.1,0.2-0.3,0.2-0.4c0.8-1.3,1.4-2.4,2.2-3.7
		c0.6-0.7,1.1-1.6,1.6-2.4c0.6-0.9,1.2-1.7,1.7-2.7c-1.2,1.7-2.6,3.4-3.7,5.2c-0.8,1.2-1.4,2.4-1.9,3.7C58,43.5,58,43.6,57.9,43.7z
		 M58.4,48.8c0-0.1-0.2-0.1-0.3,0c-0.1,0-0.2,0.2-0.2,0.5s0,0.3,0.2,0C58.2,49.2,58.4,48.9,58.4,48.8z M58.8,34.8
		c0-0.2,0.1-0.3,0.2-0.4c1-1.8,2-2.9,3.2-4.5c1.3-1.7,2.4-3.2,3.8-4.5c-1.4,1.2-2.7,2.7-3.9,4.2c-0.6,0.6-1.1,1.3-1.6,2.1
		c-0.6,0.8-1.2,1.7-1.6,2.7C58.8,34.5,58.8,34.7,58.8,34.8z M65.7,27c-0.2,0-0.2,0.2-0.2,0.3c0,0.3,0.1,0.2,0.2-0.1
		C65.9,27,65.8,26.9,65.7,27z M67.6,19.5c0.1,0,0.2-0.1,0.4-0.3c0.3-0.4,0.3-0.4-0.1-0.2C67.6,19.4,67.5,19.5,67.6,19.5z M72.3,22.8
		c0.3-0.1,0.5-0.3,0.6-0.5c0.1,0,0.3-0.3,0-0.2C72.8,22.2,72.1,22.8,72.3,22.8z M72.8,24.1c-0.4,0.3-0.5,0.5-0.3,0.5
		C72.5,24.6,72.7,24.4,72.8,24.1C73.1,23.9,73.1,23.8,72.8,24.1z"/>
</g>
</svg>
