<?xml version="1.0" encoding="utf-8"?>
<!-- Generator: Adobe Illustrator 26.0.1, SVG Export Plug-In . SVG Version: 6.00 Build 0)  -->
<svg version="1.1" id="Ebene_1" xmlns="http://www.w3.org/2000/svg" xmlns:xlink="http://www.w3.org/1999/xlink" x="0px" y="0px"
	 viewBox="0 0 1920 140" style="enable-background:new 0 0 1920 140;" xml:space="preserve">
<style type="text/css">
	.st0{fill:#100C0A;}
</style>
<path class="st0" d="M0,126.3L344.2,0.6c2.2-0.8,4.6-0.6,6.7,0.4l140.7,73.1c1.8,0.9,3.8,1.2,5.8,0.7L599,50.5
	c1.3-0.3,2.6-0.3,3.9,0l248.8,61.3c1.7,0.4,3.4,0.3,5-0.3l62.8-24.4c1.8-0.7,3.8-0.8,5.6-0.2l77.2,25.3c2.5,0.8,5.3,0.4,7.4-1.2
	L1032,95c2.2-1.6,5.1-2,7.7-1l70.6,26.1c1.7,0.6,3.6,0.7,5.3,0.2L1280,69.8c1.5-0.5,3.1-0.5,4.7-0.1l146.6,40.8
	c2,0.5,4.1,0.3,5.9-0.6l151-75.1c2.2-1.1,4.8-1.2,7.1-0.1l167.2,75.6c1.6,0.7,3.4,0.9,5.1,0.6l76.1-15.8c1.7-0.3,3.4-0.2,5,0.5
	l71.2,30.8V140H0V126.3z"/>
</svg>
