<svg id="Ebene_1" data-name="Ebene 1" xmlns="http://www.w3.org/2000/svg" viewBox="0 0 1920 140"><defs><style>.cls-1{fill:#29211d;}</style></defs><path class="cls-1" d="M0,1461l344.23-125.74a8.32,8.32,0,0,1,6.68.43l140.68,73.08a8.34,8.34,0,0,0,5.76.71L599,1385.23a8.38,8.38,0,0,1,3.92,0l248.8,61.33a8.33,8.33,0,0,0,5-.32l62.79-24.43a8.29,8.29,0,0,1,5.6-.15l77.15,25.27a8.29,8.29,0,0,0,7.44-1.15l22.34-16.11a8.28,8.28,0,0,1,7.73-1l70.55,26.06a8.28,8.28,0,0,0,5.32.15L1280,1404.52a8.43,8.43,0,0,1,4.67-.06l146.57,40.82a8.37,8.37,0,0,0,5.94-.56l151-75.13a8.3,8.3,0,0,1,7.12-.14L1762.53,1445a8.35,8.35,0,0,0,5.12.56l76.11-15.85a8.38,8.38,0,0,1,5,.51L1920,1461v13.75H0Z" transform="translate(0 -1334.71)"/></svg>